<svg width="24" height="24" viewBox="0 0 24 24" fill="none" xmlns="http://www.w3.org/2000/svg">
<path fill-rule="evenodd" clip-rule="evenodd" d="M2.57227 4.92969C2.57227 4.10126 3.24384 3.42969 4.07226 3.42969H17.5723C18.4007 3.42969 19.0723 4.10126 19.0723 4.92969V11.3865C19.0723 11.7415 18.7844 12.0293 18.4294 12.0293C18.0744 12.0293 17.7866 11.7415 17.7866 11.3865V4.92969C17.7866 4.81134 17.6906 4.7154 17.5723 4.7154H4.07226C3.95392 4.7154 3.85798 4.81134 3.85798 4.92969V18.9019C3.85798 19.0202 3.95392 19.1162 4.07227 19.1162H14.1437C14.4987 19.1162 14.7866 19.404 14.7866 19.759C14.7866 20.1141 14.4987 20.4019 14.1437 20.4019H4.07227C3.24384 20.4019 2.57227 19.7303 2.57227 18.9019V4.92969ZM18.6247 13.6272L19.1379 15.1463C19.3601 15.8042 19.839 16.3443 20.4656 16.6436L21.3916 17.0859L20.4656 17.5283C19.839 17.8276 19.3601 18.3676 19.1379 19.0255L18.6247 20.5446L18.1114 19.0255C17.8892 18.3676 17.4103 17.8276 16.7837 17.5283L15.8577 17.0859L16.7837 16.6436C17.4103 16.3443 17.8892 15.8042 18.1114 15.1463L18.6247 13.6272ZM8.17508 6.92411V16.8981H9.67995V13.3916H11.7254C12.4981 13.3916 13.1394 13.2504 13.6491 12.9679C14.1621 12.6822 14.5452 12.2959 14.7985 11.8088C15.055 11.3186 15.1832 10.7666 15.1832 10.153C15.1832 9.54261 15.0566 8.99391 14.8033 8.5069C14.5501 8.01664 14.1686 7.63028 13.6589 7.34781C13.1491 7.06534 12.5063 6.92411 11.7303 6.92411H8.17508ZM9.67995 12.1157H11.589C12.0793 12.1157 12.477 12.0313 12.7822 11.8624C13.0874 11.6903 13.3114 11.4566 13.4543 11.1611C13.5972 10.8657 13.6686 10.5296 13.6686 10.153C13.6686 9.77638 13.5972 9.44196 13.4543 9.14976C13.3114 8.85755 13.0858 8.62865 12.7774 8.46307C12.4722 8.29748 12.0696 8.21469 11.5696 8.21469H9.67995V12.1157Z" fill="white"/>
</svg>
