<svg xmlns="http://www.w3.org/2000/svg" xmlns:xlink="http://www.w3.org/1999/xlink" width="117" height="28"><defs><path id="c" d="M.487.077C.18.4 0 .902 0 1.554v23.258c0 .65.18 1.153.487 1.477l.077.076 13.029-13.029v-.307L.563 0 .488.077z"/><path id="e" d="M0 4.344v.307l4.342 4.345.1-.055 5.144-2.925c1.47-.835 1.47-2.202 0-3.037L4.442.056 4.343 0 0 4.344z"/><path id="h" d="M0 13.106c.484.513 1.284.576 2.185.064l15.363-8.728L13.106 0 0 13.106z"/><path id="k" d="m0 .419 13.106 13.106 4.442-4.442L2.185.353C1.762.113 1.362 0 1.006 0 .604 0 .256.146 0 .419"/><path id="a" d="M.116 0h.773v1.559H.116z"/><linearGradient id="f" x1="0%" x2="100%" y1="50%" y2="50%"><stop offset="0%" stop-color="#FB0"/><stop offset="100%" stop-color="#FFDB00"/></linearGradient><linearGradient id="i" x1="86.243%" x2="-50.14%" y1="30.901%" y2="136.011%"><stop offset="0%" stop-color="#FF3A44"/><stop offset="100%" stop-color="#C31162"/></linearGradient></defs><g fill="none" fill-rule="evenodd"><path fill="#FFF" d="M37.744 4.051c0 .842-.25 1.513-.749 2.013-.568.595-1.306.892-2.214.892-.87 0-1.611-.301-2.22-.905-.61-.603-.913-1.352-.913-2.244 0-.893.304-1.64.914-2.245C33.17.96 33.91.658 34.78.658c.43 0 .845.084 1.236.252.393.169.708.393.944.673l-.53.531c-.4-.476-.95-.715-1.65-.715-.636 0-1.184.223-1.647.669-.464.447-.695 1.026-.695 1.74 0 .712.231 1.291.695 1.738a2.29 2.29 0 0 0 1.647.669c.673 0 1.233-.224 1.684-.673.291-.293.46-.699.504-1.221h-2.188v-.725h2.92c.029.158.043.309.043.455"/><path stroke="#FFF" stroke-width=".2" d="M37.744 4.051c0 .842-.25 1.513-.749 2.013-.568.595-1.306.892-2.214.892-.87 0-1.611-.301-2.22-.905-.61-.603-.913-1.352-.913-2.244 0-.893.304-1.64.914-2.245C33.17.96 33.91.658 34.78.658c.43 0 .845.084 1.236.252.393.169.708.393.944.673l-.53.531c-.4-.476-.95-.715-1.65-.715-.636 0-1.184.223-1.647.669-.464.447-.695 1.026-.695 1.74 0 .712.231 1.291.695 1.738a2.29 2.29 0 0 0 1.647.669c.673 0 1.233-.224 1.684-.673.291-.293.46-.699.504-1.221h-2.188v-.725h2.92c.029.158.043.309.043.455z"/><path fill="#FFF" d="M42.375 1.533H39.63v1.912h2.475v.724H39.63V6.08h2.745v.742h-3.52V.793h3.52z"/><path d="M42.375 1.533H39.63v1.912h2.475v.724H39.63V6.08h2.745v.742h-3.52V.793h3.52z"/><path fill="#FFF" d="M45.642 6.822h-.775V1.533h-1.684V.792h4.143v.741h-1.684z"/><path d="M45.642 6.822h-.775V1.533h-1.684V.792h4.143v.741h-1.684z"/><path fill="#FFF" d="M50.324 6.822h.774V.793h-.774z"/><path d="M50.324 6.822h.774V.793h-.774z"/><path fill="#FFF" d="M54.535 6.822h-.775V1.533h-1.684V.792h4.143v.741h-1.684z"/><path d="M54.535 6.822h-.775V1.533h-1.684V.792h4.143v.741h-1.684z"/><path fill="#FFF" d="M60.213 5.538c.446.452.992.677 1.638.677.645 0 1.192-.225 1.638-.677.446-.453.67-1.03.67-1.73 0-.702-.224-1.28-.67-1.731a2.214 2.214 0 0 0-1.638-.678c-.646 0-1.192.226-1.638.678-.445.451-.67 1.029-.67 1.73 0 .702.225 1.278.67 1.73m3.848.505c-.592.61-1.329.914-2.21.914s-1.618-.304-2.21-.914c-.593-.609-.888-1.354-.888-2.235 0-.881.295-1.627.888-2.236.592-.609 1.329-.913 2.21-.913.876 0 1.61.305 2.206.917.595.612.893 1.356.893 2.232 0 .881-.297 1.626-.889 2.235"/><path d="M60.213 5.538c.446.452.992.677 1.638.677.645 0 1.192-.225 1.638-.677.446-.453.67-1.03.67-1.73 0-.702-.224-1.28-.67-1.731a2.214 2.214 0 0 0-1.638-.678c-.646 0-1.192.226-1.638.678-.445.451-.67 1.029-.67 1.73 0 .702.225 1.278.67 1.73zm3.848.504c-.592.61-1.329.914-2.21.914s-1.618-.304-2.21-.914c-.593-.609-.888-1.354-.888-2.235 0-.881.295-1.627.888-2.236.592-.609 1.329-.913 2.21-.913.876 0 1.61.305 2.206.917.595.612.893 1.356.893 2.232 0 .881-.297 1.626-.889 2.235z"/><path fill="#FFF" d="M66.037 6.822V.792h.942l2.931 4.69h.034L69.91 4.32V.792h.775v6.03h-.809l-3.064-4.918h-.035l.035 1.162v3.756z"/><path d="M66.037 6.822V.792h.942l2.931 4.69h.034L69.91 4.32V.792h.775v6.03h-.809l-3.064-4.918h-.035l.035 1.162v3.756z"/><path fill="#FFF" d="M97.55 23.904h1.874V11.342H97.55v12.562zm16.889-8.037-2.15 5.446h-.065l-2.23-5.446h-2.02l3.346 7.612-1.908 4.234h1.956l5.156-11.846h-2.085zm-10.635 6.61c-.614 0-1.47-.307-1.47-1.067 0-.969 1.066-1.342 1.988-1.342.824 0 1.212.18 1.712.42a2.271 2.271 0 0 1-2.23 1.99zm.226-6.885c-1.356 0-2.763.599-3.345 1.923l1.664.696c.357-.696 1.02-.922 1.714-.922.97 0 1.956.582 1.971 1.616v.13c-.34-.194-1.066-.485-1.955-.485-1.794 0-3.62.986-3.62 2.828 0 1.68 1.47 2.764 3.12 2.764 1.26 0 1.955-.566 2.39-1.229h.065v.97h1.81v-4.816c0-2.23-1.664-3.475-3.814-3.475zm-11.586 1.805h-2.667V13.09h2.667c1.4 0 2.196 1.16 2.196 2.152 0 .974-.796 2.154-2.196 2.154zm-.05-6.056h-4.492v12.563h1.875v-4.759h2.617c2.078 0 4.122-1.504 4.122-3.902 0-2.396-2.044-3.902-4.122-3.902zM67.895 22.48c-1.295 0-2.38-1.084-2.38-2.573 0-1.507 1.085-2.607 2.38-2.607 1.28 0 2.283 1.1 2.283 2.607 0 1.489-1.004 2.573-2.283 2.573zm2.154-5.908h-.066c-.42-.502-1.23-.956-2.25-.956-2.137 0-4.095 1.88-4.095 4.29 0 2.396 1.958 4.258 4.095 4.258 1.02 0 1.83-.453 2.25-.971h.066v.614c0 1.636-.875 2.51-2.283 2.51-1.149 0-1.861-.825-2.153-1.522l-1.635.68c.47 1.133 1.716 2.526 3.788 2.526 2.202 0 4.063-1.296 4.063-4.453v-7.673h-1.78v.697zm3.075 7.333h1.877V11.342h-1.877v12.562zm4.646-4.144c-.047-1.652 1.28-2.493 2.235-2.493.744 0 1.375.373 1.586.906L77.77 19.76zm5.828-1.425c-.356-.954-1.44-2.72-3.658-2.72-2.202 0-4.031 1.732-4.031 4.275 0 2.395 1.814 4.273 4.241 4.273 1.959 0 3.092-1.198 3.561-1.894l-1.457-.972c-.485.713-1.148 1.182-2.104 1.182-.955 0-1.635-.437-2.072-1.295l5.715-2.364-.195-.485zM38.07 16.927v1.813h4.34c-.13 1.02-.47 1.765-.988 2.282-.631.632-1.62 1.328-3.352 1.328-2.67 0-4.758-2.153-4.758-4.824 0-2.67 2.088-4.825 4.758-4.825 1.441 0 2.493.567 3.27 1.296l1.28-1.279c-1.085-1.036-2.526-1.83-4.55-1.83-3.658 0-6.734 2.98-6.734 6.638s3.076 6.637 6.734 6.637c1.975 0 3.465-.648 4.63-1.862 1.199-1.198 1.57-2.88 1.57-4.241 0-.42-.032-.81-.096-1.133H38.07zm11.133 5.552c-1.295 0-2.413-1.068-2.413-2.59 0-1.538 1.118-2.59 2.413-2.59 1.295 0 2.412 1.052 2.412 2.59 0 1.522-1.117 2.59-2.412 2.59zm0-6.864c-2.363 0-4.29 1.798-4.29 4.275 0 2.46 1.927 4.273 4.29 4.273 2.364 0 4.29-1.813 4.29-4.273 0-2.477-1.926-4.275-4.29-4.275zm9.358 6.864c-1.294 0-2.411-1.068-2.411-2.59 0-1.538 1.117-2.59 2.411-2.59 1.295 0 2.413 1.052 2.413 2.59 0 1.522-1.118 2.59-2.413 2.59zm0-6.864c-2.363 0-4.29 1.798-4.29 4.275 0 2.46 1.927 4.273 4.29 4.273 2.365 0 4.29-1.813 4.29-4.273 0-2.477-1.925-4.275-4.29-4.275z"/><g><path fill="#000" d="M17.255 18.007 2.67 26.295c-.816.463-1.546.433-2.014.01l-.074.076.073.072h.001c.468.421 1.198.452 2.014-.01L17.349 18.1l-.094-.094z"/><g transform="translate(0 24.822)"><mask id="b" fill="#fff"><use xlink:href="#a"/></mask><path fill="#000" d="M.582 1.412C.289 1.102.116.622.116 0v.147c0 .622.173 1.102.466 1.412l.074-.075-.074-.072z" mask="url(#b)"/></g><path fill="#000" d="m22.265 15.16-5.01 2.847.093.094 4.917-2.794c.703-.398 1.053-.924 1.053-1.45-.059.476-.416.942-1.053 1.304"/><path fill="#FFF" d="m2.67 1.419 19.595 11.133c.637.362.994.828 1.053 1.305.001-.526-.35-1.052-1.053-1.451L2.67 1.272C1.265.474.116 1.137.116 2.745v.147C.116 1.284 1.265.62 2.67 1.419"/></g><g transform="translate(.122 .342)"><mask id="d" fill="#fff"><use xlink:href="#c"/></mask><path fill="#02D0FF" d="M.487.077C.18.4 0 .902 0 1.554v23.258c0 .65.18 1.153.487 1.477l.077.076 13.029-13.029v-.307L.563 0 .488.077z" mask="url(#d)"/></g><g transform="translate(13.715 9.027)"><mask id="g" fill="#fff"><use xlink:href="#e"/></mask><path fill="url(#f)" d="M0 4.344v.307l4.342 4.345.1-.055 5.144-2.925c1.47-.835 1.47-2.202 0-3.037L4.442.056 4.343 0 0 4.344z" mask="url(#g)"/></g><g transform="translate(.609 13.525)"><mask id="j" fill="#fff"><use xlink:href="#h"/></mask><path fill="url(#i)" d="M0 13.106c.484.513 1.284.576 2.185.064l15.363-8.728L13.106 0 0 13.106z" mask="url(#j)"/></g><g transform="translate(.609)"><mask id="l" fill="#fff"><use xlink:href="#k"/></mask><path fill="#02F076" d="m0 .419 13.106 13.106 4.442-4.442L2.185.353C1.762.113 1.362 0 1.006 0 .604 0 .256.146 0 .419" mask="url(#l)"/></g></g></svg>