<?xml version="1.0" encoding="UTF-8"?>
<svg width="36px" height="36px" viewBox="0 0 36 36" version="1.1" xmlns="http://www.w3.org/2000/svg" xmlns:xlink="http://www.w3.org/1999/xlink">
    <title>Backtotop</title>
    <g id="Index" stroke="none" stroke-width="1" fill="none" fill-rule="evenodd">
        <g id="画板" transform="translate(-228.000000, -351.000000)">
            <g id="编组-167" transform="translate(216.000000, 339.000000)">
                <g id="Backtotop" transform="translate(12.000000, 12.000000)">
                    <rect id="矩形" x="0" y="0" width="36" height="36"></rect>
                    <g id="编组-126" transform="translate(8.000000, 5.000000)" fill="#333333">
                        <path d="M2,0 L18,0 C19.1045695,0 20,0.8954305 20,2 C20,3.1045695 19.1045695,4 18,4 L2,4 C0.8954305,4 0,3.1045695 0,2 C0,0.8954305 0.8954305,0 2,0 Z" id="矩形"></path>
                        <path d="M11.9773307,8.15792802 L12.1213203,8.29289322 L17.4142136,13.5857864 C18.1952621,14.366835 18.1952621,15.633165 17.4142136,16.4142136 C16.6742728,17.1541543 15.4987886,17.1930986 14.7130012,16.5310463 L14.5857864,16.4142136 L12,13.8282136 L12,24 C12,25.1045695 11.1045695,26 10,26 C8.8954305,26 8,25.1045695 8,24 L8,13.8282136 L5.41421356,16.4142136 C4.6742728,17.1541543 3.49878864,17.1930986 2.71300121,16.5310463 L2.58578644,16.4142136 C1.84584567,15.6742728 1.80690142,14.4987886 2.46895369,13.7130012 L2.58578644,13.5857864 L7.87867966,8.29289322 C9.00338962,7.16818326 10.7989525,7.12319486 11.9773307,8.15792802 Z" id="路径"></path>
                    </g>
                </g>
            </g>
        </g>
    </g>
</svg>