<svg width="766" height="156" viewBox="0 0 766 156" fill="none" xmlns="http://www.w3.org/2000/svg">
<g opacity="0.2">
<path fill-rule="evenodd" clip-rule="evenodd" d="M213.694 5.30212C355.447 60.2802 539.32 119.261 737.395 155.805H702.024L113.497 155.891H10.7832L213.694 5.30212Z" fill="#7DD3B2"/>
<path fill-rule="evenodd" clip-rule="evenodd" d="M216.737 3.18115C202.393 12.4322 196.44 25.8168 198.875 43.3348C202.529 69.6118 241.905 70.2023 247.182 91.1649C250.701 105.14 243.446 120.788 225.418 138.109L94.5817 155.89H10.7832L216.737 3.18115Z" fill="#68C8A7"/>
<path fill-rule="evenodd" clip-rule="evenodd" d="M166.415 77.4146C348.213 143.356 343.41 131.546 565.776 119.188L565.804 155.89H150.598L166.415 77.4146ZM389.278 112.203L393.227 131.546L383.905 131.02L371.605 130.184L378.89 114.901L379.473 121.068L383.905 121.886L389.278 112.203Z" fill="url(#paint0_linear_1690_27441)"/>
<path fill-rule="evenodd" clip-rule="evenodd" d="M167.545 77.4148C136.794 104.987 80.1343 151.512 42.2415 156L152.822 155.682L167.545 77.4148ZM76.9573 117.399L76.798 127.13L77.2775 130.59L79.0187 130.157V125.24L78.6842 119.99L78.5872 125.913L77.8505 126.699L76.9573 117.399Z" fill="url(#paint1_linear_1690_27441)"/>
<path fill-rule="evenodd" clip-rule="evenodd" d="M486.881 88.0197H500.675C501.546 88.0197 502.252 88.8637 502.252 89.905V126.197H485.305V89.905C485.305 88.8637 486.011 88.0197 486.881 88.0197Z" fill="#0EAD7D"/>
<path fill-rule="evenodd" clip-rule="evenodd" d="M516.539 68.931H530.334C531.204 68.931 531.91 69.7581 531.91 70.7783V126.197H514.963V70.7783C514.963 69.7581 515.669 68.931 516.539 68.931Z" fill="#6EF3B4"/>
<path fill-rule="evenodd" clip-rule="evenodd" d="M550.434 30.7535H564.228C565.099 30.7535 565.805 31.5873 565.805 32.6158V126.197H548.857V32.6158C548.857 31.5873 549.563 30.7535 550.434 30.7535Z" fill="#8EFDDC"/>
<path fill-rule="evenodd" clip-rule="evenodd" d="M580.092 68.931H593.886C594.757 68.931 595.463 69.7581 595.463 70.7783V126.197H578.516V70.7783C578.516 69.7581 579.221 68.931 580.092 68.931Z" fill="#F3FFB1"/>
<path fill-rule="evenodd" clip-rule="evenodd" d="M0.191406 155.89C344.053 154.79 593.664 125.828 658.914 73.1729L747.987 155.89H0.191406Z" fill="url(#paint2_linear_1690_27441)"/>
<path fill-rule="evenodd" clip-rule="evenodd" d="M750.105 155.89C703.348 155.158 672.505 139.746 658.985 75.2938C657.717 100.514 648.422 155.89 648.422 155.89H750.105Z" fill="url(#paint3_linear_1690_27441)"/>
<g opacity="0.423107">
<g opacity="0.423107" filter="url(#filter0_d_1690_27441)">
<path d="M620.3 44.0444C621.396 44.0444 622.284 43.1551 622.284 42.0581C622.284 40.9611 621.396 40.0718 620.3 40.0718C619.205 40.0718 618.316 40.9611 618.316 42.0581C618.316 43.1551 619.205 44.0444 620.3 44.0444Z" fill="black"/>
</g>
<path opacity="0.423107" d="M620.3 44.0444C621.396 44.0444 622.284 43.1551 622.284 42.0581C622.284 40.9611 621.396 40.0718 620.3 40.0718C619.205 40.0718 618.316 40.9611 618.316 42.0581C618.316 43.1551 619.205 44.0444 620.3 44.0444Z" fill="#99EBBF"/>
</g>
<path d="M688.745 53.1816C691.265 53.1816 693.308 51.1361 693.308 48.613C693.308 46.0899 691.265 44.0444 688.745 44.0444C686.225 44.0444 684.182 46.0899 684.182 48.613C684.182 51.1361 686.225 53.1816 688.745 53.1816Z" fill="#99EBBF"/>
<path d="M761.159 77.4149C763.351 77.4149 765.127 75.6363 765.127 73.4423C765.127 71.2482 763.351 69.4696 761.159 69.4696C758.968 69.4696 757.191 71.2482 757.191 73.4423C757.191 75.6363 758.968 77.4149 761.159 77.4149Z" fill="#99EBBF"/>
<g opacity="0.423107" filter="url(#filter1_d_1690_27441)">
<path d="M734.971 26.962C736.505 26.962 737.748 25.717 737.748 24.1811C737.748 22.6453 736.505 21.4003 734.971 21.4003C733.437 21.4003 732.193 22.6453 732.193 24.1811C732.193 25.717 733.437 26.962 734.971 26.962Z" fill="black"/>
</g>
<path opacity="0.423107" d="M734.971 26.962C736.505 26.962 737.748 25.717 737.748 24.1811C737.748 22.6453 736.505 21.4003 734.971 21.4003C733.437 21.4003 732.193 22.6453 732.193 24.1811C732.193 25.717 733.437 26.962 734.971 26.962Z" fill="#99EBBF"/>
</g>
<defs>
<filter id="filter0_d_1690_27441" x="578.25" y="0.00511169" width="84.1021" height="84.106" filterUnits="userSpaceOnUse" color-interpolation-filters="sRGB">
<feFlood flood-opacity="0" result="BackgroundImageFix"/>
<feColorMatrix in="SourceAlpha" type="matrix" values="0 0 0 0 0 0 0 0 0 0 0 0 0 0 0 0 0 0 127 0" result="hardAlpha"/>
<feOffset/>
<feGaussianBlur stdDeviation="20.0333"/>
<feColorMatrix type="matrix" values="0 0 0 0 1 0 0 0 0 1 0 0 0 0 1 0 0 0 0.5 0"/>
<feBlend mode="normal" in2="BackgroundImageFix" result="effect1_dropShadow_1690_27441"/>
<feBlend mode="normal" in="SourceGraphic" in2="effect1_dropShadow_1690_27441" result="shape"/>
</filter>
<filter id="filter1_d_1690_27441" x="718.838" y="8.04471" width="32.2658" height="32.2729" filterUnits="userSpaceOnUse" color-interpolation-filters="sRGB">
<feFlood flood-opacity="0" result="BackgroundImageFix"/>
<feColorMatrix in="SourceAlpha" type="matrix" values="0 0 0 0 0 0 0 0 0 0 0 0 0 0 0 0 0 0 127 0" result="hardAlpha"/>
<feOffset/>
<feGaussianBlur stdDeviation="6.67778"/>
<feColorMatrix type="matrix" values="0 0 0 0 1 0 0 0 0 1 0 0 0 0 1 0 0 0 0.5 0"/>
<feBlend mode="normal" in2="BackgroundImageFix" result="effect1_dropShadow_1690_27441"/>
<feBlend mode="normal" in="SourceGraphic" in2="effect1_dropShadow_1690_27441" result="shape"/>
</filter>
<linearGradient id="paint0_linear_1690_27441" x1="262.848" y1="114.165" x2="351.676" y2="142.277" gradientUnits="userSpaceOnUse">
<stop stop-color="#77E1C6"/>
<stop offset="1" stop-color="#41C27E"/>
</linearGradient>
<linearGradient id="paint1_linear_1690_27441" x1="92.9239" y1="118.339" x2="76.7265" y2="119.226" gradientUnits="userSpaceOnUse">
<stop stop-color="#3DC19F"/>
<stop offset="1" stop-color="#41C27E"/>
</linearGradient>
<linearGradient id="paint2_linear_1690_27441" x1="445.161" y1="114.408" x2="682.181" y2="30.4186" gradientUnits="userSpaceOnUse">
<stop stop-color="#47C9A8"/>
<stop offset="1" stop-color="#46D172"/>
</linearGradient>
<linearGradient id="paint3_linear_1690_27441" x1="689.6" y1="128.295" x2="653.513" y2="125.681" gradientUnits="userSpaceOnUse">
<stop stop-color="#47C9A8"/>
<stop offset="1" stop-color="#46D172"/>
</linearGradient>
</defs>
</svg>
