<?xml version="1.0" encoding="UTF-8"?>
<svg width="16px" height="16px" viewBox="0 0 16 16" version="1.1" xmlns="http://www.w3.org/2000/svg" xmlns:xlink="http://www.w3.org/1999/xlink">
    <title>PPT</title>
    <g id="页面-1" stroke="none" stroke-width="1" fill="none" fill-rule="evenodd">
        <g id="992_内容承载页" transform="translate(-187.000000, -2701.000000)" fill="#969697">
            <g id="Group" transform="translate(187.000000, 2701.000000)">
                <path d="M2.85714287,2 C2.62981445,2 2.4117968,2.10535683 2.25105133,2.29289321 C2.09030586,2.48042959 2,2.7347835 2,3 L2,13 C2,13.2652165 2.09030586,13.5195704 2.25105133,13.7071068 C2.4117968,13.8946432 2.62981445,14 2.85714287,14 L13.1428571,14 C13.3701856,14 13.5882032,13.8946432 13.7489487,13.7071068 C13.9096941,13.5195704 14,13.2652165 14,13 L14,3 C14,2.7347835 13.9096941,2.48042959 13.7489487,2.29289321 C13.5882032,2.10535683 13.3701856,2 13.1428571,2 L2.85714287,2 Z M2.66666667,0 L13.3333333,0 C14.8060927,0 16,1.34314575 16,3 L16,13 C16,14.6568543 14.8060927,16 13.3333333,16 L2.66666667,16 C1.19390733,16 0,14.6568543 0,13 L0,3 C0,1.34314575 1.19390733,0 2.66666667,0 Z" id="形状" fill-rule="nonzero"></path>
                <path d="M10.1010101,4.22222222 C11.2805819,4.27057642 12.2222222,5.24123135 12.2222222,6.43181818 C12.2222222,7.65214433 11.2329524,8.64141414 10.0126263,8.64141414 L10.1004444,8.63822222 L10.1010101,8.64141414 L5.50444444,8.64122222 L5.50505051,11.469697 C5.50505051,11.7625752 5.26762575,12 4.97474747,12 C4.6818692,12 4.44444444,11.7625752 4.44444444,11.469697 L4.44444444,8.11111111 C4.44444444,7.81823283 4.6818692,7.58080808 4.97474747,7.58080808 C5.05253087,7.58080808 5.12640289,7.59755463 5.19295474,7.62763894 C5.2905116,7.5973102 5.39585391,7.58080808 5.50505051,7.58080808 L10.1010101,7.58080808 L10.1004444,7.57522222 L10.1378214,7.57406596 C10.7134989,7.51168471 11.1616162,7.02408314 11.1616162,6.43181818 C11.1616162,5.82703105 10.6943496,5.33137986 10.1011389,5.28618692 L10.1010101,5.28282828 L4.97474747,5.28282828 C4.6818692,5.28282828 4.44444444,5.04540353 4.44444444,4.75252525 C4.44444444,4.45964698 4.6818692,4.22222222 4.97474747,4.22222222 L10.1010101,4.22222222 Z" id="Combined-Shape" stroke="#979797" stroke-width="0.5"></path>
            </g>
        </g>
    </g>
</svg>