<svg width="135" height="26" viewBox="0 0 135 26" fill="none" xmlns="http://www.w3.org/2000/svg">
<rect x="0.439697" y="0.73291" width="24.4398" height="24.4398" fill="#24AD7A"/>
<path d="M12.6594 17.4451L16.5866 16.4501L18.2277 21.507L12.6594 17.4451ZM21.6977 10.909H14.7842L12.6594 4.39917L10.5347 10.909H3.62122L9.21663 14.9438L7.09189 21.4535L12.6873 17.4187L16.1301 14.9438L21.6977 10.909Z" fill="white"/>
<rect x="27.9344" y="0.73291" width="24.4398" height="24.4398" fill="#24AD7A"/>
<path d="M40.1541 17.4451L44.0812 16.4501L45.7224 21.507L40.1541 17.4451ZM49.1923 10.909H42.2788L40.1541 4.39917L38.0293 10.909H31.1158L36.7113 14.9438L34.5865 21.4535L40.1819 17.4187L43.6247 14.9438L49.1923 10.909Z" fill="white"/>
<rect x="55.4292" y="0.73291" width="24.4398" height="24.4398" fill="#24AD7A"/>
<path d="M67.6492 17.4451L71.5763 16.4501L73.2175 21.507L67.6492 17.4451ZM76.6874 10.909H69.7739L67.6492 4.39917L65.5245 10.909H58.611L64.2064 14.9438L62.0816 21.4535L67.6771 17.4187L71.1199 14.9438L76.6874 10.909Z" fill="white"/>
<rect x="82.924" y="0.73291" width="24.4398" height="24.4398" fill="#24AD7A"/>
<path d="M95.1436 17.4451L99.0707 16.4501L100.712 21.507L95.1436 17.4451ZM104.182 10.909H97.2683L95.1436 4.39917L93.0188 10.909H86.1053L91.7008 14.9438L89.576 21.4535L95.1714 17.4187L98.6142 14.9438L104.182 10.909Z" fill="white"/>
<rect x="110.419" y="0.73291" width="24.4398" height="24.4398" fill="#24AD7A"/>
<path d="M122.638 17.4451L126.566 16.4501L128.207 21.507L122.638 17.4451ZM131.677 10.909H124.763L122.638 4.39917L120.514 10.909H113.6L119.196 14.9438L117.071 21.4535L122.666 17.4187L126.109 14.9438L131.677 10.909Z" fill="white"/>
</svg>
