<?xml version="1.0" encoding="UTF-8"?>
<svg width="36px" height="36px" viewBox="0 0 36 36" version="1.1" xmlns="http://www.w3.org/2000/svg" xmlns:xlink="http://www.w3.org/1999/xlink">
    <title>Community</title>
    <g id="Index" stroke="none" stroke-width="1" fill="none" fill-rule="evenodd">
        <g id="画板" transform="translate(-228.000000, -184.000000)">
            <g id="编组-4" transform="translate(216.000000, 172.000000)">
                <g id="Community" transform="translate(12.000000, 12.000000)">
                    <rect id="矩形" x="0" y="0" width="36" height="36"></rect>
                    <g id="qunzu" transform="translate(4.600000, 5.000000)" fill="#333333" fill-rule="nonzero">
                        <path d="M11.6390722,13.3720697 L12.1451131,13.4411011 C12.9531049,13.6026994 13.5512182,14.4001838 13.3922323,15.1951131 C13.2396116,15.9582165 12.5197963,16.5341134 11.7813103,16.4637725 L11.6509071,16.4445576 C8.96422353,15.996777 6.23824217,16.3157748 3.6764911,17.3628067 C3.53245968,17.4108171 3.3075035,17.7411892 3.2592914,17.9580883 L3.25,18.0333333 L3.25,21.7666667 C3.25,22.205829 3.49164755,22.4840734 3.90094046,22.5273977 L4.01666669,22.5333333 L9.85,22.5333333 C10.7709139,22.5333333 11.4166666,23.1790861 11.4166667,24.1 C11.4166667,24.9638118 10.7449568,25.5970218 9.87931987,25.6612826 L9.73333334,25.6666667 L3.9,25.6666667 C1.76463548,25.6666667 0.106481124,24.0752425 0.0049317934,21.9717889 L0,21.7666667 L0,18.0333333 C0,16.5567385 1.06171991,15.0231431 2.47307506,14.5099951 C5.39925667,13.3845407 8.55560168,12.9968878 11.6390722,13.3720697 Z M26.565223,15.445276 C27.8137615,15.9446914 28.71114,17.1555326 28.7937735,18.4257675 L28.8,18.6166667 L28.8,22.5833333 C28.8,24.2801853 27.5265289,25.5747136 25.7880123,25.6619737 L25.6,25.6666667 L18.95,25.6666667 C18.0290861,25.6666667 17.3833333,25.0209139 17.3833333,24.1 C17.3833333,23.230248 17.9593289,22.6059329 18.7991257,22.539249 L18.95,22.5333333 L25.55,22.533 L25.55,18.6166667 C25.55,18.5658648 25.4863332,18.4534307 25.4240345,18.373576 L25.3785831,18.3212656 L25.3397417,18.2900049 C22.3988358,17.1588873 19.2344975,17.1588873 16.3288854,18.2744376 C16.2436339,18.3170633 16.129946,18.4733866 16.0944181,18.5684092 L16.0833333,18.6166667 L16.0833333,24.1 C16.0833333,25.0209139 15.4375806,25.6666667 14.5166667,25.6666667 C13.6469147,25.6666667 13.0225996,25.0906712 12.9559156,24.2508743 L12.95,24.1 L12.95,18.6166667 C12.95,17.3945431 13.8369011,16.1301612 14.995178,15.5352662 L15.1889357,15.4436394 C18.8985086,14.0076758 22.8514915,14.0076758 26.565223,15.445276 Z M20.9,4 C23.3852814,4 25.4,6.01471863 25.4,8.5 C25.4,10.9852814 23.3852814,13 20.9,13 C18.4147186,13 16.4,10.9852814 16.4,8.5 C16.4,6.01471863 18.4147186,4 20.9,4 Z M8.9,0 C11.9375661,0 14.4,2.46243388 14.4,5.5 C14.4,8.53756612 11.9375661,11 8.9,11 C5.86243388,11 3.4,8.53756612 3.4,5.5 C3.4,2.46243388 5.86243388,0 8.9,0 Z M20.9,6.5 C19.7954305,6.5 18.9,7.3954305 18.9,8.5 C18.9,9.6045695 19.7954305,10.5 20.9,10.5 C22.0045695,10.5 22.9,9.6045695 22.9,8.5 C22.9,7.3954305 22.0045695,6.5 20.9,6.5 Z M8.9,3 C7.51928813,3 6.4,4.11928813 6.4,5.5 C6.4,6.88071187 7.51928813,8 8.9,8 C10.2807119,8 11.4,6.88071187 11.4,5.5 C11.4,4.11928813 10.2807119,3 8.9,3 Z" id="形状结合"></path>
                    </g>
                </g>
            </g>
        </g>
    </g>
</svg>