<?xml version="1.0" encoding="UTF-8"?>
<svg width="45px" height="45px" viewBox="0 0 45 45" version="1.1" xmlns="http://www.w3.org/2000/svg" xmlns:xlink="http://www.w3.org/1999/xlink">
    <title>mdpi/Email</title>
    <g id="教育页面" stroke="none" stroke-width="1" fill="none" fill-rule="evenodd">
        <g id="教育页面移动端" transform="translate(-191.000000, -676.000000)">
            <g id="Email" transform="translate(191.000000, 676.000000)">
                <circle id="椭圆形" fill="#E5E5E5" cx="22.5" cy="22.5" r="22.5"></circle>
                <g id="Email-Hili备份" transform="translate(11.095890, 14.227681)" fill="#434344" fill-rule="nonzero">
                    <path d="M20.5269965,0 L2.28122271,0 C1.02619492,0 0,0.901541015 0,2.0034252 L0,14.0239721 C0,15.1258562 1.02619926,16.0273973 2.28122271,16.0273973 L20.5269965,16.0273973 C21.7820243,16.0273973 22.8082192,15.1258562 22.8082192,14.0239721 L22.8082192,2.0034252 C22.8082192,0.901541015 21.7820199,0 20.5269965,0 Z M20.7074621,4.10404899 L11.5541637,9.07211166 L2.40086518,4.10404899 L2.40086518,2.11682605 L11.5541637,7.08488872 L20.7074621,2.11682605 L20.7074621,4.10404899 L20.7074621,4.10404899 Z" id="形状"></path>
                </g>
            </g>
        </g>
    </g>
</svg>