<?xml version="1.0" encoding="UTF-8"?>
<svg width="36px" height="36px" viewBox="0 0 36 36" version="1.1" xmlns="http://www.w3.org/2000/svg" xmlns:xlink="http://www.w3.org/1999/xlink">
    <title>矩形</title>
    <g id="Index" stroke="none" stroke-width="1" fill="none" fill-rule="evenodd">
        <g id="画板" transform="translate(-228.000000, -97.000000)">
            <g id="Feedback" transform="translate(228.000000, 97.000000)">
                <rect id="矩形" x="0" y="0" width="36" height="36"></rect>
                <g id="编组-6" transform="translate(22.005204, 21.562816) rotate(-315.000000) translate(-22.005204, -21.562816) translate(9.593146, 4.900758)" fill="#333333" fill-rule="nonzero">
                    <g id="编组-5" transform="translate(12.412058, 16.662058) rotate(-360.000000) translate(-12.412058, -16.662058) translate(0.000000, -0.000000)">
                        <path d="M24.3847763,17.3284271 C24.9705627,17.9142136 24.9705627,18.863961 24.3847763,19.4497475 L10.9497475,32.8847763 C10.363961,33.4705627 9.41421356,33.4705627 8.82842712,32.8847763 C8.24264069,32.2989899 8.24264069,31.3492424 8.82842712,30.763456 L22.263456,17.3284271 C22.8492424,16.7426407 23.7989899,16.7426407 24.3847763,17.3284271 Z M6,-9.09494702e-13 C9.3137085,-9.09494702e-13 12,2.6862915 12,6 L12,22 L11.945,22 L7.66164995,28.1475157 C7.51634839,28.3559562 7.32998193,28.5350421 7.11306759,28.6746674 C6.24124886,29.2358471 5.07649719,29.0509036 4.43514722,28.2749273 L4.33835005,28.1475157 L0.054,22 L0,22 L0,6 C0,2.6862915 2.6862915,-9.09494702e-13 6,-9.09494702e-13 Z M8.334,22 L3.663,22 L6,25.3506839 L8.334,22 Z M9,9 L3,9 L3,19 L9,18.999 L9,9 Z M6,3 C4.40231912,3 3.09633912,4.24891996 3.00509269,5.82372721 L3,6 L9,6 C9,4.40231912 7.75108004,3.09633912 6.17627279,3.00509269 L6,3 Z" id="形状结合"></path>
                    </g>
                </g>
            </g>
        </g>
    </g>
</svg>