<svg width="84" height="48" viewBox="0 0 84 48" fill="none" xmlns="http://www.w3.org/2000/svg">
<g clip-path="url(#clip0_1713_2872)">
<path d="M21.3901 24.3502V14.7004H22.8948H24.3995V15.3383C24.3995 15.6891 24.4049 15.9762 24.4115 15.9762C24.418 15.9762 24.608 15.8605 24.8336 15.7192C27.4951 14.0521 31.3642 13.5501 34.8344 14.4216C37.9607 15.2068 40.2271 17.0707 41.0328 19.5192C41.5037 20.95 41.4777 22.5412 40.961 23.925C40.3181 25.6463 38.9967 27.0303 37.0907 27.9783C35.4227 28.808 33.5184 29.2235 31.3834 29.2235C29.6133 29.2235 27.9626 28.9283 26.5094 28.3521C25.9328 28.1234 25.1937 27.7481 24.7453 27.4563L24.3995 27.2312V30.6156V33.9999H22.8948H21.3901V24.3502ZM32.839 26.658C34.5317 26.4179 35.845 25.8809 36.8297 25.0261C37.5751 24.3791 38.0943 23.4805 38.2909 22.4968C38.3713 22.0944 38.3716 21.1443 38.2918 20.7432C38.0602 19.5855 37.3968 18.5742 36.4037 17.865C36.0034 17.5791 35.1903 17.1719 34.6712 16.9973C33.2055 16.5043 31.4285 16.3583 29.8009 16.5972C26.975 17.0119 25.065 18.4134 24.5525 20.4483C24.3265 21.3461 24.3668 22.3153 24.6656 23.1624C25.3443 25.0866 27.3454 26.367 30.1735 26.6866C30.742 26.7508 32.3031 26.7341 32.8394 26.658H32.839ZM42.8159 24.3502V14.7004H44.3206H45.8253V15.3383C45.8253 15.6891 45.8318 15.9762 45.8398 15.9762C45.8478 15.9762 46.0134 15.8725 46.2078 15.7457C46.6576 15.4525 47.5457 15.0139 48.115 14.8037C50.573 13.8964 53.5741 13.7501 56.2005 14.4095C60.4817 15.4844 63.0029 18.4291 62.7649 22.0768C62.5832 24.8611 60.7304 27.1483 57.683 28.3502C56.6889 28.7422 55.6702 28.9894 54.3952 29.1481C53.7223 29.2318 51.9087 29.2316 51.2062 29.1479C49.218 28.9107 47.4724 28.3203 46.1115 27.4247L45.8253 27.2364V30.6182V34H44.3206H42.8159V24.3502ZM54.3375 26.6439C56.6819 26.2937 58.334 25.3493 59.2021 23.8629C59.7063 22.9996 59.8951 21.851 59.7081 20.7847C59.3194 18.5682 57.3715 17.0345 54.3892 16.5967C52.4208 16.3078 50.1983 16.5956 48.6875 17.335C47.1453 18.0898 46.2171 19.2168 45.9003 20.7193C45.8171 21.1137 45.8173 22.1277 45.9011 22.5143C46.1255 23.555 46.6327 24.416 47.4024 25.0632C48.4624 25.9542 49.8418 26.4848 51.6319 26.6899C52.224 26.7577 53.7491 26.7318 54.3379 26.6439H54.3375ZM8.95994 29.2035C7.36361 29.0625 6.00107 28.748 4.84242 28.2532C2.2071 27.1275 0.542605 25.2278 0.0908848 22.8299C0.00461096 22.3719 -0.0283001 21.3402 0.0276454 20.8472C0.353845 17.9724 2.47155 15.6954 5.81969 14.6194C7.60141 14.0468 9.7946 13.8597 11.7631 14.1125C15.3697 14.5755 18.0979 16.248 19.297 18.7309C20.2734 20.7525 20.1495 23.2082 18.9759 25.0961C18.4472 25.9466 17.5767 26.8242 16.6798 27.4112C15.2843 28.3245 13.6175 28.8926 11.5932 29.1451C11.1877 29.1956 9.33607 29.2367 8.95994 29.2035ZM11.0947 26.6896C12.6645 26.523 13.9851 26.0749 14.9788 25.3716C15.7911 24.7966 16.4339 23.9492 16.7223 23.0731C16.8911 22.5603 16.9246 22.3196 16.9246 21.6188C16.9246 20.9202 16.8916 20.6814 16.7241 20.1682C16.1735 18.4815 14.5631 17.2269 12.3128 16.7316C10.3399 16.2973 8.03914 16.4483 6.33444 17.1238C5.10461 17.6111 4.13387 18.4 3.5646 19.3747C2.95926 20.4112 2.82193 21.823 3.2081 23.0396C3.62417 24.3504 4.72024 25.4475 6.22858 26.0628C7.05013 26.3979 8.06736 26.6315 9.07444 26.7161C9.46084 26.7486 10.6912 26.7325 11.0947 26.6896ZM73.1717 29.2046C73.1087 29.1975 72.8879 29.1756 72.681 29.156C71.0198 28.9985 69.2734 28.4739 67.993 27.7478C66.2622 26.7661 65.0565 25.3708 64.5062 23.7123C64.1338 22.5899 64.0702 21.3286 64.3275 20.1681C64.7167 18.4134 65.7848 16.9234 67.4436 15.8214C69.631 14.3681 72.8473 13.7227 75.9521 14.1139C78.5316 14.4389 80.6568 15.3824 82.1356 16.8589C83.2617 17.9834 83.9092 19.3011 84.0964 20.8493C84.145 21.2516 84.1374 22.0653 84.0811 22.4922C83.6752 25.5665 81.2382 27.9162 77.5059 28.8316C76.3743 29.1091 75.6639 29.1932 74.3329 29.2069C73.7572 29.2128 73.2346 29.2118 73.1717 29.2046ZM75.1507 26.7049C77.1377 26.5221 78.7573 25.8673 79.797 24.8263C80.5009 24.1214 80.9095 23.3455 81.0706 22.4078C81.1369 22.0213 81.136 21.2158 81.0687 20.815C80.7065 18.6572 78.804 17.0932 75.9848 16.6355C75.308 16.5256 74.8578 16.4898 74.153 16.4898C70.9923 16.4898 68.5399 17.6816 67.5967 19.6759C67.3156 20.2703 67.1858 20.8837 67.1858 21.6188C67.1858 22.5888 67.4119 23.358 67.9222 24.1246C68.859 25.5317 70.6356 26.4307 72.987 26.6874C73.472 26.7404 74.6609 26.75 75.1507 26.7049Z" fill="#006B33"/>
</g>
<defs>
<clipPath id="clip0_1713_2872">
<rect width="84" height="48" fill="white"/>
</clipPath>
</defs>
</svg>
