<svg width="23" height="25" viewBox="0 0 23 25" fill="none" xmlns="http://www.w3.org/2000/svg">
<path fill-rule="evenodd" clip-rule="evenodd" d="M17.125 2.25342L11.6875 7.54999V10.1277H14.2957L20.3125 4.60927V22.4092C20.3125 23.0948 19.7567 23.6505 19.0711 23.6505H3.55386C2.86828 23.6505 2.3125 23.0948 2.3125 22.4092V3.49481C2.3125 2.80922 2.86828 2.25345 3.55386 2.25345L17.125 2.25342ZM6.83808 14.8263L6.74215 14.8263C6.5193 14.8356 6.31256 14.9745 6.22754 15.196L4.36728 20.0422C4.25312 20.3395 4.40166 20.6732 4.69905 20.7873C4.99643 20.9015 5.33005 20.7529 5.4442 20.4556L5.75262 19.6516H7.82742L8.13589 20.4556C8.25004 20.7529 8.58366 20.9015 8.88104 20.7873C9.17843 20.6732 9.32696 20.3395 9.21281 20.0422L7.35255 15.196C7.26149 14.9588 7.03082 14.8163 6.79011 14.8263L6.83808 14.8263ZM11.7462 14.8453H10.2897C9.94805 14.8453 9.67111 15.1222 9.67111 15.4638V18.3059L9.67411 18.3058L9.6794 20.1884C9.68033 20.5293 9.957 20.8052 10.298 20.8052H12.0743L12.1311 20.8044C13.113 20.7742 13.8985 19.9674 13.8958 18.9788C13.8942 18.4004 13.6246 17.8853 13.2048 17.551C13.3926 17.2728 13.5006 16.9366 13.4964 16.5756C13.4855 15.6168 12.7051 14.8453 11.7462 14.8453ZM16.6885 14.8453C15.1681 14.8453 14.093 16.2496 14.093 17.8253C14.093 19.401 15.1681 20.8052 16.6885 20.8052C17.2649 20.8052 17.8027 20.6516 18.1273 20.327C18.3525 20.1018 18.3525 19.7366 18.1273 19.5113C17.902 19.2861 17.5368 19.2861 17.3116 19.5113L17.2994 19.522C17.2173 19.586 16.9726 19.6517 16.6885 19.6517C15.8825 19.6517 15.2465 18.8209 15.2465 17.8253C15.2465 16.8296 15.8825 15.9988 16.6885 15.9988C16.9883 15.9988 17.2444 16.072 17.3116 16.1392L17.3393 16.1651C17.5658 16.3641 17.911 16.3554 18.1273 16.1392C18.3525 15.9139 18.3525 15.5487 18.1273 15.3235C17.8027 14.9989 17.2649 14.8453 16.6885 14.8453ZM12.0643 18.3059L12.1015 18.3069C12.4579 18.3261 12.7412 18.6207 12.7422 18.9819C12.7432 19.3508 12.445 19.6507 12.0761 19.6517H10.8314L10.8277 18.3059H12.0643ZM6.79002 16.9492L7.38462 18.4981H6.19542L6.79002 16.9492ZM10.8246 15.9986L11.7462 15.9988L11.781 15.9998C12.0918 16.0177 12.3394 16.2735 12.343 16.5888C12.3465 16.8965 12.0999 17.1488 11.7922 17.1523L10.8246 17.1522V15.9986Z" fill="url(#paint0_linear_534_19496)"/>
<path fill-rule="evenodd" clip-rule="evenodd" d="M13.4931 9.37841H12.4375V8.37841L18.2808 2.8427C18.5823 2.55699 19.0347 2.55699 19.3363 2.8427C19.6379 3.12842 19.6379 3.55699 19.3363 3.8427L13.4931 9.37841Z" fill="#399EF7" fill-opacity="0.8"/>
<defs>
<linearGradient id="paint0_linear_534_19496" x1="11.3125" y1="2.35408" x2="11.3125" y2="23.2664" gradientUnits="userSpaceOnUse">
<stop stop-color="#399EF7"/>
<stop offset="1" stop-color="#3D89FC"/>
</linearGradient>
</defs>
</svg>
