<svg width="23" height="25" viewBox="0 0 23 25" fill="none" xmlns="http://www.w3.org/2000/svg">
<path fill-rule="evenodd" clip-rule="evenodd" d="M2.89502 3.0696C2.89502 2.3667 3.48344 1.79687 4.2093 1.79687L18.6663 1.79687C19.3922 1.79687 19.9806 2.36669 19.9806 3.0696L19.9806 21.5241C19.9806 22.2271 19.3922 22.7969 18.6663 22.7969L4.2093 22.7969C3.48344 22.7969 2.89502 22.2271 2.89502 21.5241L2.89502 3.0696ZM6.83785 12.2969L6.83898 12.3964C6.8936 14.8106 8.93166 16.7514 11.4378 16.7514C13.9783 16.7514 16.0378 14.7571 16.0378 12.2969C16.0378 9.86994 14.0336 7.89632 11.5405 7.84342L11.4378 7.84233L11.4378 12.2969L6.83785 12.2969ZM10.1234 7.69576C8.45793 8.14095 7.14606 9.41141 6.68643 11.0243L10.1235 11.0241L10.1234 7.69576Z" fill="url(#paint0_linear_1690_22865)"/>
<defs>
<linearGradient id="paint0_linear_1690_22865" x1="2.89497" y1="-1027.2" x2="1708.93" y2="-1027.2" gradientUnits="userSpaceOnUse">
<stop stop-color="#FA8D3E"/>
<stop offset="1" stop-color="#F9612E"/>
</linearGradient>
</defs>
</svg>
