<svg width="23" height="25" viewBox="0 0 23 25" fill="none" xmlns="http://www.w3.org/2000/svg">
<rect x="2.3125" y="2.53162" width="18" height="20.842" rx="2" fill="url(#paint0_linear_534_19457)"/>
<path d="M11.2675 7.17616L9.07149 13.0683C9.05949 13.1 9.06549 13.1317 9.08949 13.1634C9.11349 13.1845 9.14349 13.1951 9.17949 13.1951H13.4095C13.4455 13.1951 13.4695 13.1845 13.4815 13.1634C13.5055 13.1317 13.5175 13.1 13.5175 13.0683L11.3215 7.17616C11.3215 7.1656 11.3155 7.16032 11.3035 7.16032C11.2795 7.16032 11.2675 7.1656 11.2675 7.17616ZM6.64149 17.5825C6.46149 17.5825 6.31749 17.5191 6.20949 17.3924C6.10149 17.2552 6.07749 17.1126 6.13749 16.9648L10.2415 6.68514C10.3255 6.48451 10.4635 6.32612 10.6555 6.20997C10.8595 6.08325 11.0815 6.0199 11.3215 6.0199C11.5615 6.0199 11.7775 6.08325 11.9695 6.20997C12.1735 6.32612 12.3175 6.48451 12.4015 6.68514L16.4875 16.9489C16.5475 17.1073 16.5235 17.2552 16.4155 17.3924C16.3075 17.5191 16.1635 17.5825 15.9835 17.5825C15.7435 17.5825 15.5275 17.5244 15.3355 17.4083C15.1555 17.2816 15.0295 17.1232 14.9575 16.9331L14.0035 14.3355C13.9675 14.251 13.8955 14.2088 13.7875 14.2088H8.80149C8.70549 14.2088 8.63949 14.251 8.60349 14.3355L7.61349 16.9648C7.54149 17.1548 7.41549 17.308 7.23549 17.4241C7.06749 17.5297 6.86949 17.5825 6.64149 17.5825Z" fill="white"/>
<path d="M5.125 19.8851H17.5" stroke="white" stroke-linecap="round"/>
<defs>
<linearGradient id="paint0_linear_534_19457" x1="11.3125" y1="2.62967" x2="11.3125" y2="22.9994" gradientUnits="userSpaceOnUse">
<stop stop-color="#399EF7"/>
<stop offset="1" stop-color="#3D89FC"/>
</linearGradient>
</defs>
</svg>
