<svg width="23" height="25" viewBox="0 0 23 25" fill="none" xmlns="http://www.w3.org/2000/svg">
<path d="M19.9167 2.95264C20.653 2.95264 21.25 3.54959 21.25 4.28597V21.6193C21.25 22.3557 20.653 22.9526 19.9167 22.9526H6.58333C5.84695 22.9526 5.25 22.3557 5.25 21.6193V4.28597C5.25 3.54959 5.84695 2.95264 6.58333 2.95264H19.9167ZM14.4167 7.95264H12.25L12.2002 7.95447C11.8553 7.97992 11.5833 8.26785 11.5833 8.6193V11.9526L11.5852 12.0024C11.6106 12.3473 11.8985 12.6193 12.25 12.6193C12.6182 12.6193 12.9167 12.3208 12.9167 11.9526V9.28597H14.4167L14.4944 9.28734C15.655 9.32825 16.5833 10.282 16.5833 11.4526C16.5833 12.6493 15.6133 13.6193 14.4167 13.6193H10.75L10.6691 13.6206C9.32582 13.6633 8.25 14.7657 8.25 16.1193C8.25 17.5 9.36929 18.6193 10.75 18.6193H12.25L12.2998 18.6175C12.6447 18.592 12.9167 18.3041 12.9167 17.9526V16.6193L12.9148 16.5695C12.8894 16.2246 12.6015 15.9526 12.25 15.9526L12.2002 15.9545C11.8553 15.9799 11.5833 16.2678 11.5833 16.6193V17.286H10.75L10.686 17.2842C10.0714 17.251 9.58333 16.7422 9.58333 16.1193C9.58333 15.475 10.1057 14.9526 10.75 14.9526H14.4167L14.5114 14.9514C16.4006 14.9012 17.9167 13.3539 17.9167 11.4526C17.9167 9.51964 16.3497 7.95264 14.4167 7.95264Z" fill="url(#paint0_linear_534_19472)"/>
<path d="M1.90133 10.8436L3.84854 12.4367C4.1335 12.6699 4.1755 13.0899 3.94235 13.3749C3.91427 13.4092 3.88285 13.4406 3.84854 13.4687L1.90133 15.0619C1.61636 15.295 1.19635 15.253 0.963195 14.968C0.865743 14.8489 0.8125 14.6998 0.8125 14.5459V11.3595C0.8125 10.9913 1.11098 10.6929 1.47917 10.6929C1.63306 10.6929 1.78222 10.7461 1.90133 10.8436Z" fill="url(#paint1_linear_534_19472)"/>
<defs>
<linearGradient id="paint0_linear_534_19472" x1="13.25" y1="3.04673" x2="13.25" y2="22.5935" gradientUnits="userSpaceOnUse">
<stop stop-color="#399EF7"/>
<stop offset="1" stop-color="#3D89FC"/>
</linearGradient>
<linearGradient id="paint1_linear_534_19472" x1="2.45278" y1="10.7141" x2="2.45278" y2="15.1314" gradientUnits="userSpaceOnUse">
<stop stop-color="#399EF7"/>
<stop offset="1" stop-color="#3D89FC"/>
</linearGradient>
</defs>
</svg>
