<svg width="23" height="24" viewBox="0 0 23 24" fill="none" xmlns="http://www.w3.org/2000/svg">
<path d="M16.0205 6.27262C16.3433 6.27262 16.6047 6.55155 16.6289 6.88794L16.6307 6.93881V22.3488C16.6307 22.5538 16.416 22.6819 16.2691 22.5794C16.2482 22.5636 16.1891 22.5151 16.1039 22.4443L16.0106 22.3665C15.5386 21.9721 14.5893 21.168 14.41 21.0161L14.3839 20.9939C14.3816 20.992 14.3805 20.991 14.3805 20.991C14.2469 20.8979 14.076 20.8894 13.9272 20.9656L13.8833 20.991L11.5781 22.5666L11.5761 22.5678L11.5597 22.576C11.5265 22.5907 11.4466 22.6178 11.3069 22.6178C11.1322 22.6178 11.0417 22.5755 11.0266 22.5678L11.0244 22.5666L8.83219 21.0166C8.68529 20.9142 8.49319 20.9142 8.33499 21.0166C8.33499 21.0166 7.84247 21.4262 7.35168 21.8301L7.21193 21.945C6.81852 22.268 6.4571 22.5615 6.38986 22.605C6.23033 22.7015 6.02072 22.5596 5.99661 22.3824L5.99432 22.3488V6.96443C5.99369 6.78074 6.05776 6.60435 6.17234 6.47446C6.27419 6.359 6.40845 6.28878 6.55083 6.27509L6.60456 6.27262H16.0205ZM14.1793 16.7589H8.44577C8.18129 16.7589 7.96404 17.0423 7.96404 17.3873C7.96404 17.7142 8.15903 17.9858 8.40443 18.0135L8.44577 18.0158H14.1793C14.4437 18.0158 14.661 17.7324 14.661 17.3873C14.661 17.0423 14.4437 16.7589 14.1793 16.7589ZM14.1793 12.988H8.44577C8.18129 12.988 7.96404 13.2714 7.96404 13.6165C7.96404 13.9434 8.15903 14.215 8.40443 14.2426L8.44577 14.245H14.1793C14.4437 14.245 14.661 13.9615 14.661 13.6165C14.661 13.2714 14.4437 12.988 14.1793 12.988ZM14.1793 9.21717H8.44577C8.18129 9.21717 7.96404 9.5006 7.96404 9.84564C7.96404 10.1725 8.15903 10.4441 8.40443 10.4718L8.44577 10.4741H14.1793C14.4437 10.4741 14.661 10.1907 14.661 9.84564C14.661 9.5006 14.4437 9.21717 14.1793 9.21717ZM19.425 1.36353C19.9131 1.36353 20.3125 1.82883 20.3125 2.39754V9.32952C20.3014 9.89822 19.902 10.3635 19.425 10.3635H17.133V6.92897H17.1995C17.5989 6.92897 17.9207 6.55414 17.9207 6.08884C17.9207 5.62353 17.5989 5.2487 17.1995 5.2487H5.42546C5.02607 5.2487 4.70433 5.62353 4.70433 6.08884C4.70433 6.55414 5.02607 6.92897 5.42546 6.92897H5.49203V10.3635H3.20004C2.71189 10.3635 2.3125 9.89822 2.3125 9.32952V2.39754C2.3125 1.82883 2.71189 1.36353 3.20004 1.36353H19.425Z" fill="url(#paint0_linear_1690_27670)"/>
<defs>
<linearGradient id="paint0_linear_1690_27670" x1="11.3125" y1="1.46361" x2="11.3125" y2="22.2543" gradientUnits="userSpaceOnUse">
<stop stop-color="#05C574"/>
<stop offset="1" stop-color="#1EBF7B"/>
</linearGradient>
</defs>
</svg>
