<svg width="54" height="48" viewBox="0 0 54 48" fill="none" xmlns="http://www.w3.org/2000/svg">
<g clip-path="url(#clip0_1712_184)">
<path d="M15.0802 19.6218C15.0802 20.2803 15.1513 20.8142 15.2759 21.2058C15.4183 21.5973 15.5963 22.0245 15.8455 22.4872C15.9344 22.6296 15.97 22.772 15.97 22.8966C15.97 23.0745 15.8632 23.2525 15.6319 23.4305L14.5106 24.178C14.3505 24.2848 14.1903 24.3382 14.0479 24.3382C13.8699 24.3382 13.6919 24.2492 13.514 24.089C13.2648 23.822 13.0512 23.5373 12.8733 23.2525C12.6953 22.9499 12.5173 22.6118 12.3215 22.2024C10.9333 23.8398 9.18917 24.6585 7.08905 24.6585C5.59406 24.6585 4.40162 24.2314 3.52954 23.3771C2.65746 22.5228 2.21252 21.3838 2.21252 19.96C2.21252 18.4472 2.74645 17.2191 3.8321 16.2937C4.91775 15.3682 6.35935 14.9055 8.1925 14.9055C8.79762 14.9055 9.42053 14.9588 10.079 15.0478C10.7376 15.1368 11.4139 15.2792 12.1258 15.4394V14.1402C12.1258 12.7875 11.841 11.8443 11.2893 11.2925C10.7198 10.7408 9.75869 10.4739 8.38828 10.4739C7.76536 10.4739 7.12465 10.545 6.46614 10.7052C5.80763 10.8654 5.16692 11.0612 4.544 11.3103C4.25924 11.4349 4.04567 11.5061 3.92109 11.5417C3.79651 11.5773 3.70752 11.5951 3.63633 11.5951C3.38716 11.5951 3.26258 11.4171 3.26258 11.0434V10.1713C3.26258 9.88654 3.29818 9.67297 3.38716 9.54839C3.47615 9.4238 3.63633 9.29922 3.88549 9.17464C4.50841 8.85428 5.25591 8.58732 6.12799 8.37375C7.00007 8.14238 7.92554 8.0356 8.9044 8.0356C11.0223 8.0356 12.5707 8.51613 13.5674 9.4772C14.5462 10.4383 15.0446 11.8977 15.0446 13.8554V19.6218H15.0802ZM7.85435 22.327C8.44167 22.327 9.04679 22.2202 9.6875 22.0067C10.3282 21.7931 10.8977 21.4016 11.3783 20.8676C11.663 20.5295 11.8766 20.1557 11.9834 19.7286C12.0902 19.3014 12.1614 18.7853 12.1614 18.1802V17.4327C11.6452 17.3081 11.0935 17.2013 10.524 17.1301C9.95446 17.059 9.40274 17.0234 8.85101 17.0234C7.65858 17.0234 6.7865 17.2547 6.19918 17.7353C5.61186 18.2158 5.3271 18.8921 5.3271 19.782C5.3271 20.6185 5.54067 21.2414 5.98561 21.6685C6.41275 22.1135 7.03566 22.327 7.85435 22.327ZM22.1458 24.2492C21.8254 24.2492 21.6119 24.1958 21.4695 24.0712C21.3271 23.9644 21.2025 23.7152 21.0957 23.3771L16.9133 9.61958C16.8065 9.26363 16.7531 9.03226 16.7531 8.90768C16.7531 8.62291 16.8955 8.46274 17.1803 8.46274H18.9244C19.2626 8.46274 19.494 8.51613 19.6185 8.64071C19.7609 8.7475 19.8677 8.99666 19.9745 9.33482L22.9645 21.1168L25.7409 9.33482C25.8299 8.97887 25.9367 8.7475 26.079 8.64071C26.2214 8.53393 26.4706 8.46274 26.7909 8.46274H28.2148C28.5529 8.46274 28.7843 8.51613 28.9267 8.64071C29.069 8.7475 29.1936 8.99666 29.2648 9.33482L32.0768 21.2592L35.1558 9.33482C35.2626 8.97887 35.3872 8.7475 35.5117 8.64071C35.6541 8.53393 35.8855 8.46274 36.2059 8.46274H37.861C38.1458 8.46274 38.306 8.60512 38.306 8.90768C38.306 8.99666 38.2882 9.08565 38.2704 9.19244C38.2526 9.29922 38.217 9.4416 38.1458 9.63737L33.8566 23.3949C33.7498 23.7508 33.6252 23.9822 33.4828 24.089C33.3404 24.1958 33.1091 24.267 32.8065 24.267H31.2759C30.9378 24.267 30.7064 24.2136 30.564 24.089C30.4216 23.9644 30.2971 23.733 30.2259 23.3771L27.4673 11.8977L24.7264 23.3593C24.6374 23.7152 24.5307 23.9466 24.3883 24.0712C24.2459 24.1958 23.9967 24.2492 23.6764 24.2492H22.1458ZM45.0156 24.7297C44.0902 24.7297 43.1647 24.6229 42.2748 24.4093C41.3849 24.1958 40.6908 23.9644 40.2281 23.6974C39.9433 23.5373 39.7476 23.3593 39.6764 23.1991C39.6052 23.0389 39.5696 22.861 39.5696 22.7008V21.7931C39.5696 21.4194 39.712 21.2414 39.9789 21.2414C40.0857 21.2414 40.1925 21.2592 40.2993 21.2948C40.4061 21.3304 40.5663 21.4016 40.7442 21.4727C41.3493 21.7397 42.0079 21.9533 42.702 22.0957C43.4139 22.238 44.108 22.3092 44.8199 22.3092C45.9411 22.3092 46.8132 22.1135 47.4183 21.7219C48.0234 21.3304 48.3438 20.7608 48.3438 20.0311C48.3438 19.5328 48.1836 19.1235 47.8633 18.7853C47.5429 18.4472 46.9378 18.1446 46.0657 17.8598L43.4851 17.059C42.1858 16.6496 41.2248 16.0445 40.6374 15.2436C40.0501 14.4605 39.7476 13.5884 39.7476 12.663C39.7476 11.9155 39.9077 11.257 40.2281 10.6874C40.5485 10.1179 40.9756 9.61958 41.5095 9.22803C42.0434 8.81869 42.6486 8.51613 43.3605 8.30256C44.0724 8.08899 44.8199 8 45.603 8C45.9945 8 46.4039 8.0178 46.7954 8.07119C47.2047 8.12458 47.5785 8.19577 47.9522 8.26696C48.3082 8.35595 48.6463 8.44494 48.9667 8.55172C49.2871 8.65851 49.5362 8.76529 49.7142 8.87208C49.9634 9.01446 50.1413 9.15684 50.2481 9.31702C50.3549 9.4594 50.4083 9.65517 50.4083 9.90434V10.7408C50.4083 11.1146 50.2659 11.3103 49.999 11.3103C49.8566 11.3103 49.6252 11.2392 49.3227 11.0968C48.3082 10.634 47.1691 10.4027 45.9055 10.4027C44.8911 10.4027 44.0902 10.5628 43.5384 10.901C42.9867 11.2392 42.702 11.7553 42.702 12.485C42.702 12.9833 42.8799 13.4105 43.2359 13.7486C43.5918 14.0868 44.2504 14.4249 45.1936 14.7275L47.7209 15.5284C49.0023 15.9377 49.9278 16.5072 50.4795 17.2369C51.0312 17.9666 51.2982 18.8031 51.2982 19.7286C51.2982 20.4939 51.138 21.188 50.8354 21.7931C50.5151 22.3982 50.0879 22.9321 49.5362 23.3593C48.9845 23.8042 48.326 24.1246 47.5607 24.356C46.7598 24.6051 45.9233 24.7297 45.0156 24.7297Z" fill="#252F3E"/>
<path fill-rule="evenodd" clip-rule="evenodd" d="M48.3795 33.3792C42.5241 37.704 34.0168 39.9999 26.702 39.9999C16.4506 39.9999 7.21371 36.209 0.237066 29.9087C-0.314658 29.4104 0.183674 28.7341 0.842183 29.1256C8.38835 33.5038 17.6965 36.1556 27.3249 36.1556C33.8211 36.1556 40.9579 34.803 47.5252 32.0266C48.504 31.5817 49.3405 32.6673 48.3795 33.3792Z" fill="#FF9900"/>
<path fill-rule="evenodd" clip-rule="evenodd" d="M50.8176 30.6028C50.0701 29.6417 45.8699 30.1401 43.9656 30.3714C43.3961 30.4426 43.3071 29.9443 43.8232 29.5705C47.1691 27.2213 52.6686 27.8976 53.3093 28.6807C53.95 29.4816 53.1313 34.981 49.999 37.615C49.5184 38.0244 49.0557 37.8108 49.2693 37.2769C49.9812 35.5149 51.5651 31.5461 50.8176 30.6028Z" fill="#FF9900"/>
</g>
<defs>
<clipPath id="clip0_1712_184">
<rect width="53.5121" height="48" fill="white"/>
</clipPath>
</defs>
</svg>
