<svg width="23" height="25" viewBox="0 0 23 25" fill="none" xmlns="http://www.w3.org/2000/svg">
<rect x="1.12305" y="1.28992" width="16.9518" height="20.854" rx="1" fill="#FB8E3F"/>
<path fill-rule="evenodd" clip-rule="evenodd" d="M17.5621 9.85254L19.9668 13.067V22.3738H11.1712V10.3297L17.5621 9.85254Z" fill="#FB8E3F"/>
<path fill-rule="evenodd" clip-rule="evenodd" d="M15.4043 14.3857L15.4053 16.19C15.4053 16.4035 15.2316 16.5765 15.0173 16.5765C14.803 16.5765 14.6292 16.4035 14.6292 16.19V14.0002C14.6292 13.7868 14.803 13.6138 15.0173 13.6138H16.3107L16.3256 13.6149L16.3444 13.6162C16.9458 13.6374 18.5096 13.8453 18.5096 15.8789C18.5096 17.8515 17.2139 17.9875 16.3616 17.9932L14.5043 17.9928C13.9397 17.9884 13.6364 17.9735 13.5985 18.5254L13.5944 18.6525C13.5944 19.3306 13.8967 19.4031 14.4962 19.4098L14.4994 19.4091V19.4102H14.6292L14.6292 19.0239C14.6292 18.8105 14.803 18.6375 15.0173 18.6375C15.2316 18.6375 15.4053 18.8105 15.4053 19.0239V19.7968C15.4053 20.0102 15.2316 20.1833 15.0173 20.1833H14.3705L14.3015 20.1756L14.2202 20.1709C13.4003 20.0995 12.8184 19.7051 12.8184 18.657C12.8184 17.5474 13.4708 17.251 14.3672 17.2228L14.5188 17.2205L14.6292 17.2204L14.6292 17.2203L16.3077 17.2205C17.4955 17.2205 17.7336 16.504 17.7336 15.8045C17.7336 15.1075 17.4955 14.3934 16.3077 14.3884C16.3168 14.3881 16.3143 14.3878 16.3003 14.3876L16.1586 14.3867L15.4043 14.3857Z" fill="white"/>
<path d="M11.1694 9.23425C10.5622 9.23425 10.0699 9.72446 10.0699 10.3292V22.3732C10.0699 22.9779 10.5622 23.4681 11.1694 23.4681H19.965C20.5722 23.4681 21.0645 22.9779 21.0645 22.3732V12.7458C21.0645 12.6006 21.0065 12.4613 20.9034 12.3586L17.9271 9.3946C17.824 9.29193 17.6842 9.23425 17.5384 9.23425H11.1694ZM11.7191 10.3292H17.1691L17.1686 12.5666C17.1686 12.8354 17.363 13.0589 17.6195 13.1052L17.7183 13.1141L19.965 13.1135V21.8258C19.965 22.1281 19.7189 22.3732 19.4153 22.3732H11.7191C11.4155 22.3732 11.1694 22.1281 11.1694 21.8258V10.8766C11.1694 10.5743 11.4155 10.3292 11.7191 10.3292Z" fill="#FFF7F5"/>
<path d="M3.11719 19.3234V15.4951C3.11719 15.1931 3.36306 14.9482 3.66635 14.9482C3.96965 14.9482 4.21552 15.1931 4.21552 15.4951V18.2296L6.34269 18.2293L5.90145 17.794C5.7138 17.6071 5.69034 17.3187 5.83108 17.1064L5.90145 17.0206C6.11591 16.807 6.46362 16.807 6.67809 17.0206L9.00445 19.3234H3.11719Z" fill="white"/>
<path fill-rule="evenodd" clip-rule="evenodd" d="M4.24283 8.00827V10.4033C4.24283 10.6648 4.05293 10.8894 3.79904 10.8894C3.54515 10.8894 3.37695 10.6648 3.37695 10.4033V7.57283C3.37695 7.3114 3.59153 7.12778 3.84542 7.12778H9.57615C10.086 7.12778 10.4829 6.68253 10.4829 6.16288C10.4829 5.64288 10.086 5.1696 9.57615 5.1696L3.84542 5.16799C3.58668 5.16799 3.37695 5.01267 3.37695 4.74803C3.37695 4.48339 3.58668 4.26904 3.84542 4.26904H9.55866C10.5801 4.26904 11.3543 5.11128 11.3543 6.16288C11.3543 7.21448 10.5976 8.01524 9.57615 8.01524L4.24283 8.00827Z" fill="white"/>
</svg>
