<svg width="29" height="28" viewBox="0 0 29 28" fill="none" xmlns="http://www.w3.org/2000/svg">
<path d="M8.71387 5.0789C8.71387 4.43457 9.2362 3.91223 9.88053 3.91223H21.3285C21.9728 3.91223 22.4951 4.43457 22.4951 5.0789V16.5268C22.4951 17.1711 21.9728 17.6935 21.3285 17.6935H9.88053C9.2362 17.6935 8.71387 17.1711 8.71387 16.5268V5.0789Z" fill="white"/>
<path fill-rule="evenodd" clip-rule="evenodd" d="M9.88099 2.04541H21.3289C23.0042 2.04541 24.3622 3.40348 24.3622 5.07874V16.5267C24.3622 18.2019 23.0042 19.56 21.3289 19.56H9.88099C8.20572 19.56 6.84766 18.2019 6.84766 16.5267V5.07874C6.84766 3.40348 8.20573 2.04541 9.88099 2.04541ZM9.88099 3.91208C9.23666 3.91208 8.71432 4.43441 8.71432 5.07874V16.5267C8.71432 17.171 9.23666 17.6933 9.88099 17.6933H21.3289C21.9732 17.6933 22.4956 17.171 22.4956 16.5267V5.07874C22.4956 4.43441 21.9732 3.91208 21.3289 3.91208H9.88099Z" fill="url(#paint0_linear_1690_27720)"/>
<rect x="12" y="7" width="16.9167" height="16.9167" rx="1" fill="url(#paint1_linear_1690_27720)"/>
<g clip-path="url(#clip0_1690_27720)">
<path d="M17.8623 13.2868C17.8623 12.8455 18.22 12.4878 18.6613 12.4878C19.1026 12.4878 19.4603 12.8455 19.4603 13.2868V19.191C19.4603 19.6322 19.1026 19.9899 18.6613 19.9899C18.22 19.9899 17.8623 19.6322 17.8623 19.191V13.2868Z" fill="white"/>
<path d="M15 12.8075C15 12.3615 15.3615 12 15.8075 12H21.5172C21.9632 12 22.3247 12.3615 22.3247 12.8075C22.3247 13.2534 21.9632 13.6149 21.5172 13.6149H15.8075C15.3615 13.6149 15 13.2534 15 12.8075ZM23.7828 15.0866C23.7828 14.6406 24.1443 14.2791 24.5903 14.2791H25.1925C25.6385 14.2791 26 14.6406 26 15.0866C26 15.5325 25.6385 15.894 25.1925 15.894H24.5903C24.1443 15.894 23.7828 15.5325 23.7828 15.0866ZM22.1149 17.1395C22.1149 16.6936 22.4765 16.3321 22.9224 16.3321H25.1286C25.5746 16.3321 25.9361 16.6936 25.9361 17.1395C25.9361 17.5855 25.5746 17.947 25.1286 17.947H22.9224C22.4765 17.947 22.1149 17.5855 22.1149 17.1395ZM21.0563 19.1925C21.0563 18.7466 21.4178 18.3851 21.8638 18.3851H25.1905C25.6365 18.3851 25.998 18.7466 25.998 19.1925C25.998 19.6385 25.6365 20 25.1905 20H21.8638C21.4178 20 21.0563 19.6385 21.0563 19.1925Z" fill="white"/>
</g>
<defs>
<linearGradient id="paint0_linear_1690_27720" x1="15.6049" y1="2.12781" x2="15.6049" y2="19.2455" gradientUnits="userSpaceOnUse">
<stop stop-color="#05C574"/>
<stop offset="1" stop-color="#1EBF7B"/>
</linearGradient>
<linearGradient id="paint1_linear_1690_27720" x1="20.4583" y1="7.07959" x2="20.4583" y2="23.6129" gradientUnits="userSpaceOnUse">
<stop stop-color="#05C574"/>
<stop offset="1" stop-color="#1EBF7B"/>
</linearGradient>
<clipPath id="clip0_1690_27720">
<rect width="11" height="8" fill="white" transform="translate(15 12)"/>
</clipPath>
</defs>
</svg>
