<svg width="23" height="25" viewBox="0 0 23 25" fill="none" xmlns="http://www.w3.org/2000/svg">
<path fill-rule="evenodd" clip-rule="evenodd" d="M17.4946 5.41582H20.348C20.6982 5.41582 20.9821 5.73639 20.9821 6.13184V20.0943C20.9821 20.4898 20.6982 20.8103 20.348 20.8103H17.4946C17.1444 20.8103 16.8605 20.4898 16.8605 20.0943V6.13184C16.8605 5.73639 17.1444 5.41582 17.4946 5.41582ZM12.422 1.83569H15.2753C15.6255 1.83569 15.9094 2.15627 15.9094 2.55172V20.0943C15.9094 20.4898 15.6255 20.8103 15.2753 20.8103H12.422C12.0718 20.8103 11.7879 20.4898 11.7879 20.0943V2.55172C11.7879 2.15627 12.0718 1.83569 12.422 1.83569ZM7.34932 8.99594H10.2027C10.5529 8.99594 10.8368 9.31652 10.8368 9.71197V20.0943C10.8368 20.4898 10.5529 20.8103 10.2027 20.8103H7.34932C6.99912 20.8103 6.71523 20.4898 6.71523 20.0943V9.71197C6.71523 9.31652 6.99912 8.99594 7.34932 8.99594ZM2.27666 14.3661H5.13003C5.48022 14.3661 5.76411 14.6867 5.76411 15.0822V20.0943C5.76411 20.4898 5.48022 20.8103 5.13003 20.8103H2.27666C1.92647 20.8103 1.64258 20.4898 1.64258 20.0943V15.0822C1.64258 14.6867 1.92647 14.3661 2.27666 14.3661Z" fill="url(#paint0_linear_1690_27698)"/>
<path d="M20.031 21.762H2.5937C2.06841 21.762 1.64258 22.1878 1.64258 22.7131C1.64258 23.2383 2.06841 23.6642 2.5937 23.6642H20.031C20.5562 23.6642 20.9821 23.2383 20.9821 22.7131C20.9821 22.1878 20.5562 21.762 20.031 21.762Z" fill="url(#paint1_linear_1690_27698)"/>
<defs>
<linearGradient id="paint0_linear_1690_27698" x1="11.3123" y1="1.92496" x2="11.3123" y2="20.4697" gradientUnits="userSpaceOnUse">
<stop stop-color="#05C574"/>
<stop offset="1" stop-color="#1EBF7B"/>
</linearGradient>
<linearGradient id="paint1_linear_1690_27698" x1="11.3123" y1="21.7709" x2="11.3123" y2="23.63" gradientUnits="userSpaceOnUse">
<stop stop-color="#05C574"/>
<stop offset="1" stop-color="#1EBF7B"/>
</linearGradient>
</defs>
</svg>
