<svg width="23" height="25" viewBox="0 0 23 25" fill="none" xmlns="http://www.w3.org/2000/svg">
<path d="M11.3456 13.5827C12.8136 13.5827 14.1695 14.1284 15.216 15.0254L10.6478 19.5524H2.54037C2.23303 19.5524 1.98389 19.3032 1.98389 18.9959L1.98456 18.9685L1.98658 18.9412C2.2814 15.9568 4.75609 13.5827 7.81803 13.5827H11.3456ZM9.71748 12.4973C7.09489 12.4973 4.96885 10.3712 4.96885 7.74864C4.96885 5.12604 7.09489 3 9.71748 3C12.3401 3 14.4661 5.12604 14.4661 7.74864C14.4661 9.00805 13.9658 10.2159 13.0753 11.1064C12.1847 11.997 10.9769 12.4973 9.71748 12.4973Z" fill="url(#paint0_linear_1690_22827)"/>
<path d="M16.9596 16.0021C16.9645 16.0073 16.9692 16.0126 16.9739 16.0179C17.1905 16.2646 17.1732 16.6384 16.9348 16.864L12.4717 21.0895C12.2446 21.3045 11.8862 21.2947 11.6712 21.0676L11.6569 21.0518C11.4403 20.8051 11.4576 20.4314 11.696 20.2057L16.1591 15.9802C16.3862 15.7653 16.7446 15.7751 16.9596 16.0021ZM18.2586 11.2642C18.5298 11.3995 19.1603 11.9042 19.3763 12.0789L20.5929 11.6505C20.6031 11.6466 20.6132 11.6442 20.6244 11.6429C20.6483 11.6395 20.864 11.6105 21.0042 11.7526C21.0653 11.8145 21.1314 11.9292 21.1016 12.1262C21.0563 12.4269 20.8004 13.1886 20.7125 13.4437L21.4241 14.5104C21.4255 14.5125 21.4265 14.5143 21.4283 14.5168C21.4408 14.5378 21.5505 14.7293 21.453 14.9205C21.3814 15.061 21.2295 15.1448 21.002 15.1685C20.5994 15.2108 19.9839 15.2191 19.7547 15.2209L18.9701 16.2793C18.9438 16.316 18.7728 16.5415 18.5488 16.5023C18.5014 16.4945 18.438 16.4714 18.3769 16.4095C18.3586 16.3909 18.3406 16.369 18.3235 16.3427C18.2714 16.2638 18.231 16.1566 18.2007 16.0156C18.0928 15.5166 17.9536 15.0879 17.8947 14.9172L16.8066 14.6093C16.7886 14.6045 16.7116 14.5831 16.6296 14.5403C16.4498 14.4476 16.391 14.3291 16.3724 14.2455C16.3553 14.1677 16.3659 14.0832 16.4032 14.0025C16.4379 13.928 16.4937 13.8549 16.5741 13.7814C16.9162 13.4677 17.4018 13.1064 17.5876 12.9712L17.6168 11.7049C17.617 11.6962 17.6179 11.6866 17.6195 11.6771C17.6207 11.6694 17.634 11.6002 17.6673 11.5206C17.7199 11.3958 17.7937 11.3066 17.8884 11.2565C17.967 11.2147 18.0945 11.1829 18.2586 11.2642Z" fill="url(#paint1_linear_1690_22827)"/>
<defs>
<linearGradient id="paint0_linear_1690_22827" x1="663.587" y1="3" x2="663.587" y2="1655.79" gradientUnits="userSpaceOnUse">
<stop stop-color="#FA8D3E"/>
<stop offset="1" stop-color="#F9612E"/>
</linearGradient>
<linearGradient id="paint1_linear_1690_22827" x1="455.338" y1="80.4672" x2="285.796" y2="1150.92" gradientUnits="userSpaceOnUse">
<stop stop-color="#FA8D3E"/>
<stop offset="1" stop-color="#F9612E"/>
</linearGradient>
</defs>
</svg>
