<svg width="40" height="40" viewBox="0 0 40 40" fill="none" xmlns="http://www.w3.org/2000/svg">
<path d="M0 5C0 2.23858 2.23858 0 5 0H35C37.7614 0 40 2.23858 40 5V35C40 37.7614 37.7614 40 35 40H5C2.23858 40 0 37.7614 0 35V5Z" fill="#DF4023"/>
<path d="M0 30.625H40V35C40 37.7614 37.7614 40 35 40H5C2.23858 40 0 37.7614 0 35V30.625Z" fill="#C82912"/>
<path d="M35 1.91237e-07C37.7614 3.11943e-07 40 2.23858 40 5L40 35.1613C40 37.8336 37.8336 40 35.1613 40C32.656 40 30.625 37.969 30.625 35.4637L30.625 0L35 1.91237e-07Z" fill="#F85836"/>
<path d="M30.625 35.4637C30.625 37.969 32.656 40 35.1613 40C37.8336 40 40 37.8336 40 35.1613C40 32.656 37.969 30.625 35.4637 30.625H30.625V35.4637Z" fill="#DF4023"/>
<path fill-rule="evenodd" clip-rule="evenodd" d="M7.8125 5.9375H17.1875C20.6393 5.9375 23.4375 8.73572 23.4375 12.1875C23.4375 15.6393 20.6393 18.4375 17.1875 18.4375H10.9375V24.6875H7.8125V5.9375ZM10.9375 15.3125H17.1875C18.9134 15.3125 20.3125 13.9134 20.3125 12.1875C20.3125 10.4616 18.9134 9.0625 17.1875 9.0625H10.9375V15.3125Z" fill="white"/>
</svg>
