<svg width="23" height="24" viewBox="0 0 23 24" fill="none" xmlns="http://www.w3.org/2000/svg">
<path d="M19.9167 2C20.653 2 21.25 2.59695 21.25 3.33333V20.6667C21.25 21.403 20.653 22 19.9167 22H6.58333C5.84695 22 5.25 21.403 5.25 20.6667V3.33333C5.25 2.59695 5.84695 2 6.58333 2H19.9167ZM14.4167 7H12.25L12.2002 7.00183C11.8553 7.02728 11.5833 7.31521 11.5833 7.66667V11L11.5852 11.0498C11.6106 11.3947 11.8985 11.6667 12.25 11.6667C12.6182 11.6667 12.9167 11.3682 12.9167 11V9.33333C12.9167 8.78105 13.3644 8.33333 13.9167 8.33333H14.4167L14.4944 8.3347C15.655 8.37562 16.5833 9.3294 16.5833 10.5C16.5833 11.6966 15.6133 12.6667 14.4167 12.6667H10.75L10.6691 12.668C9.32582 12.7107 8.25 13.813 8.25 15.1667C8.25 16.5474 9.36929 17.6667 10.75 17.6667H12.25L12.2998 17.6648C12.6447 17.6394 12.9167 17.3515 12.9167 17V15.6667L12.9148 15.6169C12.8894 15.272 12.6015 15 12.25 15L12.2002 15.0018C11.8553 15.0273 11.5833 15.3152 11.5833 15.6667C11.5833 16.0349 11.2849 16.3333 10.9167 16.3333H10.75L10.686 16.3316C10.0714 16.2984 9.58333 15.7895 9.58333 15.1667C9.58333 14.5223 10.1057 14 10.75 14H14.4167L14.5114 13.9987C16.4006 13.9485 17.9167 12.4013 17.9167 10.5C17.9167 8.567 16.3497 7 14.4167 7Z" fill="url(#paint0_linear_1690_27663)"/>
<path d="M1.90133 9.89093L3.84854 11.4841C4.1335 11.7173 4.1755 12.1373 3.94235 12.4222C3.91427 12.4565 3.88285 12.488 3.84854 12.516L1.90133 14.1092C1.61636 14.3424 1.19635 14.3004 0.963195 14.0154C0.865743 13.8963 0.8125 13.7471 0.8125 13.5932V10.4069C0.8125 10.0387 1.11098 9.74023 1.47917 9.74023C1.63306 9.74023 1.78222 9.79348 1.90133 9.89093Z" fill="url(#paint1_linear_1690_27663)"/>
<defs>
<linearGradient id="paint0_linear_1690_27663" x1="13.25" y1="2.09409" x2="13.25" y2="21.6409" gradientUnits="userSpaceOnUse">
<stop stop-color="#05C574"/>
<stop offset="1" stop-color="#1EBF7B"/>
</linearGradient>
<linearGradient id="paint1_linear_1690_27663" x1="2.45278" y1="9.7615" x2="2.45278" y2="14.1788" gradientUnits="userSpaceOnUse">
<stop stop-color="#05C574"/>
<stop offset="1" stop-color="#1EBF7B"/>
</linearGradient>
</defs>
</svg>
