<svg width="23" height="25" viewBox="0 0 23 25" fill="none" xmlns="http://www.w3.org/2000/svg">
<path fill-rule="evenodd" clip-rule="evenodd" d="M20.2937 4.40283C20.9632 4.40283 21.5059 4.96324 21.5059 5.65455L21.5059 19.4234C21.5059 20.1147 20.9632 20.6752 20.2937 20.6752L2.71798 20.6752C2.04854 20.6752 1.50586 20.1147 1.50586 19.4234L1.50586 5.65455C1.50586 4.96324 2.04854 4.40283 2.71798 4.40283L20.2937 4.40283ZM11.5059 8.15798L11.4111 8.15905C9.11185 8.21108 7.26344 10.1521 7.26344 12.539C7.26344 14.9586 9.16283 16.92 11.5059 16.92C13.8172 16.92 15.6969 15.0112 15.7472 12.6368L15.7483 12.539H11.5059L11.5059 8.15798ZM15.8879 11.2871C15.4639 9.70095 14.2539 8.45152 12.7179 8.01377L12.718 11.2873L15.8879 11.2871Z" fill="url(#paint0_linear_1690_22868)"/>
<defs>
<linearGradient id="paint0_linear_1690_22868" x1="1001.51" y1="4.40283" x2="1001.51" y2="1629.23" gradientUnits="userSpaceOnUse">
<stop stop-color="#FA8D3E"/>
<stop offset="1" stop-color="#F9612E"/>
</linearGradient>
</defs>
</svg>
