<svg width="40" height="38" viewBox="0 0 40 38" fill="none" xmlns="http://www.w3.org/2000/svg">
<g id="Frame 1171277453">
<path id="&#232;&#146;&#153;&#231;&#137;&#136;" d="M28.7567 32.0635C28.0703 32.0635 27.4354 31.6984 27.089 31.1045L23.9097 25.6534L29.3867 25.6532L25.659 19.213C25.1071 18.2596 25.7934 17.0654 26.8932 17.0654L30.2664 17.0654C31.2839 17.0654 32.2245 17.6083 32.7351 18.4903L39.3505 29.9158C39.9025 30.8692 39.2162 32.0635 38.1163 32.0635L28.7567 32.0635Z" fill="url(#paint0_linear_1641_2992)"/>
<path id="&#233;&#152;&#180;&#229;&#189;&#177;" d="M28.7554 32.0634C28.0696 32.0634 27.4351 31.6989 27.0885 31.1058L23.9095 25.6659L29.3865 25.6658L25.634 19.1476C25.0851 18.1942 25.7716 17.0029 26.8699 17.0029L30.2479 17.0029C31.2664 17.0029 32.2078 17.5469 32.7181 18.4302L39.3538 29.9168C39.9046 30.8702 39.2182 32.0634 38.1189 32.0634L28.7554 32.0634Z" fill="url(#paint1_linear_1641_2992)"/>
<path id="&#229;&#189;&#162;&#231;&#138;&#182;&#231;&#187;&#147;&#229;&#144;&#136;" fill-rule="evenodd" clip-rule="evenodd" d="M11.5259 11.1689C12.4395 9.57106 14.7431 9.5698 15.6584 11.1666L26.8145 30.6281C27.3237 31.5164 28.2693 32.0643 29.2932 32.0643H34.8201H21.7223C20.7024 32.0643 19.7599 31.5207 19.2492 30.6379L13.5902 20.856L7.95578 30.6337C7.44571 31.5188 6.50184 32.0643 5.48024 32.0643H2.04058C0.94352 32.0643 0.255871 30.879 0.800425 29.9266L11.5259 11.1689Z" fill="url(#paint2_linear_1641_2992)"/>
<path id="&#230;&#164;&#173;&#229;&#156;&#134;&#229;&#189;&#162;" d="M24.6353 11.8835C27.0821 11.8835 29.0656 9.89574 29.0656 7.4437C29.0656 4.99167 27.0821 3.00391 24.6353 3.00391C22.1886 3.00391 20.2051 4.99167 20.2051 7.4437C20.2051 9.89574 22.1886 11.8835 24.6353 11.8835Z" fill="url(#paint3_linear_1641_2992)"/>
</g>
<defs>
<linearGradient id="paint0_linear_1641_2992" x1="26.191" y1="15.6522" x2="27.2749" y2="29.8287" gradientUnits="userSpaceOnUse">
<stop stop-color="#FF986D"/>
<stop offset="0.425" stop-color="#CC39FF"/>
<stop offset="1" stop-color="#6E53FD"/>
</linearGradient>
<linearGradient id="paint1_linear_1641_2992" x1="29.9253" y1="24.7516" x2="26.389" y2="30.2049" gradientUnits="userSpaceOnUse">
<stop stop-color="#471DC0" stop-opacity="0"/>
<stop offset="1" stop-color="#340E85"/>
</linearGradient>
<linearGradient id="paint2_linear_1641_2992" x1="14.2136" y1="2.53206" x2="2.31818" y2="38.1352" gradientUnits="userSpaceOnUse">
<stop offset="0.185" stop-color="#FF7A68"/>
<stop offset="0.374311" stop-color="#CD40FF"/>
<stop offset="0.602805" stop-color="#6145FF"/>
<stop offset="0.881141" stop-color="#421FFF"/>
</linearGradient>
<linearGradient id="paint3_linear_1641_2992" x1="24.6353" y1="3.00391" x2="24.6353" y2="11.8835" gradientUnits="userSpaceOnUse">
<stop stop-color="#FFC739"/>
<stop offset="1" stop-color="#ED4DC0"/>
</linearGradient>
</defs>
</svg>
