<svg width="72" height="48" viewBox="0 0 72 48" fill="none" xmlns="http://www.w3.org/2000/svg">
<path d="M69.83 17.4308H69.7839C69.7378 17.4308 69.6802 17.4769 69.6802 17.5346C69.6341 18.249 69.1155 20.2886 65.4973 23.1002C58.2954 28.7695 45.5969 35.5566 42.2207 37.3427C42.0709 37.3888 41.9672 37.3888 41.8635 37.3427C41.7598 37.239 41.8635 37.0892 41.8635 37.0316L45.4356 32.1804C45.4356 32.1804 46.9106 30.498 46.2538 29.7836C45.8504 29.3803 43.7993 29.7375 43.7993 29.7375C43.7993 29.7375 27.0102 32.0882 14.0929 29.3342C14.0929 29.3342 14.0468 29.3342 14.0468 29.3803V29.4264C16.8584 30.2445 27.0102 32.8487 41.61 32.0767C41.7137 32.0767 41.8174 32.1804 41.8174 32.3302C41.8174 32.3763 41.8174 32.4339 41.7713 32.48C41.0108 33.4479 38.9596 36.006 35.641 39.4745C34.8229 40.3963 34.3158 40.9033 34.9727 41.5141C35.5834 42.0211 36.655 41.5141 36.655 41.5141L45.8389 37.1238C45.8389 37.1238 59.2633 30.5902 65.0248 26.4073C72.4803 21.268 70.4983 18.1453 69.83 17.4308ZM24.913 15.7485C24.4521 15.7485 24.0949 15.5987 23.8414 15.2876C23.5879 14.9764 23.5303 14.5731 23.634 14.0661C23.8875 13.2019 24.7517 12.4874 25.6735 12.4874C26.1345 12.4874 26.4917 12.6372 26.7452 12.9484C26.9987 13.2595 27.0563 13.6628 26.9526 14.1237C26.6991 15.0917 25.8349 15.7485 24.913 15.7485ZM39.2593 28.1012C38.7522 28.1012 38.2913 28.0551 37.8765 27.9514C37.0123 27.6979 36.4015 27.1333 36.0904 26.3151C35.5258 24.8402 36.0904 22.7891 36.8509 21.5215C36.8509 21.4754 39.0403 17.3387 44.3064 16.5666H44.7097C45.5739 16.5666 46.1846 16.8201 46.5994 17.281C47.1641 17.9955 46.9106 18.9173 46.9106 18.9634C46.8645 19.0671 46.15 22.1784 40.4807 23.3537C39.87 23.4574 39.4551 23.4574 39.2016 23.4574H38.9481C38.8444 23.7109 38.5909 24.483 38.8444 25.1398C38.9942 25.497 39.3053 25.8081 39.7663 26.004C40.0774 26.1077 40.4807 26.1538 40.8379 26.1538C43.0849 26.1538 45.3319 24.1142 45.3319 24.0566C45.3319 24.0566 45.4817 23.9529 45.8389 23.5957H45.885C45.9311 23.5957 45.9887 23.5496 46.0348 23.5496C46.1385 23.5496 46.2422 23.5957 46.2883 23.6533C46.3344 23.6994 46.392 23.8607 46.392 23.9644C46.392 24.0105 46.392 24.0681 46.3459 24.1718C46.2422 24.4254 45.7813 25.3933 43.7993 26.7761C42.8775 27.3407 41.9672 27.744 40.9877 27.9514C40.3309 28.0551 39.7663 28.1012 39.2593 28.1012ZM43.3384 18.5025H43.0849C42.4166 18.5486 41.7598 18.8136 41.0914 19.3206C39.87 20.2425 39.2593 21.5676 39.2593 21.5676C39.2132 21.6137 39.2132 21.7174 39.2593 21.8211C39.3053 21.9248 39.4667 21.9709 39.6626 21.9709H39.8124C40.377 21.9709 41.2412 21.9248 42.4627 21.3026C43.131 20.9454 43.5804 20.5421 43.8454 20.0235C44.0528 19.6202 44.0989 19.263 44.0989 19.263C44.0989 19.263 44.145 18.9519 43.9491 18.6984C43.903 18.6062 43.6495 18.5025 43.3384 18.5025ZM48.3394 27.3868C47.7748 27.3407 47.3715 26.8798 47.3715 26.3612C47.3715 26.2114 47.4176 26.0501 47.4752 25.9003C47.5789 25.7505 48.1435 24.7249 54.2162 13.6052C54.2623 13.5591 54.2623 13.5015 54.3199 13.4554L54.366 13.4093C54.7232 12.9023 55.2878 12.5912 55.8986 12.5451H56.1521C56.7167 12.5912 57.12 13.0521 57.12 13.5706C57.12 13.7204 57.0739 13.8817 57.0163 14.0315C56.9126 14.1813 56.348 15.2069 50.2753 26.3267C50.2292 26.3727 50.2292 26.4304 50.1716 26.4765L50.1255 26.5225C49.7683 27.0296 49.2037 27.3407 48.5929 27.3868H48.3394ZM28.8424 28.1012C27.8745 28.1012 26.9526 27.5942 26.4456 26.7184L26.2958 26.4073C26.0423 25.6468 26.1921 24.8287 26.2958 24.4714C26.3419 24.1603 26.3995 24.1142 27.6209 21.8672C27.9782 21.1989 28.3354 20.5421 28.9461 19.3667H26.8028C26.7567 19.3667 26.6991 19.3667 26.653 19.3206C26.6069 19.2745 26.5493 19.2745 26.5032 19.2169C26.5032 19.1708 26.4571 19.1708 26.4571 19.1132C26.411 19.0095 26.411 18.8021 26.4571 18.7099L26.7682 18.1453C26.8719 17.9379 27.0217 17.742 27.2292 17.5346C27.5403 17.2234 27.8975 17.0736 28.3008 17.0275H30.2367L31.7693 14.2159C31.8153 14.1698 31.8153 14.1122 31.873 14.0661L31.9191 14.02C32.2763 13.513 32.8409 13.2019 33.4516 13.1558H33.7051C34.2698 13.2019 34.6731 13.6628 34.6731 14.1813C34.6731 14.3311 34.627 14.4925 34.5694 14.6423C34.5233 14.746 33.1866 17.0967 33.1866 17.0967H35.9406C36.0443 17.0967 36.148 17.1428 36.2517 17.2004C36.2978 17.2465 36.2978 17.2465 36.2978 17.3041C36.3439 17.4078 36.4015 17.6152 36.2978 17.7074C36.2978 17.7074 35.8369 18.5255 35.7908 18.5716C35.4797 19.0326 35.0303 19.2861 34.5117 19.3322H31.9651L29.3148 24.1834C29.3148 24.1834 28.7502 25.1513 28.9576 25.7159C29.0037 25.8657 29.1074 25.9694 29.3148 26.0732C29.5223 26.1192 29.7181 26.1769 29.9832 26.1769C30.8474 26.1769 31.9191 25.6698 33.0483 24.7941L33.0944 24.748C33.2442 24.6443 33.4055 24.5406 33.4977 24.4945H33.5438C33.5899 24.4945 33.6475 24.4484 33.6936 24.4484C33.901 24.4484 34.0508 24.5982 34.0508 24.8056C34.0508 24.8517 34.0508 24.9093 34.0047 24.9554L33.7973 25.3126C33.3364 26.1308 32.6796 26.7876 31.8614 27.3061C31.147 27.767 30.2828 27.9745 29.407 28.0205H28.8424V28.1012ZM18.4371 27.3868C17.8724 27.3407 17.4691 26.8798 17.4691 26.3612C17.4691 26.2114 17.5152 26.0501 17.5728 25.9003C17.6189 25.7966 21.8594 18.0416 21.8594 18.0416C21.9055 17.9955 21.9055 17.9379 21.9631 17.8918L22.0092 17.8457C22.3664 17.3387 22.9311 17.0275 23.5418 16.9814H23.7953C24.3599 17.0275 24.7632 17.4885 24.7632 18.007C24.7632 18.1568 24.7171 18.3181 24.6595 18.4679C24.6134 18.5716 20.3729 26.3267 20.3729 26.3267C20.3268 26.3727 20.3268 26.4304 20.2692 26.4765L20.2231 26.5225C19.8659 27.0296 19.3013 27.3407 18.6906 27.3868H18.4371ZM56.3595 9.92932C56.4056 9.92932 56.4056 9.92932 56.3595 9.92932C56.4056 9.88323 56.3595 9.88323 56.3595 9.88323C51.2087 8.55808 46.4612 7.99345 41.656 7.69385C24.5558 6.66829 10.1635 10.2981 4.55175 14.6884C0.668479 17.6383 1.38291 20.5536 1.69403 21.3602L1.74012 21.4063C1.78622 21.4063 1.78622 21.4063 1.78622 21.3602C1.93602 20.4384 3.16899 16.7164 11.7422 13.6052C15.6715 12.3261 23.1269 9.57211 37.0007 8.91529C46.7147 8.70788 54.0088 9.73343 56.3595 9.92932Z" fill="#FF0000"/>
</svg>
