<svg width="23" height="25" viewBox="0 0 23 25" fill="none" xmlns="http://www.w3.org/2000/svg">
<path d="M10.7192 13.7184C12.1086 13.7184 13.3919 14.2349 14.3823 15.0839L10.0589 19.3684H2.38568C2.09481 19.3684 1.85901 19.1326 1.85901 18.8417L1.85965 18.8158L1.86156 18.7899C2.14059 15.9654 4.48271 13.7184 7.38064 13.7184H10.7192ZM9.17835 12.6912C6.69624 12.6912 4.68408 10.679 4.68408 8.19691C4.68408 5.71479 6.69624 3.70264 9.17835 3.70264C11.6605 3.70264 13.6726 5.71479 13.6726 8.19691C13.6726 9.38887 13.1991 10.532 12.3563 11.3748C11.5134 12.2177 10.3703 12.6912 9.17835 12.6912Z" fill="url(#paint0_linear_534_19479)"/>
<path d="M16.0323 16.0079C16.0369 16.0128 16.0414 16.0178 16.0459 16.0228C16.2508 16.2563 16.2345 16.61 16.0089 16.8236L11.7848 20.8227C11.5699 21.0262 11.2307 21.0169 11.0272 20.802L11.0136 20.7871C10.8087 20.5536 10.825 20.1999 11.0506 19.9863L15.2747 15.9872C15.4896 15.7837 15.8288 15.793 16.0323 16.0079ZM17.2618 11.5237C17.5184 11.6518 18.1152 12.1294 18.3195 12.2949L19.471 11.8893C19.4806 11.8857 19.4902 11.8834 19.5008 11.8821C19.5234 11.8789 19.7275 11.8515 19.8602 11.986C19.9181 12.0446 19.9807 12.1531 19.9524 12.3396C19.9096 12.6241 19.6674 13.345 19.5842 13.5865L20.2577 14.596C20.259 14.5981 20.26 14.5998 20.2616 14.6022C20.2735 14.622 20.3773 14.8033 20.2851 14.9842C20.2173 15.1172 20.0735 15.1965 19.8582 15.2189C19.4772 15.2589 18.8946 15.2668 18.6777 15.2685L17.9351 16.2702C17.9102 16.305 17.7484 16.5184 17.5364 16.4813C17.4915 16.4739 17.4316 16.452 17.3737 16.3934C17.3564 16.3758 17.3394 16.3551 17.3232 16.3302C17.2738 16.2556 17.2356 16.1541 17.2069 16.0206C17.1048 15.5483 16.9731 15.1427 16.9173 14.9811L15.8875 14.6896C15.8705 14.6852 15.7976 14.6649 15.72 14.6243C15.5499 14.5366 15.4941 14.4245 15.4766 14.3454C15.4603 14.2718 15.4705 14.1917 15.5057 14.1153C15.5385 14.0449 15.5914 13.9757 15.6675 13.9061C15.9912 13.6092 16.4509 13.2673 16.6267 13.1393L16.6543 11.9409C16.6545 11.9326 16.6553 11.9236 16.6569 11.9146C16.658 11.9073 16.6706 11.8417 16.7021 11.7664C16.7519 11.6483 16.8217 11.5639 16.9113 11.5165C16.9858 11.4769 17.1064 11.4468 17.2618 11.5237Z" fill="url(#paint1_linear_534_19479)"/>
<defs>
<linearGradient id="paint0_linear_534_19479" x1="8.12065" y1="3.77634" x2="8.12065" y2="19.0871" gradientUnits="userSpaceOnUse">
<stop stop-color="#399EF7"/>
<stop offset="1" stop-color="#3D89FC"/>
</linearGradient>
<linearGradient id="paint1_linear_534_19479" x1="16.573" y1="11.4412" x2="15.0025" y2="21.3574" gradientUnits="userSpaceOnUse">
<stop stop-color="#399EF7"/>
<stop offset="1" stop-color="#3D89FC"/>
</linearGradient>
</defs>
</svg>
