<svg width="23" height="24" viewBox="0 0 23 24" fill="none" xmlns="http://www.w3.org/2000/svg">
<path opacity="0.6" fill-rule="evenodd" clip-rule="evenodd" d="M13.519 7.92779H12.4512V6.91613L18.3625 1.3159C18.6676 1.02686 19.1253 1.02686 19.4304 1.3159C19.7355 1.60495 19.7355 2.03851 19.4304 2.32756L13.519 7.92779Z" fill="url(#paint0_linear_1690_27712)"/>
<path fill-rule="evenodd" clip-rule="evenodd" d="M11.6923 6.35831L17.1932 1L3.46384 1.00003C2.77026 1.00003 2.20801 1.56228 2.20801 2.25586V21.7442C2.20801 22.4377 2.77026 23 3.46384 23H19.162C19.8556 23 20.4178 22.4377 20.4178 21.7442V3.38331L14.3309 8.96605H11.6923V6.35831ZM4.95517 14.6568H14.6357C14.8958 14.6568 15.1066 14.8676 15.1066 15.1277V15.324C15.1066 15.5841 14.8958 15.7949 14.6357 15.7949H4.95517C4.69508 15.7949 4.48423 15.5841 4.48423 15.324V15.1277C4.48423 14.8676 4.69508 14.6568 4.95517 14.6568ZM4.95517 11.6218H11.2213C11.4814 11.6218 11.6923 11.8327 11.6923 12.0928V12.289C11.6923 12.5491 11.4814 12.7599 11.2213 12.7599H4.95517C4.69508 12.7599 4.48423 12.5491 4.48423 12.289V12.0928C4.48423 11.8327 4.69508 11.6218 4.95517 11.6218ZM4.96504 17.692C4.69686 17.692 4.47945 17.9094 4.47945 18.1776V18.3493C4.47945 18.6175 4.69686 18.8349 4.96504 18.8349H17.618C17.8862 18.8349 18.1036 18.6175 18.1036 18.3493V18.1776C18.1036 17.9094 17.8862 17.692 17.618 17.692H4.96504Z" fill="url(#paint1_linear_1690_27712)"/>
<defs>
<linearGradient id="paint0_linear_1690_27712" x1="16.0552" y1="1.13125" x2="16.0552" y2="7.80518" gradientUnits="userSpaceOnUse">
<stop stop-color="#05C574"/>
<stop offset="1" stop-color="#1EBF7B"/>
</linearGradient>
<linearGradient id="paint1_linear_1690_27712" x1="11.3129" y1="1.1035" x2="11.3129" y2="22.605" gradientUnits="userSpaceOnUse">
<stop stop-color="#05C574"/>
<stop offset="1" stop-color="#1EBF7B"/>
</linearGradient>
</defs>
</svg>
