<svg width="22" height="24" viewBox="0 0 22 24" fill="none" xmlns="http://www.w3.org/2000/svg">
<path fill-rule="evenodd" clip-rule="evenodd" d="M2 1C1.44772 1 1 1.44772 1 2V21C1 21.5523 1.44772 22 2 22H12.3999C11.9058 21.7033 11.4462 21.3443 11.0334 20.9283C9.72806 19.6128 8.99696 17.8339 9.00001 15.9807C9.0098 14.1276 9.75213 12.3537 11.065 11.0459C12.3779 9.73806 14.1547 9.00261 16.0078 9C16.6839 9.00219 17.3548 9.10211 18 9.29557V2C18 1.44772 17.5523 1 17 1H2Z" fill="#FA8D3E"/>
<path d="M16.0067 10C14.4183 10.0022 12.8953 10.6326 11.77 11.7536C10.6447 12.8746 10.0084 14.3951 10 15.9835C9.99739 17.5719 10.6241 19.0967 11.7429 20.2243C12.8617 21.3518 14.3816 21.9903 15.97 22C19.2785 22.0085 21.9926 19.3299 21.9999 16.0434C22.0039 15.2529 21.852 14.4693 21.5529 13.7375C21.2537 13.0058 20.8132 12.3402 20.2566 11.7788C19.6999 11.2175 19.038 10.7715 18.3088 10.4662C17.5795 10.161 16.7972 10.0026 16.0067 10Z" fill="url(#paint0_linear_1690_22849)"/>
<path d="M16.0273 14.6374C16.0326 14.7129 16.0635 14.7845 16.1153 14.8412C16.4819 15.2275 18.2843 17.0569 18.6521 17.448C18.74 17.5353 18.8039 17.6425 18.838 17.7599C18.8722 17.8773 18.8755 18.0011 18.8477 18.1201C18.8199 18.2391 18.7618 18.3494 18.6788 18.441C18.5957 18.5326 18.4904 18.6027 18.3723 18.6447C18.2532 18.6886 18.1233 18.6971 17.9992 18.669C17.8751 18.6409 17.7625 18.5776 17.6758 18.4871C17.187 18.0001 15.2037 16.0486 14.7222 15.5533C14.5949 15.4212 14.5264 15.2458 14.5316 15.0651C14.5316 14.0982 14.5316 13.1302 14.5316 12.1621C14.5288 12.0704 14.5449 11.9791 14.5789 11.8935C14.6129 11.8079 14.6642 11.7297 14.7297 11.6635C14.7953 11.5973 14.8737 11.5445 14.9606 11.508C15.0474 11.4716 15.1408 11.4522 15.2354 11.4512C15.437 11.4505 15.6312 11.5247 15.7782 11.6584C15.9252 11.7921 16.0139 11.9753 16.0261 12.1704C16.0297 12.5804 16.0175 14.2238 16.0273 14.6374Z" fill="white"/>
<path d="M12.8309 4C14.026 4 13.8623 5.45506 12.8309 5.45506H3.82724C2.70055 5.45506 2.74821 4 3.82724 4H12.8309Z" fill="white"/>
<path d="M9.45135 7C10.2356 7 10.1282 8.45506 9.45135 8.45506H3.54286C2.80349 8.45506 2.83477 7 3.54286 7H9.45135Z" fill="white"/>
<path d="M5.32785 10.0009C6.52296 10.0009 6.35921 11.4559 5.32785 11.4559H3.82723C2.70055 11.4559 2.74821 10.0009 3.82723 10.0009C6.7808 9.9997 4.17795 9.9997 5.32785 10.0009Z" fill="white"/>
<defs>
<linearGradient id="paint0_linear_1690_22849" x1="610" y1="10" x2="610" y2="1208.22" gradientUnits="userSpaceOnUse">
<stop stop-color="#FA8D3E"/>
<stop offset="1" stop-color="#F9612E"/>
</linearGradient>
</defs>
</svg>
