<svg width="22" height="24" viewBox="0 0 22 24" fill="none" xmlns="http://www.w3.org/2000/svg">
<path fill-rule="evenodd" clip-rule="evenodd" d="M19.7879 3C20.4573 3 21 3.54269 21 4.21212V16.9394C21 17.6088 20.4573 18.1515 19.7879 18.1515H2.21212C1.54269 18.1515 1 17.6088 1 16.9394V4.21212C1 3.54269 1.54269 3 2.21212 3H19.7879ZM15.8485 6.93939H13.5498C13.4694 6.93939 13.3923 6.97132 13.3355 7.02815C13.2171 7.14649 13.2171 7.33836 13.3355 7.4567L14.2076 8.32879L11.6061 10.9306L9.61037 8.93509L9.57182 8.89968C9.3337 8.69906 8.97749 8.71086 8.75327 8.93509L5.41994 12.2684L5.38453 12.307C5.18391 12.5451 5.19571 12.9013 5.41994 13.1255L5.45849 13.1609C5.6966 13.3615 6.05281 13.3497 6.27703 13.1255L9.18182 10.2209L11.1775 12.2164L11.2161 12.2518C11.4542 12.4525 11.8104 12.4407 12.0346 12.2164L15.0648 9.18606L15.9372 10.0585C15.9941 10.1153 16.0711 10.1472 16.1515 10.1472C16.3189 10.1472 16.4545 10.0115 16.4545 9.84418V7.54545C16.4545 7.21074 16.1832 6.93939 15.8485 6.93939Z" fill="url(#paint0_linear_1784_5670)"/>
<rect x="3.323" y="4.88818" width="15.3541" height="11.375" fill="#FB8D3F"/>
<path d="M16.7575 19.0609H5.24234C4.74027 19.0609 4.33325 19.4679 4.33325 19.97C4.33325 20.4721 4.74027 20.8791 5.24234 20.8791H16.7575C17.2596 20.8791 17.6666 20.4721 17.6666 19.97C17.6666 19.4679 17.2596 19.0609 16.7575 19.0609Z" fill="url(#paint1_linear_1784_5670)"/>
<path d="M12.7388 10.9976C12.3857 10.7598 12.3857 10.2402 12.7388 10.0024L15.5648 8.09884C15.9633 7.83039 16.5 8.11596 16.5 8.59647L16.5 12.4035C16.5 12.884 15.9633 13.1696 15.5648 12.9012L12.7388 10.9976Z" fill="white"/>
<path fill-rule="evenodd" clip-rule="evenodd" d="M7 7C6.44772 7 6 7.44772 6 8V13C6 13.5523 6.44772 14 7 14H13C13.5523 14 14 13.5523 14 13V8C14 7.44772 13.5523 7 13 7H7ZM7.5 8C7.22386 8 7 8.22386 7 8.5C7 8.77614 7.22386 9 7.5 9H9.5C9.77614 9 10 8.77614 10 8.5C10 8.22386 9.77614 8 9.5 8H7.5Z" fill="white"/>
<defs>
<linearGradient id="paint0_linear_1784_5670" x1="1001" y1="3" x2="1001" y2="1515.91" gradientUnits="userSpaceOnUse">
<stop stop-color="#FA8D3E"/>
<stop offset="1" stop-color="#F9612E"/>
</linearGradient>
<linearGradient id="paint1_linear_1784_5670" x1="671" y1="19.0609" x2="671" y2="200.61" gradientUnits="userSpaceOnUse">
<stop stop-color="#FA8D3E"/>
<stop offset="1" stop-color="#F9612E"/>
</linearGradient>
</defs>
</svg>
