<svg xmlns="http://www.w3.org/2000/svg" width="60" height="60" viewBox="0 0 60 60"><g fill="none" fill-rule="evenodd"><rect width="60" height="60"/><path fill="#4C4C4C" fill-rule="nonzero" d="M41.5641672 29.3150772C41.5083 23.9940288 45.9042645 21.4420928 46.0967302 21.3178751 43.631767 17.7104471 39.7883868 17.21373 38.4162115 17.1516212 35.1440893 16.822557 32.0333785 19.0763809 30.3755742 19.0763809 28.7177699 19.0763809 26.1596946 17.2012469 23.4463472 17.2509237 19.8823544 17.3067909 16.5978514 19.3247139 14.7599622 22.5161048 11.0532317 28.9486147 13.8099632 38.473213 17.4236328 43.682578 19.1869812 46.2345141 21.2918258 49.0967896 24.05485 48.9974871 26.7122789 48.8919431 27.7181452 47.277574 30.9344001 47.277574 34.1506551 47.277574 35.0509772 48.9974871 37.8698687 48.9477591 40.7321954 48.8918919 42.5452718 46.3461974 44.2961882 43.7881221 46.3203015 40.8264417 47.1585149 37.9579246 47.2020013 37.8212749 47.1398925 37.783979 41.6201368 35.6729951 41.5642695 29.3149749L41.5641672 29.3150772ZM36.2740709 13.7057068C37.7393583 11.9299265 38.7266022 9.45877282 38.4596468 7 36.3485606 7.08692166 33.7904853 8.40322973 32.2754699 10.1790101 30.921917 11.7560832 29.7235338 14.2707232 30.0464588 16.6798192 32.3996875 16.8660945 34.8087324 15.4814872 36.2740709 13.705758L36.2740709 13.7057068Z"/></g></svg>