<svg xmlns="http://www.w3.org/2000/svg" width="60" height="60" viewBox="0 0 60 60"><g fill="none" fill-rule="evenodd"><rect width="60" height="60"/><g fill-rule="nonzero" transform="translate(11 8)"><path fill="#FFF" d="M19.5082272,6.73050905 C19.0760587,7.01192108 18.7443945,7.4239887 18.5584615,7.90640933 C18.3675034,8.52953597 18.3976547,9.19286433 18.6338398,9.80091533 C18.8298231,10.4391176 19.2217899,10.9969165 19.7494375,11.3989336 C20.0207991,11.5898918 20.3323624,11.710497 20.6640266,11.7506987 C20.9956908,11.7909004 21.3273549,11.735623 21.6238426,11.5848666 C21.9756076,11.3888832 22.2570197,11.0823451 22.4228518,10.7155044 C22.5836586,10.3436385 22.6741125,9.94664656 22.6841629,9.54462937 C22.7193394,9.03205745 22.6540117,8.51948554 22.4932048,8.0320397 C22.3173223,7.49936692 21.9756076,7.04207237 21.5132879,6.73050905 C21.2771028,6.57975261 21.0157916,6.47924831 20.7394048,6.43904659 C20.463018,6.39884487 20.1816059,6.42899616 19.9202948,6.52950046 C19.7745635,6.58980304 19.6338575,6.66518126 19.5032019,6.75563513"/><path fill="#3F3F3F" d="M33.8300895,27.2434361 C33.5738035,25.8213003 33.1717863,24.4293158 32.6340883,23.0926086 C32.2672477,22.0976161 31.7697514,21.1528757 31.15165,20.2885387 C30.5285233,19.4593783 29.8183334,18.6066895 29.1315136,17.9216625 C26.9390851,15.7349571 26.4028219,12.8512207 26.3274437,12.7255904 C26.2671411,11.921556 26.1817125,11.1175216 26.1364855,10.3134872 C26.171662,8.70039327 26.0359812,7.08227409 25.7294431,5.4943062 C25.5183841,4.73549876 25.1967704,4.0068426 24.7746523,3.34351424 C24.2821813,2.55958072 23.6490042,1.8761515 22.9052724,1.32840309 C21.6941956,0.469091346 20.2469337,0.00677157995 18.7644954,0.0017463651 C17.6740237,-0.0233797092 16.5936025,0.222855819 15.6237361,0.725377304 C14.6036175,1.28317615 13.7794822,2.14248789 13.2618851,3.18270737 C12.7794645,4.23297727 12.5231785,5.36867583 12.5081029,6.52447524 C12.4679011,7.6601738 12.5734307,8.78582193 12.6186576,9.92152048 C12.6638845,11.0974208 12.6387585,12.2783462 12.7342375,13.4542465 C12.7643888,13.8311376 10.2166049,18.7960499 9.7794112,19.3337479 C9.21156192,19.9719502 8.7291413,20.6805055 8.34722497,21.4443381 C6.08970296,24.2421703 5.08008681,29.9451458 5.2114909,30.7610865 C5.32961312,31.6268405 9.04070462,43.7613173 9.3371923,43.7463393 C10.45279,43.660813 16.9654684,42.3592823 17.1313005,42.3492319 C17.6036707,42.3994841 20.7645309,42.5502405 21.5886661,42.6758709 C22.312297,42.7864256 23.035928,42.9271316 23.7495085,43.1030141 C26.7559677,43.93413 28.6591434,39.1833466 28.1365211,38.44464 C27.9556133,38.1381019 27.784756,37.8215133 27.6038483,37.5149752 C28.3827566,36.6456131 29.071211,35.6908222 29.6491107,34.6757288 C30.0008758,34.6958297 30.3476156,34.655628 30.684305,34.5450733 C31.5637176,34.2485856 32.3275502,33.6757111 32.860223,32.9118784 C33.0210299,32.6857438 33.1466603,32.434483 33.2220385,32.1681466 C33.5687783,31.6304486 33.8049634,31.0274229 33.9155181,30.3942458 C34.076325,29.3490011 34.0511989,28.2786303 33.8401399,27.2434361 L33.8300895,27.2434361 Z"/><path fill="#FFF" d="M14.5031132,13.0070024 C14.3473315,13.208011 14.2367768,13.4441961 14.1814994,13.6904316 C14.126222,13.9366671 14.0910455,14.1929531 14.0860203,14.4442138 C14.101096,14.9517605 14.0608943,15.4593072 13.96039,15.9568035 C13.7845074,16.4744006 13.5181711,16.9517961 13.1764564,17.3789393 C12.5885063,18.1176459 12.1261865,18.9468064 11.809598,19.8312442 C11.6487911,20.3789926 11.5935138,20.9518671 11.6538163,21.5247416 C11.0457653,22.424255 10.5181178,23.3790459 10.0809241,24.3740384 C9.4075453,25.8765776 8.97537683,27.4796212 8.79949431,29.1178412 C8.58341007,31.1329524 8.87989774,33.1681644 9.65378083,35.0375443 C10.2216301,36.3843019 11.0859671,37.5903535 12.1814639,38.5602199 C12.744288,39.0476658 13.3623894,39.4597334 14.0257178,39.7863723 C16.3724931,40.9321213 19.1212856,40.9069953 21.4429349,39.7160193 C22.6037595,39.0376153 23.6640798,38.1984045 24.5887194,37.228538 C25.1867199,36.6858148 25.7193927,36.0777638 26.1867377,35.4144354 C26.965646,34.0626526 27.4229405,32.5450377 27.5184196,30.9872211 C28.0008403,28.293706 27.7043526,25.5197874 26.6691583,22.9870791 C26.2621159,22.142843 25.7244179,21.3689599 25.07114,20.6955811 C24.8952596,19.5144408 24.5535235,18.3640423 24.0560466,17.278435 C23.6942311,16.4995267 23.2570374,15.7557949 22.920348,14.9567858 C22.7846672,14.6301468 22.6640621,14.2984826 22.5133056,13.9818941 C22.3675744,13.6602803 22.1665658,13.3637927 21.9203303,13.1125319 C21.6539939,12.8662964 21.3374054,12.6803634 20.9906655,12.5748339 C20.6439257,12.4642792 20.2871355,12.4039766 19.92532,12.3939262 C19.201689,12.3587497 18.4730329,12.4492036 17.7594524,12.4240775 C17.1815527,12.3989514 16.6137034,12.2984471 16.0358037,12.3336236 C15.7493664,12.3486993 15.4629292,12.4039766 15.1965928,12.5095061 C14.9252312,12.6150356 14.6890461,12.7858929 14.5031132,13.0120276 M14.734273,6.72548384 C14.4629114,6.7455847 14.2066255,6.86116464 14.0106421,7.04709759 C13.8146587,7.23303054 13.6689275,7.46921563 13.5885241,7.72550159 C13.4528433,8.24812394 13.4176668,8.79587236 13.493045,9.33357034 C13.5030954,9.82101618 13.5885241,10.308462 13.7493309,10.7707818 C13.8397848,10.9969165 13.9704404,11.2079755 14.1412977,11.383858 C14.312155,11.5597405 14.5282392,11.6903961 14.7644243,11.7506987 C14.990559,11.8059761 15.2267441,11.7959256 15.4428283,11.7255726 C15.6589126,11.6552196 15.8599212,11.5346144 16.020728,11.3738076 C16.2569131,11.1325973 16.4277705,10.8361096 16.5131991,10.5144958 C16.5986278,10.1928821 16.6388295,9.85619269 16.628779,9.51950329 C16.628779,9.10241046 16.5634513,8.68531763 16.4378209,8.28330044 C16.3121905,7.88128325 16.0961063,7.51444257 15.8046438,7.20790446 C15.6639378,7.06217323 15.5031309,6.93654286 15.3222232,6.84608899 C15.1362902,6.76066034 14.9352816,6.71543341 14.734273,6.72548384 M19.5082272,6.72548384 C19.0760587,7.00689587 18.7443945,7.41896349 18.5584615,7.90138411 C18.3675034,8.52451075 18.3976547,9.18783911 18.6338398,9.79589011 C18.8298231,10.4340924 19.2217899,10.9918912 19.7494375,11.3939084 C20.0207991,11.5848666 20.3323624,11.7054718 20.6640266,11.7456735 C20.9956908,11.7858752 21.3273549,11.7305978 21.6238426,11.5798414 C21.9756076,11.383858 22.2570197,11.0773199 22.4228518,10.7104792 C22.5836586,10.3386133 22.6741125,9.94162134 22.6841629,9.53960415 C22.7193394,9.02703224 22.6540117,8.51446032 22.4932048,8.02701448 C22.3173223,7.49434171 21.9756076,7.03704716 21.5132879,6.72548384 C21.2771028,6.57472739 21.0157916,6.47422309 20.7394048,6.43402137 C20.463018,6.39381966 20.1816059,6.42397095 19.9202948,6.52447524 C19.7745635,6.58477782 19.6338575,6.66015604 19.5032019,6.75060991"/><path fill="#3F3F3F" d="M20.4780936,8.00188841 C20.3172867,8.01193884 19.4177733,8.13241159 19.4177733,9.37879728 C19.4026976,9.61498238 19.4177733,10.9215382 20.5785979,10.9215382 C21.7859058,10.903316 21.7607797,9.91051795 21.7859058,9.71955979 C21.8361579,9.37784518 21.7859058,8.96561908 21.6217139,8.54226 C21.457522,8.11890092 20.6288501,7.98681276 20.4780936,7.99183798"/><path fill="#FFF" d="M14.734273,6.73050905 C14.4629114,6.75060991 14.2066255,6.86618985 14.0106421,7.0521228 C13.8146587,7.23805575 13.6689275,7.47424085 13.5885241,7.73052681 C13.4528433,8.25314915 13.4176668,8.80089757 13.493045,9.33859556 C13.5030954,9.8260414 13.5885241,10.3134872 13.7493309,10.775807 C13.8397848,11.0069669 13.9704404,11.2130007 14.1412977,11.3888832 C14.312155,11.5647657 14.5282392,11.6954213 14.7644243,11.7557239 C14.990559,11.8110013 15.2267441,11.8009508 15.4428283,11.7305978 C15.6589126,11.6602448 15.8599212,11.5396397 16.020728,11.3788328 C16.2569131,11.1376225 16.4277705,10.8411348 16.5131991,10.519521 C16.5986278,10.1979073 16.6388295,9.8612179 16.628779,9.52452851 C16.628779,9.10743568 16.5634513,8.69034284 16.4378209,8.28832566 C16.3121905,7.88630847 16.0961063,7.51946778 15.8046438,7.21292968 C15.6639378,7.06719845 15.5031309,6.94156807 15.3222232,6.85111421 C15.1362902,6.76568556 14.9352816,6.72045862 14.734273,6.73050905"/><path fill="#3F3F3F" d="M14.0860203,8.96672966 C14.0206925,9.30341905 14.0357682,9.65518409 14.1412977,9.98182306 C14.2217011,10.1979073 14.3423063,10.3938907 14.5031132,10.5597228 C14.6036175,10.6702775 14.7191974,10.7657566 14.8548782,10.8310844 C14.990559,10.9014374 15.1413154,10.9215382 15.2920719,10.8863617 C15.4277527,10.8511852 15.5433326,10.7707818 15.6287613,10.6602271 C15.7141899,10.5496723 15.7744925,10.424042 15.8146942,10.2933864 C15.9302742,9.90141962 15.9202238,9.48432679 15.7945934,9.09236003 C15.7141899,8.80592278 15.5584083,8.54461161 15.3372988,8.34862823 C15.2317693,8.25817437 15.1011137,8.18782136 14.9654329,8.15264485 C14.8247269,8.11746835 14.6789957,8.12751878 14.5433149,8.18782136 C14.4026089,8.25817437 14.2870289,8.37375431 14.2166759,8.51446032 C14.1463229,8.65516634 14.101096,8.80592278 14.0809951,8.96170445"/><path fill="#B4B4B4" d="M13.447818,13.1929353 C13.4578685,13.2381623 13.4729441,13.2833892 13.4980702,13.3185657 C13.5432971,13.3889187 13.5985745,13.4441961 13.6689275,13.489423 C13.7342553,13.53465 13.7995831,13.5748517 13.8649109,13.6150534 C14.2116507,13.8512385 14.5181888,14.142701 14.7644243,14.4844156 C15.0659372,14.9567858 15.4428283,15.3789038 15.8699716,15.7407193 C16.1966106,15.9668539 16.5785269,16.1025347 16.9755189,16.1377113 C17.4378386,16.1728878 17.9051836,16.1176104 18.3524277,15.9769044 C18.7644954,15.8562992 19.1614873,15.6854419 19.5333532,15.4593072 C20.1715555,14.9467353 20.8549847,14.494466 21.5786157,14.1175749 C21.749473,14.0572723 21.9203303,14.0120454 22.0811372,13.9366671 C22.2469692,13.8663141 22.3876753,13.745709 22.4731039,13.5849021 C22.5283813,13.4240952 22.5635578,13.2532379 22.568583,13.0823806 C22.5937091,12.9014729 22.6540117,12.7255904 22.6841629,12.5446826 C22.7243647,12.3637749 22.709289,12.1778419 22.6439612,12.0019594 C22.5736082,11.8662786 22.4630535,11.7557239 22.3273727,11.6853709 C22.1916919,11.6200431 22.0409354,11.5798414 21.890179,11.5748162 C21.5836409,11.5848666 21.282128,11.6150179 20.9856403,11.66527 C20.5836231,11.7004465 20.1816059,11.6501944 19.7795888,11.66527 C19.2820925,11.6803457 18.7845962,11.7909004 18.2820747,11.8110013 C17.7092002,11.8411526 17.141351,11.7506987 16.5684765,11.7255726 C16.3222409,11.710497 16.0709802,11.7205474 15.8247447,11.7607491 C15.5785091,11.7959256 15.342324,11.8863795 15.1362902,12.0270855 C14.9453321,12.1778419 14.7694495,12.3386488 14.5985922,12.5095061 C14.5081384,12.5899096 14.4076341,12.6602626 14.3021046,12.7155399 C14.1915498,12.7708173 14.0759699,12.8009686 13.9503395,12.7959434 C13.890037,12.7858929 13.8247092,12.7858929 13.7644066,12.7959434 C13.7292301,12.811019 13.6940536,12.8311199 13.6689275,12.856246 L13.5935493,12.9466998 C13.5432971,13.022078 13.4980702,13.1024815 13.4628937,13.1828849"/><path fill="#B4B4B4" d="M14.709147,11.9265812 C14.5081384,12.0471864 14.312155,12.1778419 14.1161716,12.3135228 C14.0106421,12.3788505 13.9252135,12.4642792 13.8598857,12.5698087 C13.8247092,12.6502121 13.8096335,12.7356408 13.8146587,12.8210695 C13.8196839,12.9064981 13.8196839,12.9919268 13.8146587,13.0773554 C13.8096335,13.1326328 13.7895327,13.1929353 13.7895327,13.2532379 C13.7895327,13.2833892 13.7895327,13.3135405 13.7995831,13.3386666 C13.8096335,13.3688179 13.8196839,13.3939439 13.8397848,13.4140448 C13.8649109,13.4391709 13.9000874,13.4592717 13.9402891,13.4693222 C13.9754656,13.4793726 14.0156673,13.4843978 14.055869,13.4944482 C14.2317516,13.5447004 14.3925584,13.6401795 14.523214,13.7658098 C14.6588948,13.886415 14.7795,14.027121 14.9252312,14.142701 C15.3272484,14.4442138 15.8146942,14.5999955 16.3121905,14.5949703 C16.8096868,14.5849199 17.3021578,14.5145669 17.7795532,14.3889365 C18.1564444,14.308533 18.5283103,14.2080287 18.8901257,14.0823984 C19.4529498,13.8713394 19.9705469,13.5648012 20.417791,13.1678093 C20.6137744,12.9768511 20.8198082,12.8059938 21.0409177,12.6502121 C21.2419263,12.5245818 21.4781114,12.4391531 21.67912,12.318548 C21.6992208,12.3084975 21.7142965,12.2934219 21.7343973,12.2833715 C21.749473,12.2682958 21.7645486,12.2532202 21.7745991,12.2331193 C21.7896747,12.1979428 21.7896747,12.1577411 21.7745991,12.1225646 C21.7645486,12.0873881 21.749473,12.0572368 21.7293721,12.0321107 C21.704246,12.0019594 21.6740948,11.9718081 21.6439435,11.9466821 C21.4127836,11.7758248 21.1363968,11.6803457 20.8499595,11.6702952 C20.5584971,11.6501944 20.2821102,11.6702952 20.0006982,11.6150179 C19.739387,11.5597405 19.4831011,11.4843623 19.2318403,11.3939084 C18.965504,11.3084798 18.6941423,11.243152 18.4127303,11.1979251 C17.7594524,11.0923955 17.096124,11.1074712 16.4478713,11.2481772 C15.8398203,11.383858 15.2518702,11.6150179 14.709147,11.9265812"/><path fill="#C4C4C4" d="M13.8649109 11.9517073C13.7342553 12.1024637 13.6287258 12.2783462 13.5583728 12.4693044 13.5131458 12.6200609 13.4829945 12.7758425 13.4578685 12.9316242 13.4427928 12.9869015 13.4327424 13.0472041 13.4327424 13.1075067 13.4327424 13.137658 13.7191796 13.3436918 13.7694318 13.348717 13.9905412 13.3838935 14.1965751 13.4743474 14.3774828 13.605003 14.5583905 13.7306333 14.7292478 13.8763646 14.9151808 13.9969697 15.3372988 14.2482305 17.2921074 14.35376 17.7695028 14.2482305 18.1514191 14.1778775 19.9554713 13.3889187 20.4228163 13.0170528 20.6389005 12.856246 20.8499595 12.6853886 21.0459429 12.4994557 21.1112707 12.4341279 21.3977079 12.202968 21.4831366 12.1728167 21.6188174 12.1376402 21.7595234 12.132615 21.9002294 12.1677915 22.0007337 12.1929176 22.4630535 12.1275898 22.4932048 12.0873881 22.5384317 12.0321107 22.5585326 11.9667829 22.5585326 11.8964299 22.5585326 11.8260769 22.5384317 11.7607491 22.5032552 11.7004465 22.427877 11.5848666 22.312297 11.4944127 22.1866667 11.4441606 22.0107842 11.3738076 21.8298764 11.3185302 21.6439435 11.2833537 21.0760942 11.1476729 20.5233206 10.9466643 20.0006982 10.6853531 19.739387 10.5546976 19.4931515 10.4139915 19.2318403 10.2783107 18.9705292 10.1325795 18.6991676 10.0069491 18.4177555 9.91649527 17.7695028 9.74061275 17.0810484 9.77076404 16.4528965 10.0069491 15.7493664 10.2531847 15.1212146 10.6803279 14.638794 11.2481772 14.3523567 11.4391354 14.0910455 11.6803457 13.8649109 11.9517073ZM37.724631 38.4647408C37.6241267 38.726052 37.4783955 38.9672623 37.2974877 39.1833466 36.8753697 39.6356159 36.3627978 39.9974314 35.7999737 40.2486921 34.8451829 40.690911 33.9155181 41.1833821 33.0109795 41.7210801 32.4230293 42.1130468 30.5033972 43.8869477 30.0310271 44.2638388 29.538556 44.6256542 28.1052893 45.4313572 26.2018133 44.6407299 25.7143675 44.4547969 25.2922494 44.128158 24.9957618 43.6959895 24.744501 43.2336697 24.6289211 42.7160726 24.6540472 42.1934503 24.6841985 41.2738359 24.7947532 40.3592468 24.9857113 39.4547082 25.1163669 38.7009259 25.2470225 37.9471437 25.327426 37.1883363 25.468132 35.801377 25.352552 32.5550882 25.3776781 32.3239283 25.4078294 31.8515581 25.8048214 31.4897426 26.2822168 31.4946776 26.498301 31.4897426 27.9304872 31.6957764 28.4229583 31.8113564 28.7294964 31.8917598 29.0360345 32.0023145 29.3425726 32.0877432 29.8551445 32.2384996 30.3978677 32.2837266 30.9305405 32.2334744 31.4883394 32.1028188 32.0561886 32.0173902 32.6290631 31.967138 32.8652482 31.9771885 33.1014333 32.0173902 33.3225428 32.0877432 33.5537027 32.153071 34.2452728 32.3239283 34.473317 32.7981471 34.644723 33.253593 34.4431657 34.1732074 34.473317 34.4144177 34.5587456 34.8013592 34.7446786 35.1631747 35.0059898 35.4646876 35.2723261 35.75615 35.5587634 36.0275116 35.8703267 36.2687219 36.1668144 36.5300331 36.4783777 36.7712434 36.8050167 36.9923529 36.9607983 37.0978824 37.11658 37.1933615 37.2623112 37.3089414 37.4130677 37.4194961 37.538698 37.5602022 37.6341771 37.721009 37.7547823 37.9421185 37.794984 38.1984045 37.7346814 38.44464M6.92508917 30.680683C7.18640034 30.7309352 7.43263587 30.8364647 7.64872011 30.9872211 8.06581294 31.3038097 8.42762841 31.6957764 8.71406565 32.1329701 9.42262095 33.1078618 10.101025 34.1028543 10.7191264 35.1380486 11.2216479 35.9772595 11.6789424 36.8415964 12.2568421 37.6305552 12.6337332 38.1431271 13.0608765 38.6205225 13.4427928 39.1330944 13.8397848 39.6356159 14.1412977 40.2084904 14.3272306 40.8165414 14.5483401 41.625601 14.4578862 42.4849127 14.0809951 43.2336697 13.8096335 43.7562921 13.4025911 44.1934858 12.9050948 44.4949987 12.4025734 44.7965116 11.8246736 44.947268 11.2367235 44.9321924 10.312084 44.806562 9.41759573 44.5251499 8.5934605 44.0980067 6.83966051 43.3995018 4.93510409 43.1783924 3.12602674 42.6356692 2.56822789 42.4698371.281755133 41.6105253.146074332 41.3944411.0455700354 41.2185586.472713298 39.5250612.618444528 39.1531953.839553982 38.5401191.924982634 37.8818159.869705271 37.2335632.839553982 36.5853105.72397404 35.9370578.688797536 35.2888051.658646247 34.9973426.668696677 34.7058801.718948825 34.4194429.794327048 33.8465684 1.24157117 33.3892738 1.81947088 33.3038452 2.08580727 33.2586183 2.35214365 33.2385174 2.61848004 33.253593 2.88481643 33.2686687 3.15617803 33.2686687 3.42251442 33.253593 3.6888508 33.2385174 3.95518719 33.1631392 4.19137229 33.0375088 4.40745653 32.9068532 4.59841469 32.7259455 4.74414592 32.5148865 4.88987715 32.3038274 5.02053274 32.0877432 5.14113789 31.8616085 5.26174305 31.6354739 5.39742385 31.4244148 5.55823073 31.2234062 5.70898717 31.0173724 5.91502098 30.8615908 6.15120608 30.751036 6.39744161 30.655557 6.66377799 30.6304309 6.92508917 30.680683Z"/><path fill="#B5B5B5" d="M6.15120608,30.7560613 C6.39744161,30.6605822 6.66377799,30.6354561 6.92508917,30.6857082 C7.18640034,30.7359604 7.43263587,30.8414899 7.64872011,30.9922464 C8.06581294,31.3088349 8.42762841,31.7008016 8.71406565,32.1379953 C9.42262095,33.112887 10.101025,34.1078796 10.7191264,35.1430738 C11.2216479,35.9822847 11.6789424,36.8466217 12.2568421,37.6355804 C12.6337332,38.1481523 13.0608765,38.6255477 13.4427928,39.1381196 C13.8397848,39.6406411 14.1412977,40.2135156 14.3272306,40.8215666 C14.5483401,41.6306262 14.4578862,42.4899379 14.0809951,43.2386949 C13.8096335,43.7613173 13.4025911,44.198511 12.9050948,44.5000239 C12.4025734,44.8015368 11.8246736,44.9522932 11.2367235,44.9372176 C10.312084,44.8115872 9.41759573,44.5301752 8.5934605,44.1030319 C6.83966051,43.404527 4.93510409,43.1834176 3.12602674,42.6406944 C2.56822789,42.4748623 2.02550469,42.2738537 1.46268062,42.1230972 C1.21141988,42.0627947 0.965184353,41.9874164 0.72397404,41.8869122 C0.487788942,41.7864079 0.281755133,41.6155505 0.146074332,41.3994663 C0.0455700354,41.2235838 -0.00468211316,41.0225752 0.000343101694,40.8215666 C0.00536831655,40.620558 0.0455700354,40.4245746 0.115923043,40.2436669 C0.251603844,39.8667758 0.472713298,39.5300864 0.618444528,39.1582205 C0.839553982,38.5451443 0.924982634,37.8868411 0.869705271,37.2385884 C0.839553982,36.5903357 0.72397404,35.9471082 0.688797536,35.2938303 C0.658646247,35.0023678 0.668696677,34.7109053 0.718948825,34.4244681 C0.794327048,33.8515936 1.24157117,33.3942991 1.81947088,33.3088704 C2.08580727,33.2636435 2.35214365,33.2435426 2.61848004,33.2586183 C2.88481643,33.2736939 3.15617803,33.2736939 3.42251442,33.2586183 C3.6888508,33.2435426 3.95518719,33.1681644 4.19137229,33.042534 C4.40745653,32.9118784 4.59841469,32.7309707 4.74414592,32.5199117 C4.88987715,32.3088526 5.02053274,32.0927684 5.14113789,31.8666337 C5.26174305,31.6404991 5.39742385,31.42944 5.55823073,31.2284315 C5.70898717,31.0223976 5.91502098,30.8615908 6.15120608,30.7560613"/></g></g></svg>