<svg width="11" height="13" viewBox="0 0 11 13" fill="none" xmlns="http://www.w3.org/2000/svg">
<path d="M8.18936 8.13989C8.54137 7.79101 8.82078 7.37585 9.01147 6.91838C9.20215 6.46092 9.30032 5.97021 9.30032 5.4746C9.30032 4.97899 9.20215 4.48828 9.01147 4.03082C8.82078 3.57335 8.54137 3.15819 8.18936 2.80931C6.70494 1.33345 4.29568 1.33345 2.81127 2.80931C2.45926 3.15819 2.17985 3.57335 1.98916 4.03082C1.79848 4.48828 1.7003 4.97899 1.7003 5.4746C1.7003 5.97021 1.79848 6.46092 1.98916 6.91838C2.17985 7.37585 2.45926 7.79101 2.81127 8.13989L5.50031 10.8133L8.18936 8.13989ZM2.14151 8.81393C1.70059 8.37675 1.35062 7.85657 1.11179 7.28343C0.872963 6.71028 0.75 6.09551 0.75 5.4746C0.75 4.85368 0.872963 4.23892 1.11179 3.66577C1.35062 3.09263 1.70059 2.57245 2.14151 2.13527C3.99643 0.291746 7.0042 0.291746 8.85865 2.13574C9.29956 2.57293 9.64953 3.0931 9.88836 3.66625C10.1272 4.23939 10.2502 4.85416 10.2502 5.47507C10.2502 6.09599 10.1272 6.71076 9.88836 7.2839C9.64953 7.85705 9.29956 8.37722 8.85865 8.81441L5.50031 12.1528L2.14151 8.81346V8.81393ZM5.50031 6.45265C5.75228 6.45265 5.99392 6.35256 6.17208 6.17439C6.35025 5.99623 6.45034 5.75459 6.45034 5.50263C6.45034 5.25066 6.35025 5.00902 6.17208 4.83086C5.99392 4.65269 5.75228 4.5526 5.50031 4.5526C5.24835 4.5526 5.00671 4.65269 4.82855 4.83086C4.65038 5.00902 4.55029 5.25066 4.55029 5.50263C4.55029 5.75459 4.65038 5.99623 4.82855 6.17439C5.00671 6.35256 5.24835 6.45265 5.50031 6.45265ZM5.50031 7.40267C5.25078 7.40269 5.00369 7.35356 4.77315 7.25808C4.54261 7.1626 4.33313 7.02265 4.15668 6.84621C3.98023 6.66978 3.84026 6.46031 3.74477 6.22978C3.64927 5.99924 3.60012 5.75216 3.60012 5.50263C3.60012 5.2531 3.64927 5.00601 3.74477 4.77548C3.84026 4.54494 3.98023 4.33548 4.15668 4.15904C4.33313 3.9826 4.54261 3.84265 4.77315 3.74717C5.00369 3.65169 5.25078 3.60256 5.50031 3.60258C6.00421 3.60262 6.48746 3.80282 6.84376 4.15914C7.20005 4.51546 7.40022 4.99873 7.40022 5.50263C7.40022 6.00652 7.20005 6.48979 6.84376 6.84611C6.48746 7.20243 6.00421 7.40263 5.50031 7.40267Z" fill="#494949"/>
</svg>
