<svg width="132" height="90" viewBox="0 0 132 90" fill="none" xmlns="http://www.w3.org/2000/svg">
<path fill-rule="evenodd" clip-rule="evenodd" d="M79.5765 84.1119L68.9718 61.7657L78.0158 42.7099L88.2837 64.3461H88.3783L109.781 19.2522C110.292 18.1752 109.829 16.8897 108.746 16.3811C108.457 16.2451 108.141 16.1745 107.821 16.1745H84.5804L52.3373 84.1116C50.4039 88.8988 44.9366 91.2199 40.1256 89.2961C37.8504 88.3862 36.0274 86.6287 35.0396 84.4046L34.9155 84.1119L0.827817 12.2874C-1.21966 7.97324 0.661645 2.83668 5.02983 0.814548C6.19007 0.277446 7.45574 -0.000976563 8.73711 -0.000976563L49.4165 -0.000976563C54.4994 -0.000976563 59.1236 2.9023 61.2807 7.44778L62.9418 10.9482L53.8973 30.0035L48.5075 18.6461C47.7913 17.1371 46.2647 16.1745 44.5876 16.1745H24.1815C22.9844 16.1745 22.014 17.1401 22.014 18.3313C22.014 18.6497 22.0849 18.9643 22.2216 19.2522L43.6232 64.3461H43.6291L56.9127 36.3586L56.9114 36.3551L65.9565 17.2998L65.9569 17.3009L70.6339 7.44735C72.791 2.9021 77.4152 -0.000976563 82.4978 -0.000976563L123.265 -0.000976563C128.089 -0.000976563 132 3.86143 132 8.62596C132 9.89147 131.718 11.1415 131.174 12.2874L97.0866 84.1116H97.0777L97.0666 84.1391C95.1091 88.9419 89.6095 91.2564 84.7828 89.3086C82.5093 88.3912 80.6886 86.6302 79.7006 84.4048L79.5765 84.1119Z" fill="white"/>
</svg>
