<svg xmlns="http://www.w3.org/2000/svg" width="60" height="60" viewBox="0 0 60 60"><g fill="none" fill-rule="evenodd"><rect width="60" height="60"/><path fill="#4C4C4C" fill-rule="nonzero" d="M37.5,0 L4.5,0 C2.015625,0 0,2.015625 0,4.5 L0,37.5 C0,39.984375 2.015625,42 4.5,42 L37.5,42 C39.984375,42 42,39.984375 42,37.5 L42,4.5 C42,2.015625 39.984375,0 37.5,0 Z M11.90625,33.046875 C11.390625,33.946875 10.2375,34.246875 9.346875,33.73125 C8.446875,33.215625 8.146875,32.0625 8.6625,31.171875 L10.003125,28.85625 C11.5125,28.396875 12.75,28.753125 13.715625,29.925 L11.90625,33.046875 Z M24.928125,27.99375 L7.875,27.99375 C6.84375,27.99375 6,27.15 6,26.11875 C6,25.0875 6.84375,24.24375 7.875,24.24375 L12.65625,24.24375 L18.7875,13.63125 L16.865625,10.3125 C16.35,9.4125 16.659375,8.26875 17.55,7.753125 C18.45,7.2375 19.59375,7.546875 20.109375,8.4375 L20.94375,9.88125 L21.778125,8.4375 C22.29375,7.5375 23.446875,7.2375 24.3375,7.753125 C25.2375,8.26875 25.5375,9.421875 25.021875,10.3125 L16.978125,24.24375 L22.8,24.24375 C24.69375,24.24375 25.753125,26.465625 24.928125,27.99375 L24.928125,27.99375 Z M34.125,27.99375 L31.40625,27.99375 L33.24375,31.171875 C33.759375,32.071875 33.45,33.215625 32.559375,33.73125 C31.659375,34.246875 30.515625,33.9375 30,33.046875 C26.915625,27.7125 24.609375,23.7 23.0625,21.0375 C21.496875,18.31875 22.6125,15.6 23.728125,14.68125 C24.95625,16.809375 26.79375,19.996875 29.25,24.24375 L34.125,24.24375 C35.15625,24.24375 36,25.0875 36,26.11875 C36,27.159375 35.15625,27.99375 34.125,27.99375 L34.125,27.99375 Z" transform="translate(9 9)"/></g></svg>