<svg xmlns="http://www.w3.org/2000/svg" width="12" height="12" viewBox="0 0 12 12"><path fill="#FFF" fill-rule="evenodd" d="M7.71555294,6.2893947 L12,10.574 L16.2844471,6.2893947 C16.644931,5.92891074 17.2121621,5.90118121 17.6044533,6.2062061 L17.6986606,6.2893947 L17.7106053,6.30133938 C18.1011296,6.69186367 18.1011296,7.32502865 17.7106053,7.71555294 L17.7106053,7.71555294 L13.426,12 L17.7106053,16.2844471 C18.1011296,16.6749713 18.1011296,17.3081363 17.7106053,17.6986606 L17.6986606,17.7106053 C17.3081363,18.1011296 16.6749713,18.1011296 16.2844471,17.7106053 L12,13.426 L7.71555294,17.7106053 C7.35506898,18.0710893 6.78783793,18.0988188 6.39554672,17.7937939 L6.30133938,17.7106053 L6.2893947,17.6986606 C5.89887041,17.3081363 5.89887041,16.6749713 6.2893947,16.2844471 L6.2893947,16.2844471 L10.574,12 L6.2893947,7.71555294 C5.89887041,7.32502865 5.89887041,6.69186367 6.2893947,6.30133938 L6.30133938,6.2893947 C6.69186367,5.89887041 7.32502865,5.89887041 7.71555294,6.2893947 Z" transform="translate(-6 -6)"/></svg>