<?xml version="1.0" encoding="UTF-8"?>
<svg width="180px" height="55px" viewBox="0 0 180 55" version="1.1" xmlns="http://www.w3.org/2000/svg" xmlns:xlink="http://www.w3.org/1999/xlink">
    <title>Oops!</title>
    <g id="页面-2" stroke="none" stroke-width="1" fill="none" fill-rule="evenodd">
        <g id="404" transform="translate(-581.000000, -137.000000)" fill="#313133" fill-rule="nonzero">
            <g id="编组-12" transform="translate(579.000000, 137.160000)">
                <g id="Oops!" transform="translate(2.390000, 0.000000)">
                    <path d="M23.34,43.68 C18.9,43.68 14.91,42.74 11.37,40.86 C7.83,38.98 5.05,36.38 3.03,33.06 C1.01,29.74 0,26 0,21.84 C0,17.68 1.01,13.94 3.03,10.62 C5.05,7.3 7.83,4.7 11.37,2.82 C14.91,0.94 18.9,0 23.34,0 C27.78,0 31.77,0.94 35.31,2.82 C38.85,4.7 41.63,7.3 43.65,10.62 C45.67,13.94 46.68,17.68 46.68,21.84 C46.68,26 45.67,29.74 43.65,33.06 C41.63,36.38 38.85,38.98 35.31,40.86 C31.77,42.74 27.78,43.68 23.34,43.68 Z M23.34,33.84 C25.46,33.84 27.38,33.34 29.1,32.34 C30.82,31.34 32.18,29.93 33.18,28.11 C34.18,26.29 34.68,24.2 34.68,21.84 C34.68,19.48 34.18,17.39 33.18,15.57 C32.18,13.75 30.82,12.34 29.1,11.34 C27.38,10.34 25.46,9.84 23.34,9.84 C21.22,9.84 19.3,10.34 17.58,11.34 C15.86,12.34 14.5,13.75 13.5,15.57 C12.5,17.39 12,19.48 12,21.84 C12,24.2 12.5,26.29 13.5,28.11 C14.5,29.93 15.86,31.34 17.58,32.34 C19.3,33.34 21.22,33.84 23.34,33.84 Z" id="形状"></path>
                    <path d="M68.7,43.38 C65.22,43.38 62.08,42.66 59.28,41.22 C56.48,39.78 54.29,37.78 52.71,35.22 C51.13,32.66 50.34,29.76 50.34,26.52 C50.34,23.32 51.13,20.44 52.71,17.88 C54.29,15.32 56.47,13.33 59.25,11.91 C62.03,10.49 65.18,9.78 68.7,9.78 C72.22,9.78 75.38,10.49 78.18,11.91 C80.98,13.33 83.16,15.31 84.72,17.85 C86.28,20.39 87.06,23.28 87.06,26.52 C87.06,29.76 86.28,32.66 84.72,35.22 C83.16,37.78 80.98,39.78 78.18,41.22 C75.38,42.66 72.22,43.38 68.7,43.38 Z M68.7,34.32 C70.7,34.32 72.34,33.63 73.62,32.25 C74.9,30.87 75.54,28.96 75.54,26.52 C75.54,24.12 74.9,22.24 73.62,20.88 C72.34,19.52 70.7,18.84 68.7,18.84 C66.7,18.84 65.06,19.52 63.78,20.88 C62.5,22.24 61.86,24.12 61.86,26.52 C61.86,28.96 62.5,30.87 63.78,32.25 C65.06,33.63 66.7,34.32 68.7,34.32 Z" id="形状"></path>
                    <path d="M112.8,9.78 C115.76,9.78 118.45,10.47 120.87,11.85 C123.29,13.23 125.21,15.19 126.63,17.73 C128.05,20.27 128.76,23.22 128.76,26.58 C128.76,29.94 128.05,32.89 126.63,35.43 C125.21,37.97 123.29,39.93 120.87,41.31 C118.45,42.69 115.76,43.38 112.8,43.38 C109,43.38 105.98,42.24 103.74,39.96 L103.74,54.48 L92.34,54.48 L92.34,10.32 L103.2,10.32 L103.2,13.56 C105.32,11.04 108.52,9.78 112.8,9.78 Z M110.4,34.32 C112.4,34.32 114.04,33.63 115.32,32.25 C116.6,30.87 117.24,28.98 117.24,26.58 C117.24,24.18 116.6,22.29 115.32,20.91 C114.04,19.53 112.4,18.84 110.4,18.84 C108.4,18.84 106.76,19.53 105.48,20.91 C104.2,22.29 103.56,24.18 103.56,26.58 C103.56,28.98 104.2,30.87 105.48,32.25 C106.76,33.63 108.4,34.32 110.4,34.32 Z" id="形状"></path>
                    <path d="M145.86,43.38 C143.14,43.38 140.46,43.07 137.82,42.45 C135.18,41.83 133.06,41.02 131.46,40.02 L134.88,32.22 C136.36,33.14 138.12,33.87 140.16,34.41 C142.2,34.95 144.22,35.22 146.22,35.22 C148.06,35.22 149.37,35.03 150.15,34.65 C150.93,34.27 151.32,33.72 151.32,33 C151.32,32.28 150.85,31.77 149.91,31.47 C148.97,31.17 147.48,30.88 145.44,30.6 C142.84,30.28 140.63,29.86 138.81,29.34 C136.99,28.82 135.42,27.86 134.1,26.46 C132.78,25.06 132.12,23.1 132.12,20.58 C132.12,18.5 132.74,16.65 133.98,15.03 C135.22,13.41 137.03,12.13 139.41,11.19 C141.79,10.25 144.64,9.78 147.96,9.78 C150.32,9.78 152.66,10.02 154.98,10.5 C157.3,10.98 159.24,11.66 160.8,12.54 L157.38,20.28 C154.5,18.68 151.38,17.88 148.02,17.88 C146.22,17.88 144.9,18.09 144.06,18.51 C143.22,18.93 142.8,19.48 142.8,20.16 C142.8,20.92 143.26,21.45 144.18,21.75 C145.1,22.05 146.62,22.36 148.74,22.68 C151.42,23.08 153.64,23.54 155.4,24.06 C157.16,24.58 158.69,25.53 159.99,26.91 C161.29,28.29 161.94,30.22 161.94,32.7 C161.94,34.74 161.32,36.57 160.08,38.19 C158.84,39.81 157.01,41.08 154.59,42 C152.17,42.92 149.26,43.38 145.86,43.38 Z" id="路径"></path>
                    <path d="M165.48,0.84 L179.04,0.84 L176.76,27.54 L167.7,27.54 L165.48,0.84 Z M172.26,43.38 C170.26,43.38 168.62,42.77 167.34,41.55 C166.06,40.33 165.42,38.84 165.42,37.08 C165.42,35.28 166.06,33.8 167.34,32.64 C168.62,31.48 170.26,30.9 172.26,30.9 C174.26,30.9 175.89,31.48 177.15,32.64 C178.41,33.8 179.04,35.28 179.04,37.08 C179.04,38.84 178.4,40.33 177.12,41.55 C175.84,42.77 174.22,43.38 172.26,43.38 Z" id="形状"></path>
                </g>
            </g>
        </g>
    </g>
</svg>