<?xml version="1.0" encoding="UTF-8"?>
<svg width="15px" height="17px" viewBox="0 0 15 17" version="1.1" xmlns="http://www.w3.org/2000/svg" xmlns:xlink="http://www.w3.org/1999/xlink">
    <title>安全</title>
    <g id="页面-1" stroke="none" stroke-width="1" fill="none" fill-rule="evenodd">
        <g id="支付PC端" transform="translate(-437.000000, -786.000000)">
            <g id="安全" transform="translate(437.000000, 786.000000)">
                <path d="M6.95113637,0.112292152 L0.81477274,2.72997135 C0.31984759,2.94121625 0.000227091737,3.41635359 0,3.94118573 L0,8.04376079 C0,10.5565342 1.15772727,12.8019139 3.19772728,14.3493561 L6.71386364,16.7578857 C7.18520133,17.0807048 7.81479867,17.0807048 8.28613636,16.7578857 L11.7756818,14.3685502 C13.8422727,12.801583 15,10.5562033 15,8.04376079 L15,3.94151665 C15,3.41644435 14.6803788,2.940982 14.1852273,2.72964041 L8.04886363,0.111961232 C7.69911215,-0.0373204106 7.30088785,-0.0373204106 6.95113637,0.111961232 L6.95113637,0.112292152 Z M1.36363637,3.94151665 L7.5,1.32383748 L13.6363636,3.94151665 L13.6363636,8.04376079 C13.6363636,10.1438609 12.6760227,12.0066822 10.9626136,13.3062557 L7.5,15.6760661 L4.01045455,13.2867306 C2.32397728,12.0056894 1.36363637,10.1431991 1.36363637,8.04309893 L1.36363637,3.94151665 Z" id="形状" fill="#8B97AF" fill-rule="nonzero"></path>
                <line x1="4.5" y1="7.5" x2="10.5" y2="7.5" id="直线-2" stroke="#8B97AF" stroke-linecap="square"></line>
                <line x1="4.5" y1="7.5" x2="10.5" y2="7.5" id="直线-2" stroke="#8B97AF" stroke-linecap="square" transform="translate(7.500000, 7.500000) rotate(90.000000) translate(-7.500000, -7.500000) "></line>
            </g>
        </g>
    </g>
</svg>