<?xml version="1.0" encoding="UTF-8"?>
<svg width="45px" height="45px" viewBox="0 0 45 45" version="1.1" xmlns="http://www.w3.org/2000/svg" xmlns:xlink="http://www.w3.org/1999/xlink">
    <title>mdpi/编组 13备份 3</title>
    <g id="教育页面" stroke="none" stroke-width="1" fill="none" fill-rule="evenodd">
        <g id="教育页面移动端" transform="translate(-258.000000, -676.000000)">
            <g id="编组-13备份-3" transform="translate(258.000000, 676.000000)">
                <circle id="椭圆形" fill="#E5E5E5" cx="22.5" cy="22.5" r="22.5"></circle>
                <g id="lianjie" transform="translate(11.096138, 10.837270)" fill="#434344" fill-rule="nonzero">
                    <path d="M14.2334231,8.78852866 C14.0587285,8.6138919 13.8725206,8.45646716 13.6806429,8.3104978 L13.6802958,8.31081599 C13.4828062,8.12087648 13.214646,8.00389269 12.9190045,8.00389269 C12.3122163,8.00389269 11.820358,8.49577995 11.820358,9.10253923 C11.820358,9.37101756 11.9168031,9.61693226 12.0768024,9.80776854 L12.0767735,9.80776854 C12.0768024,9.80779746 12.0768603,9.80785533 12.0769181,9.80788425 C12.1537791,9.89955624 12.2452197,9.97858683 12.3478842,10.0411575 C12.4514744,10.1265811 12.5531555,10.210703 12.6482409,10.3057885 L12.7388137,10.3963901 C13.8774673,11.5336263 13.5375374,13.4929598 12.3988838,14.6316423 L7.5400075,19.4890723 C6.40138284,20.6263084 4.55023905,20.6263084 3.41155654,19.4890723 L3.32026062,19.3977185 C2.18154917,18.2590938 2.18154917,16.4065905 3.32026062,15.2707139 L5.4668723,13.1248254 C5.74229328,12.9062185 5.91909963,12.5688054 5.91909963,12.1899099 C5.91909963,11.5308782 5.38486217,10.9966407 4.72583045,10.9966407 C4.4771387,10.9966407 4.24629534,11.0727785 4.05514087,11.2029244 C4.0545334,11.2016516 4.05389698,11.2004367 4.05326056,11.1991349 L4.03037873,11.2205414 C3.94588082,11.2812897 3.86948265,11.3525387 3.80349847,11.4328421 L1.57270707,13.5202676 C-0.524235689,15.6186567 -0.524235689,19.0505857 1.57270707,21.1460531 L1.66327982,21.2365969 C3.76022257,23.3320933 7.19067616,23.3320933 9.28761892,21.2365969 L14.1450489,16.3777206 C16.2390988,14.2808935 16.4166573,10.9731514 14.3226363,8.87765501 L14.2334231,8.78852866 Z" id="路径"></path>
                    <path d="M21.2352084,1.66327982 L21.1446356,1.57270707 C19.0477218,-0.524235689 15.6172682,-0.524235689 13.5203254,1.57270707 L8.66289549,6.43155449 C6.56595274,8.52849724 6.45047322,11.5565949 8.54741597,13.6548973 L8.63654232,13.7426641 C8.73177243,13.8378652 8.8306185,13.927628 8.93151845,14.013717 C9.00456098,14.0952932 9.09036065,14.1651247 9.18573541,14.2203478 C9.18645861,14.2209263 9.18721074,14.2215338 9.18793391,14.2221124 L9.18825211,14.2218231 C9.34026736,14.3092427 9.51640837,14.3595191 9.70438079,14.3595191 C10.2772078,14.3595191 10.7415559,13.8951132 10.7415559,13.3223441 C10.7415559,13.1606669 10.7045284,13.0076392 10.6385153,12.871216 L10.6385153,12.871216 C10.5013978,12.5633381 10.244722,12.3759153 10.0671925,12.1983568 L9.97803717,12.1106479 C8.8394125,10.9720233 9.27179537,9.31779062 10.4104201,8.17916593 L15.2707139,3.32170705 C16.4065326,2.18302452 18.2583127,2.18302452 19.3969952,3.32170705 L19.4876258,3.4108334 C20.6262794,4.54954485 20.6262794,6.40277141 19.4876258,7.54000756 L17.3480436,9.68103619 C17.0569727,9.89669248 16.8682192,10.2426104 16.8682192,10.6326431 C16.8682192,11.2863231 17.3981464,11.8162793 18.0518555,11.8162793 C18.2793721,11.8162793 18.4918174,11.751944 18.6722108,11.6406879 C18.6735704,11.6430021 18.6748432,11.6451428 18.6762028,11.6474859 L18.7093829,11.6168515 C18.8116135,11.5484085 18.9024177,11.4643734 18.978758,11.3683043 L21.2336751,9.28761897 C23.3321511,7.19070508 23.3321511,3.76019363 21.2352084,1.66327982 Z" id="路径"></path>
                </g>
            </g>
        </g>
    </g>
</svg>