<svg width="9" height="8" viewBox="0 0 9 8" fill="none" xmlns="http://www.w3.org/2000/svg">
<path fill-rule="evenodd" clip-rule="evenodd" d="M3.0564 0.0766655C2.99714 -0.025555 2.84953 -0.0255552 2.79027 0.0766652L2.32798 0.874055C1.97835 1.47714 1.47714 1.97835 0.874056 2.32798L0.0766654 2.79027C-0.0255551 2.84953 -0.0255552 2.99714 0.0766653 3.0564L0.874054 3.51868C1.47714 3.86832 1.97835 4.36953 2.32798 4.97261L2.79027 5.77C2.84953 5.87222 2.99714 5.87222 3.0564 5.77L3.51868 4.97261C3.86832 4.36953 4.36953 3.86832 4.97261 3.51868L5.77 3.0564C5.87222 2.99714 5.87222 2.84953 5.77 2.79027L4.97261 2.32798C4.36953 1.97835 3.86832 1.47714 3.51868 0.874055L3.0564 0.0766655ZM6.59402 4.07571C6.53475 3.97349 6.38715 3.97349 6.32789 4.07571L6.0401 4.57211C5.79805 4.98962 5.45105 5.33662 5.03354 5.57867L4.53714 5.86646C4.43492 5.92572 4.43492 6.07332 4.53714 6.13259L5.03354 6.42037C5.45105 6.66243 5.79805 7.00942 6.0401 7.42694L6.32789 7.92333C6.38715 8.02556 6.53475 8.02556 6.59402 7.92333L6.8818 7.42694C7.12386 7.00942 7.47085 6.66243 7.88837 6.42037L8.38476 6.13259C8.48698 6.07332 8.48698 5.92572 8.38476 5.86646L7.88837 5.57867C7.47085 5.33662 7.12386 4.98962 6.8818 4.57211L6.59402 4.07571Z" fill="url(#paint0_linear_312_654)"/>
<defs>
<linearGradient id="paint0_linear_312_654" x1="4.23071" y1="0" x2="4.23071" y2="8" gradientUnits="userSpaceOnUse">
<stop stop-color="#956AFF"/>
<stop offset="1" stop-color="#FF2B37"/>
</linearGradient>
</defs>
</svg>
