<svg width="32" height="32" viewBox="0 0 32 32" fill="none" xmlns="http://www.w3.org/2000/svg">
<circle cx="16" cy="16" r="15" stroke="#333333" stroke-width="2" stroke-linecap="round" stroke-linejoin="round"/>
<path d="M12 9C12.8284 9 13.5 9.67157 13.5 10.5V21.5C13.5 22.3284 12.8284 23 12 23C11.1716 23 10.5 22.3284 10.5 21.5V10.5C10.5 9.67157 11.1716 9 12 9ZM20 9C20.8284 9 21.5 9.67157 21.5 10.5V21.5C21.5 22.3284 20.8284 23 20 23C19.1716 23 18.5 22.3284 18.5 21.5V10.5C18.5 9.67157 19.1716 9 20 9Z" fill="#333333"/>
</svg>
