<svg xmlns="http://www.w3.org/2000/svg" width="36" height="36" viewBox="0 0 36 36"><g fill="none" fill-rule="evenodd"><rect width="36" height="36" fill="#4991F2" rx="6"/><path fill="#FFF" d="M25.7934783,10 C26.4598218,10 27,10.5401782 27,11.2065217 L27,25.2934783 C27,25.9598218 26.4598218,26.5 25.7934783,26.5 C25.5277557,26.5 25.2820963,26.4140991 25.0827547,26.2685519 C24.8596833,26.2183708 24.6492539,26.0999491 24.4859923,25.9151444 C24.4748004,25.9024757 24.4638953,25.8895565 24.4532854,25.8763965 L17.768,17.585 L11.0844518,25.8763965 C11.0738419,25.8895565 11.0629368,25.9024757 11.0517449,25.9151444 C10.875364,26.1147995 10.6439304,26.2369742 10.4003571,26.2790124 L10.3810995,26.293945 C10.1885374,26.4240374 9.95640057,26.5 9.70652174,26.5 C9.04017818,26.5 8.5,25.9598218 8.5,25.2934783 L8.5,11.2065217 C8.5,10.5401782 9.04017818,10 9.70652174,10 C10.3728653,10 10.9130435,10.5401782 10.9130435,11.2065217 L10.913,22.34 L16.811981,15.0242695 C16.817286,15.0176895 16.8226647,15.0111697 16.8281162,15.0047113 L16.8446879,14.9855216 C17.0860764,14.7122809 17.4305769,14.5841584 17.768191,14.6079623 C18.106478,14.5839048 18.4514218,14.7120103 18.6930493,14.9855216 C18.7042411,14.9981903 18.7151462,15.0111095 18.7257562,15.0242695 L24.586,22.293 L24.5869565,11.2065217 C24.5869565,10.5401782 25.1271347,10 25.7934783,10 Z"/></g></svg>