<svg xmlns="http://www.w3.org/2000/svg" width="36" height="36" viewBox="0 0 36 36"><g fill="none" fill-rule="evenodd"><rect width="36" height="36" fill="#F46D43" rx="6"/><path fill="#FFF" d="M22.7272727,9.5 C25.3807648,9.60823579 27.5,11.7924264 27.5,14.4715909 C27.5,17.2173248 25.2741429,19.4431818 22.5284091,19.4431818 L22.727,19.438 L22.7272727,19.4431818 L12.386,19.443 L12.3863636,25.8068182 C12.3863636,26.4657943 11.8521579,27 11.1931818,27 C10.5342057,27 10,26.4657943 10,25.8068182 L10,18.25 C10,17.5910239 10.5342057,17.0568182 11.1931818,17.0568182 C11.3686184,17.0568182 11.5352117,17.0946807 11.685236,17.16268 C11.9062376,17.0935439 12.1420118,17.0568182 12.3863636,17.0568182 L22.7272727,17.0568182 C24.0625698,16.9472769 25.1136364,15.8321788 25.1136364,14.4715909 C25.1136364,13.111003 24.0625698,11.9959049 22.7281016,11.8939617 L22.7272727,11.8863636 L11.1931818,11.8863636 C10.5342057,11.8863636 10,11.3521579 10,10.6931818 C10,10.0342057 10.5342057,9.5 11.1931818,9.5 L22.7272727,9.5 Z"/></g></svg>