<?xml version="1.0" encoding="UTF-8"?>
<svg width="45px" height="45px" viewBox="0 0 45 45" version="1.1" xmlns="http://www.w3.org/2000/svg" xmlns:xlink="http://www.w3.org/1999/xlink">
    <title>mdpi/Twitter</title>
    <defs>
        <circle id="path-1" cx="22.5" cy="22.5" r="22.5"></circle>
    </defs>
    <g id="教育页面" stroke="none" stroke-width="1" fill="none" fill-rule="evenodd">
        <g id="教育页面移动端" transform="translate(-124.000000, -676.000000)">
            <g id="位图" transform="translate(124.000000, 676.000000)">
                <mask id="mask-2" fill="white">
                    <use xlink:href="#path-1"></use>
                </mask>
                <use id="蒙版" fill="#E5E5E5" xlink:href="#path-1"></use>
                <g id="twitter" mask="url(#mask-2)" fill="#434344" fill-rule="nonzero">
                    <g transform="translate(7.842002, 10.356776)" id="路径">
                        <path d="M30.584652,2.9515053 C29.459919,3.43668425 28.2359448,3.78586607 26.9752147,3.9218632 C28.2763764,3.146312 29.2651123,1.92233782 29.7319133,0.466800962 C28.5299927,1.1835426 27.1700214,1.70915313 25.7549161,1.98114739 C24.6081295,0.757173215 22.9798395,0 21.1751208,0 C17.7016806,0 14.908226,2.81550817 14.908226,6.27057041 C14.908226,6.75574936 14.9670356,7.24092832 15.0626011,7.70772928 C9.86162978,7.43573502 5.22302494,4.95103068 2.13919811,1.14678662 C1.59520959,2.08038854 1.28645935,3.146312 1.28645935,4.31147661 C1.28645935,6.4874307 2.39281438,8.40609292 4.07991392,9.53450155 C3.05074645,9.49406997 2.08038854,9.20369772 1.24602777,8.73689675 L1.24602777,8.81408431 C1.24602777,11.8611552 3.39992827,14.3862911 6.27057041,14.9670356 C5.74495988,15.1030327 5.18259336,15.1802203 4.62022685,15.1802203 C4.21223546,15.1802203 3.82629765,15.1397887 3.43668425,15.0846547 C4.23061345,17.5693591 6.54256467,19.3740777 9.29558767,19.4328873 C7.14168717,21.1199869 4.44379814,22.1123983 1.51434643,22.1123983 C0.988735897,22.1123983 0.503556944,22.0940204 -5.2233391e-16,22.0352108 C2.77875219,23.8178759 6.07576371,24.8470434 9.6263915,24.8470434 C21.1530672,24.8470434 27.4603936,15.2978394 27.4603936,7.00936563 C27.4603936,6.73737137 27.4603936,6.46537711 27.4420156,6.19338285 C28.6623142,5.3002125 29.7319133,4.19385747 30.584652,2.9515053 Z"></path>
                    </g>
                </g>
            </g>
        </g>
    </g>
</svg>