<svg width="22" height="26" viewBox="0 0 22 26" fill="none" xmlns="http://www.w3.org/2000/svg">
<path d="M15.7216 11.0534L12.86 10.7993L11.0051 3.26693L9.60446 10.7993L6.4961 11.3411L21.5826 12.7692C21.7231 12.7825 21.8305 12.9005 21.8305 13.0416V14.7749C21.8305 15.3127 21.4398 15.7708 20.9088 15.8558L15.0603 16.7917L12.8926 24.9818C12.7337 25.582 12.1907 26 11.5698 26H9.58104C9.45829 26 9.35055 25.9183 9.31748 25.8001L6.2803 14.9424L9.16185 15.1963L10.9882 22.75L12.86 14.9889L15.7216 14.5573L0.415437 13.1957C0.274248 13.1831 0.166016 13.0648 0.166016 12.9231L0.166016 11.2048C0.166016 10.6741 0.546713 10.2198 1.06926 10.127L7.33772 9.01361L9.13246 1.06691C9.27336 0.443043 9.82762 0 10.4672 0L12.4197 0C12.5425 0 12.6502 0.0817071 12.6833 0.199895L15.7216 11.0534Z" fill="white"/>
<mask id="mask0_762_13838" style="mask-type:alpha" maskUnits="userSpaceOnUse" x="0" y="0" width="22" height="26">
<path d="M15.7216 11.0534L12.86 10.7993L11.0051 3.26693L9.60446 10.7993L6.4961 11.3411L21.5826 12.7692C21.7231 12.7825 21.8305 12.9005 21.8305 13.0416V14.7749C21.8305 15.3127 21.4398 15.7708 20.9088 15.8558L15.0603 16.7917L12.8926 24.9818C12.7337 25.582 12.1907 26 11.5698 26H9.58104C9.45829 26 9.35055 25.9183 9.31748 25.8001L6.2803 14.9424L9.16185 15.1963L10.9882 22.75L12.86 14.9889L15.7216 14.5573L0.415437 13.1957C0.274248 13.1831 0.166016 13.0648 0.166016 12.9231L0.166016 11.2048C0.166016 10.6741 0.546713 10.2198 1.06926 10.127L7.33772 9.01361L9.13246 1.06691C9.27336 0.443043 9.82762 0 10.4672 0L12.4197 0C12.5425 0 12.6502 0.0817071 12.6833 0.199895L15.7216 11.0534Z" fill="white"/>
</mask>
<g mask="url(#mask0_762_13838)">
<path d="M11.5313 0.337861L11.0039 3.27116L12.853 10.7952L15.7219 11.0534L12.633 0L11.9353 0C11.7366 0 11.5665 0.142303 11.5313 0.337861Z" fill="url(#paint0_linear_762_13838)"/>
<path d="M10.4579 25.6621L10.9854 22.7288L9.16164 15.1963L6.27164 14.9382L9.36898 26H10.0539C10.2526 26 10.4228 25.8577 10.4579 25.6621Z" fill="url(#paint1_linear_762_13838)"/>
</g>
<defs>
<linearGradient id="paint0_linear_762_13838" x1="14.575" y1="10.662" x2="11.0555" y2="2.14533" gradientUnits="userSpaceOnUse">
<stop stop-color="white"/>
<stop offset="1" stop-color="#E6CAFB"/>
</linearGradient>
<linearGradient id="paint1_linear_762_13838" x1="7.41746" y1="15.3299" x2="10.9438" y2="23.8489" gradientUnits="userSpaceOnUse">
<stop stop-color="white"/>
<stop offset="1" stop-color="#E6CAFB"/>
</linearGradient>
</defs>
</svg>
