<svg width="24" height="24" viewBox="0 0 24 24" fill="none" xmlns="http://www.w3.org/2000/svg">
<circle cx="12" cy="12" r="12" fill="#5865F2"/>
<g clip-path="url(#clip0_1125_44387)">
<path d="M16.8593 7.47794C15.9531 7.05393 14.9841 6.74578 13.971 6.57031C13.8466 6.79525 13.7013 7.0978 13.601 7.33848C12.5241 7.17652 11.4571 7.17652 10.4 7.33848C10.2998 7.0978 10.1512 6.79525 10.0256 6.57031C9.01147 6.74578 8.04136 7.05506 7.13511 7.48018C5.30721 10.2424 4.81169 12.936 5.05945 15.5913C6.27181 16.4967 7.44674 17.0467 8.60184 17.4066C8.88704 17.014 9.14139 16.5968 9.36052 16.157C8.94319 15.9985 8.54347 15.8028 8.16579 15.5756C8.26599 15.5014 8.364 15.4238 8.45869 15.3439C10.7623 16.4213 13.2652 16.4213 15.5413 15.3439C15.6371 15.4238 15.7351 15.5014 15.8342 15.5756C15.4554 15.8039 15.0546 15.9996 14.6372 16.1582C14.8563 16.5968 15.1096 17.0152 15.3959 17.4077C16.5521 17.0478 17.7281 16.4978 18.9405 15.5913C19.2312 12.5131 18.4439 9.84425 16.8593 7.47794ZM9.67435 13.9583C8.98284 13.9583 8.41574 13.3127 8.41574 12.5266C8.41574 11.7404 8.97073 11.0938 9.67435 11.0938C10.378 11.0938 10.9451 11.7393 10.933 12.5266C10.9341 13.3127 10.378 13.9583 9.67435 13.9583ZM14.3256 13.9583C13.6341 13.9583 13.067 13.3127 13.067 12.5266C13.067 11.7404 13.622 11.0938 14.3256 11.0938C15.0292 11.0938 15.5963 11.7393 15.5842 12.5266C15.5842 13.3127 15.0292 13.9583 14.3256 13.9583Z" fill="white"/>
</g>
<defs>
<clipPath id="clip0_1125_44387">
<rect width="14" height="14" fill="white" transform="translate(5 5)"/>
</clipPath>
</defs>
</svg>
