<svg xmlns="http://www.w3.org/2000/svg" width="82" height="69" viewBox="0 0 82 69"><g fill="none" fill-rule="evenodd"><rect width="82" height="69" fill="#FFF" rx="12"/><g transform="translate(13.238 16.233)"><path fill="#4C4C4C" fill-rule="nonzero" d="M0 16.524C0 14.436.378 12.612 1.134 11.052 1.89 9.492 2.922 8.292 4.23 7.452 5.538 6.612 6.996 6.192 8.604 6.192 9.996 6.192 11.196 6.468 12.204 7.02 13.212 7.572 13.992 8.316 14.544 9.252L14.544 6.444 21.6 6.444 21.6 26.64 14.544 26.64 14.544 23.832C13.992 24.768 13.206 25.512 12.186 26.064 11.166 26.616 9.972 26.892 8.604 26.892 6.996 26.892 5.538 26.472 4.23 25.632 2.922 24.792 1.89 23.586 1.134 22.014.378 20.442 0 18.612 0 16.524ZM14.544 16.524C14.544 15.228 14.19 14.208 13.482 13.464 12.774 12.72 11.904 12.348 10.872 12.348 9.816 12.348 8.94 12.714 8.244 13.446 7.548 14.178 7.2 15.204 7.2 16.524 7.2 17.82 7.548 18.846 8.244 19.602 8.94 20.358 9.816 20.736 10.872 20.736 11.904 20.736 12.774 20.364 13.482 19.62 14.19 18.876 14.544 17.844 14.544 16.524ZM32.688 9.252C33.24 8.292 34.02 7.542 35.028 7.002 36.036 6.462 37.224 6.192 38.592 6.192 40.2 6.192 41.658 6.612 42.966 7.452 44.274 8.292 45.306 9.492 46.062 11.052 46.818 12.612 47.196 14.436 47.196 16.524 47.196 18.612 46.818 20.442 46.062 22.014 45.306 23.586 44.274 24.792 42.966 25.632 41.658 26.472 40.2 26.892 38.592 26.892 37.224 26.892 36.036 26.622 35.028 26.082 34.02 25.542 33.24 24.792 32.688 23.832L32.688 26.64 25.632 26.64 25.632 0 32.688 0 32.688 9.252ZM40.032 16.524C40.032 15.204 39.678 14.178 38.97 13.446 38.262 12.714 37.392 12.348 36.36 12.348 35.328 12.348 34.458 12.72 33.75 13.464 33.042 14.208 32.688 15.228 32.688 16.524 32.688 17.844 33.042 18.876 33.75 19.62 34.458 20.364 35.328 20.736 36.36 20.736 37.392 20.736 38.262 20.358 38.97 19.602 39.678 18.846 40.032 17.82 40.032 16.524Z" transform="translate(2.864)"/><rect width="5" height="23" x="44.348" y="11.181" fill="#4C4C4C" rx="2.5" transform="rotate(45 46.848 22.681)"/><rect width="51" height="10" y="26.767" fill="#FFC600"/></g></g></svg>