<svg width="33" height="32" viewBox="0 0 33 32" fill="none" xmlns="http://www.w3.org/2000/svg">
<path d="M18.8299 14.5703L19.9948 3.19937C20.0228 2.92652 19.8272 2.68236 19.5581 2.65403C19.408 2.63823 19.2592 2.69337 19.1546 2.80351L5.97039 16.681C5.78268 16.8786 5.78851 17.193 5.98341 17.3833C6.07471 17.4724 6.19654 17.5222 6.32329 17.5222H13.3763L12.1648 29.1334C12.1364 29.4062 12.3315 29.6507 12.6006 29.6796C12.7509 29.6957 12.9001 29.6406 13.005 29.5302L26.42 15.4116C26.6077 15.214 26.6019 14.8996 26.407 14.7093C26.3157 14.6201 26.1939 14.5703 26.0671 14.5703H18.8299Z" fill="url(#paint0_linear_530_11717)"/>
<path d="M18.8294 14.5692L19.9943 3.19824L17.8841 14.5692H18.8294Z" fill="url(#paint1_linear_530_11717)"/>
<path d="M14.2804 17.5215H13.3761L12.1647 29.1326L14.2804 17.5215Z" fill="url(#paint2_linear_530_11717)"/>
<defs>
<linearGradient id="paint0_linear_530_11717" x1="28.6047" y1="51.2235" x2="1.12232" y2="49.9542" gradientUnits="userSpaceOnUse">
<stop offset="0.0404752" stop-color="#894EF8"/>
<stop offset="0.488332" stop-color="#2567FF"/>
<stop offset="1" stop-color="#45C5FF"/>
</linearGradient>
<linearGradient id="paint1_linear_530_11717" x1="18.9367" y1="3.19824" x2="18.9367" y2="14.5692" gradientUnits="userSpaceOnUse">
<stop stop-color="white" stop-opacity="0"/>
<stop offset="0.90625" stop-color="#9CC8F1" stop-opacity="0.5"/>
</linearGradient>
<linearGradient id="paint2_linear_530_11717" x1="12.9819" y1="17.5215" x2="12.9819" y2="29.1326" gradientUnits="userSpaceOnUse">
<stop offset="0.0729167" stop-color="#9CC8F1" stop-opacity="0.5"/>
<stop offset="1" stop-color="white" stop-opacity="0"/>
</linearGradient>
</defs>
</svg>
