<svg width="24" height="24" viewBox="0 0 24 24" fill="none" xmlns="http://www.w3.org/2000/svg">
<path fill-rule="evenodd" clip-rule="evenodd" d="M16.756 8.41342C17.5929 8.41342 18.2714 7.735 18.2714 6.89812C18.2714 6.06124 17.5929 5.38281 16.756 5.38281C15.9192 5.38281 15.2407 6.06124 15.2407 6.89812C15.2407 7.735 15.9192 8.41342 16.756 8.41342ZM7.75641 6.66904C8.26531 5.48162 9.94867 5.48163 10.4576 6.66905L14.9708 17.1999C15.1306 17.5728 14.9579 18.0047 14.5849 18.1646C14.212 18.3244 13.7801 18.1516 13.6202 17.7787L9.10699 7.24787L4.59377 17.7787C4.43393 18.1516 4.00202 18.3244 3.62906 18.1646C3.25611 18.0047 3.08335 17.5728 3.24319 17.1999L7.75641 6.66904ZM17.4395 9.93053C17.8144 9.77535 18.2441 9.95349 18.3993 10.3284L21.036 16.699C21.3363 17.4246 20.803 18.2225 20.0178 18.2225H17.2612C16.8555 18.2225 16.5266 17.8936 16.5266 17.4878C16.5266 17.082 16.8555 16.7531 17.2612 16.7531H19.4681L17.0416 10.8903C16.8864 10.5154 17.0645 10.0857 17.4395 9.93053Z" fill="white"/>
</svg>
