<svg width="24" height="24" viewBox="0 0 24 24" fill="none" xmlns="http://www.w3.org/2000/svg">
<path d="M7.32129 19.2042L10.4283 22.3734C10.5273 22.4743 10.6891 22.4765 10.7907 22.3782L17.1429 16.2344" stroke="white" stroke-width="1.28571" stroke-linecap="round"/>
<path fill-rule="evenodd" clip-rule="evenodd" d="M16.5713 6.13281C17.9323 6.13281 19.0463 7.19014 19.1368 8.52819L19.1427 8.70424V8.98996C19.1427 9.30555 18.8869 9.56138 18.5713 9.56138C18.2908 9.56138 18.0575 9.35924 18.0091 9.09267L17.9999 8.98996V8.70424C17.9999 7.91526 17.3603 7.27567 16.5713 7.27567C15.8316 7.27567 15.2233 7.83781 15.1501 8.55818L15.1427 8.70424V11.5614C15.1427 12.3504 15.7823 12.99 16.5713 12.99C17.311 12.99 17.9193 12.4278 17.9925 11.7074L17.9999 11.5614V11.2757C17.9999 10.9601 18.2557 10.7042 18.5713 10.7042C18.8518 10.7042 19.0851 10.9064 19.1335 11.173L19.1427 11.2757V11.5614C19.1427 12.9815 17.9914 14.1328 16.5713 14.1328C15.2103 14.1328 14.0963 13.0755 14.0058 11.7374L13.9999 11.5614V8.70424C13.9999 7.28408 15.1511 6.13281 16.5713 6.13281ZM9.99946 6.13281C11.2618 6.13281 12.2852 7.15616 12.2852 8.41853C12.2852 8.86117 12.1593 9.27443 11.9415 9.62449L11.8251 9.79409L11.748 9.88824L11.8155 9.92963C12.3445 10.2737 12.7223 10.8308 12.8272 11.4793L12.8503 11.6765L12.8566 11.8471C12.8566 13.0521 11.9242 14.0393 10.7415 14.1265L10.5709 14.1328H8.28517C8.00465 14.1328 7.77133 13.9307 7.72295 13.6641L7.71374 13.5614V6.70424C7.71374 6.42372 7.91589 6.1904 8.18246 6.14202L8.28517 6.13281H9.99946ZM4.21394 6.42629L4.25585 6.52354L6.54156 13.3807C6.64136 13.6801 6.47956 14.0037 6.18016 14.1035C5.91403 14.1922 5.62877 14.0742 5.49857 13.8366L5.45735 13.7421L4.82445 11.8471H2.60159L1.97013 13.7421C1.88142 14.0082 1.61587 14.1656 1.34768 14.1272L1.24733 14.1035C0.981197 14.0148 0.823781 13.7492 0.862177 13.481L0.885924 13.3807L3.17164 6.52354C3.33372 6.0373 3.98644 6.00489 4.21394 6.42629ZM10.5699 10.7031H8.85547L8.85562 12.9888H10.5699C11.2011 12.9888 11.7128 12.4772 11.7128 11.846C11.7128 11.2599 11.2716 10.7768 10.7032 10.7108L10.5699 10.7031ZM3.71401 8.50781L2.98242 10.6998H4.44414L3.71401 8.50781ZM9.99848 7.28125H8.85562L8.85547 9.56696H9.99848L10.1318 9.55928C10.7001 9.49326 11.1413 9.01021 11.1413 8.42411C11.1413 7.83801 10.7001 7.35496 10.1318 7.28894L9.99848 7.28125Z" fill="white"/>
<path d="M20.6244 0.851562L21.1376 2.37068C21.3599 3.02857 21.8388 3.56859 22.4654 3.86792L23.3914 4.31027L22.4654 4.75262C21.8388 5.05194 21.3599 5.59197 21.1376 6.24986L20.6244 7.76897L20.1112 6.24986C19.8889 5.59197 19.41 5.05194 18.7834 4.75262L17.8574 4.31027L18.7834 3.86792C19.41 3.56859 19.8889 3.02857 20.1112 2.37068L20.6244 0.851562Z" fill="white"/>
</svg>
