<svg xmlns="http://www.w3.org/2000/svg" width="60" height="60" viewBox="0 0 60 60"><g fill="none" fill-rule="evenodd"><rect width="60" height="60"/><path fill="#4C4C4C" fill-rule="nonzero" d="M12,24.7414094 L12,29.4035751 L12,31.5964249 L12,36.2585906 C12,37.7724157 13.1195192,39 14.4999765,39 C15.8805277,39 17,37.7723643 17,36.2585906 L17,31.5964249 L17,29.4035751 L17,24.7414094 C17,23.2275843 15.8817944,22 14.4999765,22 C13.1194723,22 12,23.2276357 12,24.7414094 Z M45.5000235,22 C44.1194723,22 43,23.2276357 43,24.7414094 L43,29.4035751 L43,31.5964249 L43,36.2585906 C43,37.7724157 44.1195192,39 45.5000235,39 C46.8805277,39 48,37.7723643 48,36.2585906 L48,31.5964249 L48,29.4035751 L48,24.7414094 C48,23.2275843 46.8804808,22 45.5000235,22 Z M18,23 L18,40.5555768 C18,42.0203611 19.1941657,43.2194386 20.6515565,43.2194386 L22.8865806,43.2194386 L22.8865806,44.8095816 L22.8865806,49.3374872 C22.8865806,50.8077175 24.0739792,52 25.5381372,52 C27.0023947,52 28.1897434,50.8077175 28.1897434,49.3374872 L28.1897434,44.8082326 L28.1897434,43.2181396 L31.8088633,43.2181396 L31.8088633,44.8082326 L31.8088633,49.3361382 C31.8102566,50.8063685 32.9962619,51.998651 34.4618131,51.998651 C35.9260706,51.998651 37.1134194,50.8063685 37.1134194,49.3361382 L37.1134194,44.8082326 L37.1134194,43.2181396 L39.3484435,43.2181396 C40.8072275,43.2181396 42,42.019062 42,40.5542778 L42,23 L41.9565603,23 L18.1316623,23 L18,23 Z M42,20.6879075 C41.964661,20.3160519 41.9102819,19.948384 41.8355168,19.5876109 C41.1776336,16.3953004 39.0040623,13.6918006 36.0231274,12.1207218 L37.8568165,8.65405209 C37.9710078,8.43954942 37.8921555,8.17075712 37.6828132,8.05369998 C37.4734709,7.93669385 37.211145,8.01748989 37.0969538,8.23199256 L35.2401373,11.7433503 C33.6619454,11.0483105 31.8921555,10.6583243 30.0217318,10.6583243 C28.1377506,10.6583243 26.3543535,11.0538774 24.7680371,11.7586209 L22.9030463,8.23199256 C22.788855,8.01748989 22.5278749,7.93674496 22.3171869,8.05369998 C22.1077947,8.17075716 22.0303381,8.43817049 22.1431835,8.65405209 L23.9863928,12.1388524 C21.1454181,13.6472147 19.0425746,16.1877436 18.2963689,19.1976247 C18.1033752,19.9790273 18,20.792401 18,21.6267142 C18,21.7520962 18.0026916,21.8760481 18.0081743,22 L42,22 L42,20.6879075 Z M36,16.0000221 C36,16.5523442 35.5523784,17 35,17 C34.4476657,17 34,16.5523442 34,16.0000221 C34,15.4476558 34.4476657,15 35,15 C35.5523784,15 36,15.4476558 36,16.0000221 Z M26,16.0000221 C26,16.5523442 25.5523343,17 25,17 C24.4476216,17 24,16.5523442 24,16.0000221 C24,15.4476558 24.4476216,15 25,15 C25.5523343,15 26,15.4476558 26,16.0000221 Z"/></g></svg>