<svg width="16" height="11" viewBox="0 0 16 11" fill="none" xmlns="http://www.w3.org/2000/svg">
<path d="M14.0405 0.761631C14.4888 0.279977 15.2156 0.279977 15.6638 0.761631C16.1121 1.24328 16.1121 2.0242 15.6638 2.50585L8.57522 10.1462C8.26815 10.4771 7.76169 10.4861 7.44401 10.1662C7.43749 10.1596 7.43108 10.153 7.42479 10.1462L0.33619 2.50585C-0.112064 2.0242 -0.112064 1.24328 0.33619 0.761631C0.784444 0.279977 1.51121 0.279977 1.95946 0.761631L7.42456 6.65697C7.73149 6.98807 8.23794 6.99726 8.55575 6.67749C8.56243 6.67077 8.569 6.66393 8.57545 6.65697L14.0405 0.761631Z" fill="#0066CC"/>
</svg>
