<?xml version="1.0" encoding="UTF-8"?>
<svg width="20px" height="20px" viewBox="0 0 20 20" version="1.1" xmlns="http://www.w3.org/2000/svg" xmlns:xlink="http://www.w3.org/1999/xlink">
    <title>编组 4</title>
    <g id="Index" stroke="none" stroke-width="1" fill="none" fill-rule="evenodd">
        <g id="1920" transform="translate(-1334.000000, -2955.000000)">
            <g id="编组-6备份-2" transform="translate(1344.000000, 2965.000000) scale(-1, 1) translate(-1344.000000, -2965.000000) translate(1322.000000, 2943.000000)">
                <g id="编组-4" transform="translate(22.000000, 22.000000) scale(-1, 1) translate(-22.000000, -22.000000) translate(12.000000, 12.000000)">
                    <rect id="矩形" x="0" y="0" width="20" height="20"></rect>
                    <path d="M5.59506803,2.58578644 C6.34673291,1.84584567 7.54084223,1.80690142 8.33908021,2.46895369 L8.46831066,2.58578644 L16,10 L8.46831066,17.4142136 C7.67488661,18.1952621 6.38849207,18.1952621 5.59506803,17.4142136 C4.84340315,16.6742728 4.80384184,15.4987886 5.4763841,14.7130012 L5.59506803,14.5857864 L10.2529328,9.99978788 L5.59506803,5.41421356 C4.84340315,4.6742728 4.80384184,3.49878864 5.4763841,2.71300121 L5.59506803,2.58578644 Z" id="路径-17" fill="#FFFFFF" fill-rule="nonzero"></path>
                </g>
            </g>
        </g>
    </g>
</svg>