<svg width="36" height="36" viewBox="0 0 36 36" fill="none" xmlns="http://www.w3.org/2000/svg">
<path fill-rule="evenodd" clip-rule="evenodd" d="M18 36C8.05781 36 0 27.9422 0 18C0 8.05781 8.05781 0 18 0C27.9422 0 36 8.05781 36 18C36 27.9422 27.9422 36 18 36Z" fill="black" fill-opacity="0.1"/>
<path d="M25.1578 14.9845C25.1578 14.8333 25.1543 14.6821 25.1473 14.5309C25.8715 14.0423 26.4937 13.4341 26.9895 12.738C26.325 13.0087 25.6148 13.188 24.866 13.2618C25.6289 12.8364 26.2125 12.1579 26.4902 11.3423C25.7766 11.7325 24.9855 12.0138 24.1453 12.1614C23.4703 11.4688 22.5141 11.0294 21.4523 11.0083C19.4133 10.9766 17.7609 12.5376 17.7609 14.4888C17.7609 14.7665 17.7926 15.0372 17.8559 15.2938C14.7867 15.1216 12.0691 13.6766 10.248 11.4934C9.92813 12.0138 9.74883 12.6255 9.74883 13.2829C9.74883 14.5204 10.3992 15.6208 11.3906 16.2712C10.7824 16.2466 10.2164 16.0813 9.71719 15.8071V15.8528C9.71719 17.5825 10.9934 19.0309 12.6809 19.372C12.3715 19.4493 12.0445 19.4915 11.707 19.4915C11.468 19.4915 11.2359 19.4669 11.0145 19.4212C11.4855 20.838 12.8461 21.8751 14.4633 21.9102C13.1977 22.8595 11.6086 23.4255 9.87891 23.422C9.58008 23.422 9.28828 23.4044 9 23.3692C10.6348 24.3852 12.5754 24.9759 14.6602 24.9759C21.4453 24.9723 25.1578 19.6251 25.1578 14.9845Z" fill="black" fill-opacity="0.7"/>
</svg>
