<svg width="36" height="36" viewBox="0 0 36 36" fill="none" xmlns="http://www.w3.org/2000/svg">
<circle cx="18" cy="18" r="18" fill="black" fill-opacity="0.1"/>
<path fill-rule="evenodd" clip-rule="evenodd" d="M24.6995 11.5925C25.9847 11.7476 26.2897 12.4599 26.6775 13.7451C26.6775 13.7451 27.0266 15.9127 27.0266 18.0114C27.0266 19.981 26.6775 21.8899 26.6775 21.8899C26.3285 23.1751 25.9072 23.8098 24.6995 24.0425C24.6995 24.0425 21.6119 24.2752 18.3775 24.2752C14.8205 24.2752 11.0859 24.0425 11.0859 24.0425C9.8783 23.8873 9.32123 23.0976 9.04974 21.8899C9.04974 21.8899 8.70068 19.8016 8.70068 17.7399C8.70068 15.7299 9.04974 13.7451 9.04974 13.7451C9.39879 12.4986 9.72311 11.7476 11.0859 11.5925C11.0859 11.5925 14.4506 11.418 17.8345 11.418C21.2572 11.418 24.6995 11.5925 24.6995 11.5925ZM21.3254 17.8173L16.0312 14.3848V21.2497L21.3254 17.8173Z" fill="black" fill-opacity="0.7"/>
</svg>
