<?xml version="1.0" encoding="UTF-8"?>
<svg width="14px" height="14px" viewBox="0 0 14 14" version="1.1" xmlns="http://www.w3.org/2000/svg" xmlns:xlink="http://www.w3.org/1999/xlink">
    <title>3.1 时间</title>
    <g id="页面-1" stroke="none" stroke-width="1" fill="none" fill-rule="evenodd">
        <g id="支付PC端" transform="translate(-600.000000, -787.000000)" fill="#8B97AF" fill-rule="nonzero">
            <g id="3.1-时间" transform="translate(600.000000, 787.000000)">
                <path d="M11.9518379,2.04814872 C9.22148201,-0.68271624 4.7785265,-0.68271624 2.0481366,2.04814872 C-0.6827122,4.7785038 -0.6827122,9.22149196 2.0481366,11.951864 C4.7785265,14.682712 9.221499,14.682712 11.9518379,11.951864 C14.6827207,9.22149196 14.6827207,4.7785038 11.9518379,2.04814872 Z M11.24112,11.2410954 C8.90258017,13.5801614 5.09691846,13.5796345 2.75890547,11.2410954 C0.419855711,8.90255623 0.419855711,5.09742255 2.75890547,2.75862844 C5.09693545,0.420327223 8.90259716,0.419834328 11.24112,2.75862844 C13.5796429,5.09692965 13.5796429,8.90306612 11.24112,11.2410954 Z" id="形状"></path>
                <path d="M10.523777,7.11476298 L6.9522109,7.11476298 L6.95270756,3.44237123 C6.95270756,3.19870682 6.73841786,3 6.47600564,3 C6.21359343,3 6.00031476,3.19870684 6.00031476,3.44237123 L6.00031476,7.23023154 C6.00031476,7.24368419 5.9827544,7.56028305 6.20995719,7.78540059 C6.35437791,7.92732933 6.55729773,7.99948894 6.81921328,7.99948894 L10.5237947,8 C10.7862424,8 11,7.80177126 11,7.55736499 C11,7.31440952 10.7867213,7.11619728 10.523777,7.11476298 Z" id="路径"></path>
            </g>
        </g>
    </g>
</svg>