<svg width="16" height="16" viewBox="0 0 16 16" fill="none" xmlns="http://www.w3.org/2000/svg">
<path d="M8 16C3.58737 16 0 12.4126 0 8C0 3.58737 3.58737 0 8 0C12.4126 0 16 3.58737 16 8C16 12.4126 12.4126 16 8 16ZM8 1.26316C4.28632 1.26316 1.26316 4.28632 1.26316 8C1.26316 11.7137 4.28632 14.7368 8 14.7368C11.7137 14.7368 14.7368 11.7137 14.7368 8C14.7368 4.28632 11.7137 1.26316 8 1.26316Z" fill="#2F7FF0"/>
<path d="M7.10722 10.7526C6.94722 10.7526 6.78722 10.6936 6.6609 10.5673L4.18511 8.09995C3.9409 7.85574 3.9409 7.45152 4.18511 7.20731C4.42932 6.9631 4.83353 6.9631 5.07774 7.20731L7.10722 9.22837L10.922 5.43047C11.1662 5.18626 11.5704 5.18626 11.8146 5.43047C12.0588 5.67468 12.0588 6.07889 11.8146 6.3231L7.55353 10.5673C7.42722 10.6852 7.26722 10.7526 7.10722 10.7526Z" fill="#2F7FF0"/>
</svg>
