<svg width="25" height="24" viewBox="0 0 25 24" fill="none" xmlns="http://www.w3.org/2000/svg">
<rect opacity="0.01" x="0.5" width="24" height="24" fill="#0D0D0D" fill-opacity="0.9"/>
<path fill-rule="evenodd" clip-rule="evenodd" d="M20.5538 7.01562C20.1144 6.57628 19.4021 6.57628 18.9628 7.01562L10.7427 15.2357L7.82584 12.3189C7.3865 11.8796 6.67419 11.8796 6.23485 12.3189C5.79551 12.7583 5.79551 13.4706 6.23485 13.9099L9.94612 17.6212C9.94647 17.6215 9.94681 17.6219 9.94716 17.6222C10.0021 17.6771 10.0613 17.7252 10.1236 17.7664C10.5603 18.0547 11.1537 18.0066 11.5382 17.6222C11.5384 17.622 11.5386 17.6217 11.5389 17.6215L20.5538 8.60661C20.9931 8.16727 20.9931 7.45496 20.5538 7.01562Z" fill="#0D0D0D" fill-opacity="0.9"/>
</svg>
