<svg width="22" height="24" viewBox="0 0 22 24" fill="none" xmlns="http://www.w3.org/2000/svg">
<rect x="2.5" y="1.5" width="17" height="21" rx="1" fill="#FB8E3F"/>
<path d="M7.945 9.02563C7.945 8.24563 7.425 7.58263 6.71 7.37463V6.00313C6.71 5.73663 6.489 5.51562 6.2225 5.51562C5.956 5.51562 5.735 5.73663 5.735 6.00313V7.37463C5.02 7.58263 4.5 8.24563 4.5 9.02563C4.5 9.80562 5.0265 10.4686 5.7415 10.6766L5.761 13.3416C5.033 13.5496 4.5 14.2126 4.5 15.0056C4.5 15.7856 5.02 16.4486 5.735 16.6566V17.9956C5.735 18.2621 5.956 18.4831 6.2225 18.4831C6.489 18.4831 6.71 18.2621 6.71 17.9956V16.6566C7.425 16.4486 7.945 15.7856 7.945 15.0056C7.945 14.2321 7.438 13.5821 6.736 13.3611L6.7165 10.6766C7.425 10.4621 7.945 9.80562 7.945 9.02563ZM5.475 9.02563C5.475 8.61613 5.813 8.27813 6.2225 8.27813C6.632 8.27813 6.97 8.61613 6.97 9.02563C6.97 9.43513 6.632 9.77312 6.2225 9.77312C5.813 9.77312 5.475 9.43513 5.475 9.02563ZM6.97 15.0056C6.97 15.4151 6.632 15.7531 6.2225 15.7531C5.813 15.7531 5.475 15.4151 5.475 15.0056C5.475 14.5961 5.813 14.2581 6.2225 14.2581C6.632 14.2581 6.97 14.5961 6.97 15.0056ZM16.2325 6.75063H9.9275C9.2255 6.75063 8.66 7.31612 8.66 8.01813V10.0331C8.66 10.7351 9.2255 11.3006 9.9275 11.3006H16.2325C16.9345 11.3006 17.5 10.7351 17.5 10.0331V8.01813C17.5 7.31612 16.9345 6.75063 16.2325 6.75063ZM16.525 10.0331C16.525 10.1956 16.395 10.3256 16.2325 10.3256H9.9275C9.765 10.3256 9.635 10.1956 9.635 10.0331V8.01813C9.635 7.85562 9.765 7.72563 9.9275 7.72563H16.2325C16.395 7.72563 16.525 7.85562 16.525 8.01813V10.0331ZM16.2325 12.7306H9.9275C9.2255 12.7306 8.66 13.2961 8.66 13.9981V16.0131C8.66 16.7151 9.2255 17.2806 9.9275 17.2806H16.2325C16.9345 17.2806 17.5 16.7151 17.5 16.0131V13.9981C17.5 13.2961 16.9345 12.7306 16.2325 12.7306ZM16.525 16.0131C16.525 16.1756 16.395 16.3056 16.2325 16.3056H9.9275C9.765 16.3056 9.635 16.1756 9.635 16.0131V13.9981C9.635 13.8356 9.765 13.7056 9.9275 13.7056H16.2325C16.395 13.7056 16.525 13.8356 16.525 13.9981V16.0131Z" fill="white"/>
</svg>
