<svg width="23" height="24" viewBox="0 0 23 24" fill="none" xmlns="http://www.w3.org/2000/svg">
<path fill-rule="evenodd" clip-rule="evenodd" d="M19.4733 5.96774C20.2572 5.96774 20.8927 6.60321 20.8927 7.3871V21.5806C20.8927 22.3645 20.2572 23 19.4733 23H8.82819C8.04431 23 7.40884 22.3645 7.40884 21.5806V19.4516H15.2153C15.9754 19.4516 16.596 18.8541 16.6329 18.1031L16.6346 18.0323V5.96774H19.4733ZM13.7959 1C14.5798 1 15.2153 1.63547 15.2153 2.41935V4.54839H7.40884C6.64871 4.54839 6.02814 5.14592 5.99123 5.8969L5.98949 5.96774V18.0323H3.15079C2.36691 18.0323 1.73145 17.3968 1.73145 16.6129V2.41935C1.73145 1.63547 2.36691 1 3.15079 1H13.7959Z" fill="url(#paint0_linear_1690_27657)"/>
<path fill-rule="evenodd" clip-rule="evenodd" d="M15.2146 5.96777V18.0323H7.4082V5.96777H15.2146Z" fill="url(#paint1_linear_1690_27657)"/>
<defs>
<linearGradient id="paint0_linear_1690_27657" x1="11.3121" y1="1.1035" x2="11.3121" y2="22.605" gradientUnits="userSpaceOnUse">
<stop stop-color="#05C574"/>
<stop offset="1" stop-color="#1EBF7B"/>
</linearGradient>
<linearGradient id="paint1_linear_1690_27657" x1="11.3114" y1="6.02453" x2="11.3114" y2="17.8157" gradientUnits="userSpaceOnUse">
<stop stop-color="#05C574"/>
<stop offset="1" stop-color="#1EBF7B"/>
</linearGradient>
</defs>
</svg>
