<svg width="22" height="24" viewBox="0 0 22 24" fill="none" xmlns="http://www.w3.org/2000/svg">
<path fill-rule="evenodd" clip-rule="evenodd" d="M17.0157 10H11.5503C11.2571 10 11.0174 10.2288 11 10.5176V21.6108C11.0174 21.8995 11.2571 22.1283 11.5503 22.1283H19.2683C19.5728 22.1283 19.8196 21.8815 19.8196 21.5771V12.8039L17.5665 12.8044L17.4674 12.7955C17.2102 12.7488 17.0152 12.5237 17.0152 12.2531L17.0157 10Z" fill="#0DC476"/>
<path fill-rule="evenodd" clip-rule="evenodd" d="M15.5933 14.7773L15.5943 16.5943C15.5943 16.8092 15.4201 16.9834 15.2052 16.9834C14.9902 16.9834 14.816 16.8092 14.816 16.5943V14.3891C14.816 14.1742 14.9902 14 15.2052 14H16.5023L16.5172 14.0011L16.5361 14.0024C17.1392 14.0238 18.7075 14.2332 18.7075 16.281C18.7075 18.2674 17.4081 18.4044 16.5533 18.4101L14.6907 18.4097C14.1245 18.4053 13.8204 18.3903 13.7824 18.946L13.7783 19.074C13.7783 19.7569 14.0814 19.8299 14.6826 19.8366L14.6858 19.8359V19.837H14.8159L14.816 19.448C14.816 19.2331 14.9902 19.0589 15.2052 19.0589C15.4201 19.0589 15.5943 19.2331 15.5943 19.448V20.2263C15.5943 20.4412 15.4201 20.6155 15.2052 20.6155H14.5566L14.4874 20.6077L14.4058 20.603C13.5836 20.5311 13 20.1339 13 19.0786C13 17.9611 13.6543 17.6627 14.5533 17.6343L14.7053 17.632L14.8159 17.6319L14.816 17.6318L16.4992 17.632C17.6905 17.632 17.9292 16.9105 17.9292 16.206C17.9292 15.5042 17.6905 14.7851 16.4992 14.78C16.5084 14.7797 16.5059 14.7794 16.4918 14.7792L16.3498 14.7784L15.5933 14.7773Z" fill="white"/>
<path fill-rule="evenodd" clip-rule="evenodd" d="M2 1C1.44772 1 1 1.44772 1 2V21C1 21.5523 1.44772 22 2 22H10V10.1026C10 9.49364 10.4936 9 11.1026 9H17.4897C17.6359 9 17.7761 9.05808 17.8795 9.16147L18 9.28196V2C18 1.44772 17.5523 1 17 1H2Z" fill="#0CC476"/>
<path d="M3 19.1597V15.3046C3 15.0005 3.24657 14.7539 3.55072 14.7539C3.85488 14.7539 4.10145 15.0005 4.10145 15.3046V18.0583L6.23467 18.0579L5.79217 17.6196C5.60399 17.4314 5.58046 17.1409 5.7216 16.9272L5.79217 16.8408C6.00724 16.6257 6.35594 16.6257 6.57102 16.8408L8.90399 19.1597H3Z" fill="white"/>
<path d="M3.4907 9.33333H7.94923C8.89774 9.33333 9.66667 8.63689 9.66667 7.77778C9.66667 6.91867 8.89774 6.22222 7.94923 6.22222H4.71744C4.31093 6.22222 3.98139 5.92375 3.98139 5.55556C3.98139 5.18737 4.31093 4.88889 4.71744 4.88889H9.17597C9.44697 4.88889 9.66667 4.6899 9.66667 4.44444C9.66667 4.19898 9.44697 4 9.17597 4H4.71744C3.76892 4 3 4.69645 3 5.55556C3 6.41467 3.76892 7.11111 4.71744 7.11111H7.94923C8.35574 7.11111 8.68527 7.40959 8.68527 7.77778C8.68527 8.14597 8.35574 8.44444 7.94923 8.44444H3.4907C3.21969 8.44444 3 8.64343 3 8.88889C3 9.13435 3.21969 9.33333 3.4907 9.33333Z" fill="white"/>
</svg>
