<svg width="40" height="40" viewBox="0 0 40 40" fill="none" xmlns="http://www.w3.org/2000/svg">
<path d="M0 5C0 2.23858 2.23858 0 5 0H35C37.7614 0 40 2.23858 40 5V35C40 37.7614 37.7614 40 35 40H5C2.23858 40 0 37.7614 0 35V5Z" fill="#109968"/>
<path d="M0 30.625H40V35C40 37.7614 37.7614 40 35 40H5C2.23858 40 0 37.7614 0 35V30.625Z" fill="#007D53"/>
<path d="M35 1.91237e-07C37.7614 3.11943e-07 40 2.23858 40 5L40 35.1613C40 37.8336 37.8336 40 35.1613 40C32.656 40 30.625 37.969 30.625 35.4637L30.625 0L35 1.91237e-07Z" fill="#38B27F"/>
<path d="M30.625 35.4637C30.625 37.969 32.656 40 35.1613 40C37.8336 40 40 37.8336 40 35.1613C40 32.656 37.969 30.625 35.4637 30.625H30.625V35.4637Z" fill="#109968"/>
<path fill-rule="evenodd" clip-rule="evenodd" d="M10.3253 8.47823C11.6303 7.17612 13.682 6.54867 16.119 6.75852C18.7165 6.98219 20.2337 8.17385 21.0313 9.50162C21.4071 10.1271 21.5925 10.731 21.6853 11.1782C21.732 11.4036 21.7566 11.5956 21.7695 11.7395C21.776 11.8117 21.7796 11.8726 21.7816 11.9203C21.7826 11.9442 21.7832 11.9649 21.7836 11.9822C21.7837 11.9908 21.7839 11.9986 21.7839 12.0055L21.784 12.0153L21.784 12.0196L21.784 12.0217C21.784 12.0227 21.784 12.0237 20.2215 12.0237C18.659 12.0237 18.659 12.0246 18.659 12.0256L18.659 12.0274L18.659 12.0309L18.6591 12.0369C18.6591 12.0406 18.6592 12.0436 18.6592 12.0459C18.6593 12.0505 18.6594 12.0524 18.6594 12.0517C18.6593 12.0503 18.6588 12.039 18.657 12.019C18.6534 11.9787 18.6448 11.9066 18.6254 11.8129C18.5857 11.6217 18.5064 11.3669 18.3526 11.1109C18.0911 10.6757 17.49 10.0131 15.8509 9.872C14.0514 9.71704 13.0098 10.2142 12.5327 10.6903C12.0865 11.1355 12.0022 11.6606 12.2327 12.1745C12.3721 12.4854 12.7192 12.8209 13.566 13.1539C14.293 13.4398 15.1403 13.6338 16.1175 13.8575C16.291 13.8972 16.4687 13.9378 16.6505 13.9801C17.7516 14.2362 19.0715 14.5653 20.1131 15.1909C20.659 15.5188 21.1911 15.9625 21.5837 16.5778C21.9853 17.207 22.1875 17.9324 22.1875 18.7279C22.1875 21.0714 20.6313 22.5826 18.873 23.3042C17.1487 24.0119 15.0284 24.084 13.1578 23.5802C10.9433 22.9839 9.70601 21.7375 9.06402 20.5293C8.75518 19.9481 8.60002 19.4071 8.5214 19.0037C8.4819 18.8009 8.46099 18.6292 8.44992 18.4994C8.44437 18.4343 8.44126 18.3793 8.43954 18.3356C8.43867 18.3137 8.43816 18.2946 8.43786 18.2785C8.43771 18.2704 8.43762 18.2631 8.43756 18.2565L8.43751 18.2472L8.4375 18.243L8.4375 18.241C8.4375 18.24 8.4375 18.2391 10 18.2415C11.5625 18.244 11.5625 18.243 11.5625 18.2421L11.5625 18.2403L11.5625 18.2368L11.5625 18.2307C11.5624 18.2268 11.5624 18.2236 11.5623 18.221C11.5622 18.2158 11.5621 18.213 11.5621 18.2124L11.5621 18.2123C11.5621 18.2123 11.5624 18.2198 11.5636 18.234C11.5663 18.2648 11.5729 18.3247 11.5887 18.406C11.6208 18.5705 11.6875 18.8068 11.8236 19.0629C12.0715 19.5295 12.6163 20.1981 13.9704 20.5627C15.2603 20.9101 16.6705 20.8302 17.6865 20.4132C18.6685 20.0102 19.0625 19.4239 19.0625 18.7279C19.0625 18.4811 19.0062 18.3478 18.9495 18.259C18.8839 18.1561 18.7577 18.0222 18.5042 17.8699C17.9468 17.5352 17.1024 17.2936 15.9425 17.0239C15.7896 16.9883 15.6308 16.9522 15.4676 16.9151C14.5044 16.696 13.3885 16.4421 12.4222 16.0621C11.283 15.6141 10.0159 14.8684 9.38126 13.4532C8.60302 11.7178 8.98943 9.81125 10.3253 8.47823Z" fill="white"/>
</svg>
