<svg width="23" height="25" viewBox="0 0 23 25" fill="none" xmlns="http://www.w3.org/2000/svg">
<path fill-rule="evenodd" clip-rule="evenodd" d="M14.6079 2.13221C14.6085 2.13283 14.6091 2.13345 14.6097 2.13407L15.1141 2.63863C15.3551 2.87974 15.3558 3.27032 15.1158 3.51236L11.9486 6.70503L14.3667 9.00776L16.6079 11.3365L19.7058 8.2139C19.9466 7.97114 20.3386 7.96954 20.5813 8.21035C20.582 8.21097 20.5826 8.21159 20.5832 8.21222L21.0876 8.71678C21.3286 8.95789 21.3293 9.34846 21.0892 9.5905L17.7763 12.9305C17.6735 13.0341 17.5431 13.0938 17.4085 13.1094C16.8712 14.3502 15.8257 17.1 16.3792 18.5877C14.1018 17.9685 7.70895 19.5944 3.99463 21.2386C5.07455 21.7755 6.48514 22.1955 8.22619 22.4988C10.0591 22.8181 12.4567 23.0567 14.6108 23.0796C19.4967 23.1315 21.1702 22.2256 20.4509 22.7726C18.7082 23.6787 16.6002 23.8882 14.6553 23.9309C11.8577 23.9917 9.1551 23.9371 6.9091 23.5197C6.79044 23.4976 6.67176 23.4752 6.55334 23.4524L6.31692 23.4064L6.08165 23.3598L5.84803 23.3126C4.29703 22.9966 2.88733 22.6558 2.26062 22.5002L2.17257 22.4783C2.00853 22.4374 1.91784 22.4141 1.91784 22.4141C1.91784 22.4141 1.98865 22.3486 2.13027 22.2177C2.03144 22.2827 1.94004 22.3471 1.8562 22.4106L7.57048 17.103C7.7562 17.1789 7.95956 17.2208 8.17273 17.2208C9.04959 17.2208 9.7605 16.5123 9.7605 15.6389C9.7605 14.7651 9.04959 14.0566 8.17273 14.0566C7.29587 14.0566 6.58496 14.7651 6.58496 15.6389C6.58496 15.8405 6.62284 16.0333 6.69189 16.2107L6.72337 16.2857L2.08302 21.3854C3.58925 17.9805 5.64708 9.78841 4.94244 7.22718C6.52982 7.80984 9.25994 6.32646 10.2702 5.72195C10.2984 5.63191 10.3483 5.54731 10.4193 5.47571L13.7323 2.13576C13.9731 1.89299 14.3651 1.8914 14.6079 2.13221Z" fill="url(#paint0_linear_534_19486)"/>
<defs>
<linearGradient id="paint0_linear_534_19486" x1="11.5625" y1="2.05613" x2="11.5625" y2="23.5567" gradientUnits="userSpaceOnUse">
<stop stop-color="#399EF7"/>
<stop offset="1" stop-color="#3D89FC"/>
</linearGradient>
</defs>
</svg>
