<svg width="36" height="48" viewBox="0 0 36 48" fill="none" xmlns="http://www.w3.org/2000/svg">
<path d="M32.2476 9.76143C28.8513 6.37814 23.9677 6 18 6C12.0247 6 7.13375 6.3825 3.73879 9.77493C0.344319 13.166 0 18.049 0 24.0175C0 29.9869 0.34432 34.8715 3.7402 38.2637C7.13495 41.6566 12.0253 42 18 42C23.9747 42 28.8642 41.6566 32.259 38.2637C35.6546 34.8708 35.9999 29.9869 35.9999 24.0175C35.9999 18.0413 35.6509 13.153 32.2476 9.76143Z" fill="#FF6900"/>
<path d="M28.4451 17.1519C28.5688 17.1519 28.6717 17.2515 28.6717 17.3741V30.6903C28.6717 30.8109 28.5688 30.911 28.4451 30.911H25.5274C25.4022 30.911 25.3004 30.8109 25.3004 30.6903V17.3741C25.3004 17.2516 25.4021 17.1519 25.5274 17.1519H28.4451ZM15.7834 17.1519C17.9844 17.1519 20.2857 17.2528 21.4207 18.3886C22.5367 19.5063 22.6575 21.7319 22.6622 23.8931V30.6902C22.6622 30.8108 22.5605 30.9109 22.4358 30.9109H19.5186C19.3936 30.9109 19.2915 30.8108 19.2915 30.6902V23.7761C19.2884 22.5691 19.219 21.3286 18.5966 20.704C18.0608 20.1668 17.061 20.0437 16.0214 20.0182H10.7332C10.6092 20.0182 10.5076 20.118 10.5076 20.2387V30.6903C10.5076 30.8109 10.4048 30.911 10.28 30.911H7.36093C7.2362 30.911 7.13586 30.8109 7.13586 30.6903V17.3741C7.13586 17.2516 7.23613 17.1519 7.36093 17.1519H15.7834ZM16.4364 22.4553C16.5605 22.4553 16.6614 22.5547 16.6614 22.6763V30.6903C16.6614 30.8109 16.5605 30.911 16.4364 30.911H13.3719C13.2459 30.911 13.1449 30.8109 13.1449 30.6903V22.6763C13.1449 22.5547 13.2459 22.4553 13.3719 22.4553H16.4364Z" fill="white"/>
</svg>
