<svg width="40" height="40" viewBox="0 0 40 40" fill="none" xmlns="http://www.w3.org/2000/svg">
<path d="M0 5C0 2.23858 2.23858 0 5 0H35C37.7614 0 40 2.23858 40 5V35C40 37.7614 37.7614 40 35 40H5C2.23858 40 0 37.7614 0 35V5Z" fill="#EB2F3B"/>
<path d="M0 33.332H40V34.9987C40 37.7601 37.7614 39.9987 35 39.9987H5C2.23858 39.9987 0 37.7601 0 34.9987V33.332Z" fill="#CE1E29"/>
<path d="M33.333 0H34.9997C37.7611 0 39.9997 2.23858 39.9997 5V35C39.9997 37.7614 37.7611 40 34.9997 40H33.333V0Z" fill="#FF4F5A"/>
<path d="M33.333 39.9987H34.9997C37.7611 39.9987 39.9997 37.7601 39.9997 34.9987V33.332H33.333V39.9987Z" fill="#EB2F3B"/>
<g clip-path="url(#clip0_739_12017)">
<path fill-rule="evenodd" clip-rule="evenodd" d="M15.0003 6.66797H21.667C25.3489 6.66797 28.3337 9.65274 28.3337 13.3346C28.3337 17.0165 25.3489 20.0013 21.667 20.0013H18.3337V28.3346H12.5394C9.31773 28.3346 6.70605 25.723 6.70605 22.5013C6.70605 19.2796 9.31773 16.668 12.5394 16.668H15.0003V6.66797ZM15.0003 20.0013H12.5394C11.1587 20.0013 10.0394 21.1206 10.0394 22.5013C10.0394 23.882 11.1587 25.0013 12.5394 25.0013H15.0003V20.0013ZM18.3337 16.668H21.667C23.5079 16.668 25.0003 15.1756 25.0003 13.3346C25.0003 11.4937 23.5079 10.0013 21.667 10.0013H18.3337V16.668Z" fill="white"/>
</g>
<defs>
<clipPath id="clip0_739_12017">
<rect width="23.3333" height="23.3333" fill="white" transform="translate(5 5)"/>
</clipPath>
</defs>
</svg>
