<?xml version="1.0" encoding="UTF-8"?><svg version="1.1" width="15px" height="16px" viewBox="0 0 15.0 16.0" xmlns="http://www.w3.org/2000/svg" xmlns:xlink="http://www.w3.org/1999/xlink"><defs><clipPath id="i0"><path d="M1366,0 L1366,726 L0,726 L0,0 L1366,0 Z"></path></clipPath><clipPath id="i1"><path d="M1.02426407,0.175735931 L7.1,6.25147186 L13.1757359,0.175735931 C13.4100505,-0.0585786438 13.7899495,-0.0585786438 14.0242641,0.175735931 C14.2585786,0.410050506 14.2585786,0.789949494 14.0242641,1.02426407 L7.94852814,7.1 L14.0242641,13.1757359 C14.2585786,13.4100505 14.2585786,13.7899495 14.0242641,14.0242641 C13.7899495,14.2585786 13.4100505,14.2585786 13.1757359,14.0242641 L7.1,7.94852814 L1.02426407,14.0242641 C0.789949494,14.2585786 0.410050506,14.2585786 0.175735931,14.0242641 C-0.0585786438,13.7899495 -0.0585786438,13.4100505 0.175735931,13.1757359 L6.25147186,7.1 L0.175735931,1.02426407 C-0.0585786438,0.789949494 -0.0585786438,0.410050506 0.175735931,0.175735931 C0.410050506,-0.0585786438 0.789949494,-0.0585786438 1.02426407,0.175735931 Z"></path></clipPath></defs><g transform="translate(-1307.0 -96.0)"><g clip-path="url(#i0)"><g transform="translate(1102.7721817233542 67.49401596882308)"><g transform="translate(204.0 28.50598403117874)"><g transform="translate(0.8999999999999853 0.9000000000000101)"><g clip-path="url(#i1)"><polygon points="0,0 14.2,0 14.2,14.2 0,14.2 0,0" stroke="none" fill="rgba(19, 35, 63, 0.5)"></polygon></g></g></g></g></g></g></svg>