<svg width="36" height="48" viewBox="0 0 36 48" fill="none" xmlns="http://www.w3.org/2000/svg">
<path d="M13.6409 38.0161H11.4644V48H13.6409V38.0161Z" fill="#066AB4"/>
<path d="M6.58374 40.1944H7.55934V47.9999H9.73905V40.1944H10.714V38.0166H6.58374V40.1944Z" fill="#066AB4"/>
<mask id="mask0_1713_2843" style="mask-type:luminance" maskUnits="userSpaceOnUse" x="0" y="0" width="35" height="35">
<path d="M12.7749 22.1926C9.0578 18.4755 8.59634 12.7336 11.3918 8.51449C15.6122 5.72035 21.3515 6.1799 25.0711 9.89697C28.7876 13.6153 29.2484 19.3572 26.453 23.5738C24.6401 24.7754 22.5493 25.3765 20.4578 25.3765C17.6795 25.3765 14.8962 24.3145 12.7749 22.1926ZM0 17.5824C0 27.1842 7.78197 34.9694 17.3882 34.9694C26.2816 34.9694 33.6192 28.2899 34.6513 19.6708C34.6513 19.6708 34.7884 18.4997 34.7884 17.5812C34.7884 16.6627 34.6513 15.4941 34.6513 15.4941C33.6199 6.87495 26.2816 0.192993 17.3882 0.192993C7.78197 0.192993 0 7.97813 0 17.5824Z" fill="white"/>
</mask>
<g mask="url(#mask0_1713_2843)">
<path d="M34.7884 0.192993H0V34.9687H34.7884V0.192993Z" fill="url(#paint0_radial_1713_2843)"/>
</g>
<mask id="mask1_1713_2843" style="mask-type:luminance" maskUnits="userSpaceOnUse" x="11" y="3" width="21" height="21">
<path d="M12.775 6.82348C12.2468 7.35031 11.786 7.91651 11.3918 8.5138C15.6123 5.71966 21.3516 6.17921 25.0712 9.89627C28.7876 13.6146 29.2485 19.3565 26.4531 23.5731C27.051 23.1789 27.6185 22.72 28.1459 22.1919C32.3879 17.948 32.3879 11.0674 28.1434 6.82348C26.0195 4.70153 23.2413 3.64087 20.4604 3.64087C17.6796 3.64087 14.8963 4.70153 12.775 6.82348Z" fill="white"/>
</mask>
<g mask="url(#mask1_1713_2843)">
<path d="M21.8896 -6.85711L1.42554 13.6069L21.8896 34.071L42.3536 13.6069L21.8896 -6.85711Z" fill="url(#paint1_linear_1713_2843)"/>
</g>
<path d="M26.3495 44.9596C26.3488 45.4356 25.9629 45.8203 25.4869 45.8222C25.0121 45.8203 24.6249 45.435 24.6249 44.9596V41.0572C24.6249 40.5805 25.0121 40.1946 25.4869 40.1946C25.9616 40.1946 26.3488 40.5805 26.3495 41.0572V44.9596ZM25.4869 38.0161C23.8086 38.0161 22.4464 39.377 22.4458 41.0572V44.9596C22.4464 46.6391 23.8086 48 25.4869 48C27.1651 48 28.5273 46.6391 28.5286 44.9596V41.0572C28.5267 39.377 27.1664 38.0161 25.4869 38.0161Z" fill="#066AB4"/>
<path d="M17.3831 38.0155C17.0531 38.0155 16.7179 38.0701 16.3917 38.1831C15.6021 38.4547 14.9883 39.0279 14.6506 39.7249C14.45 40.1336 14.3415 40.5888 14.3415 41.0572C14.3415 41.3854 14.396 41.7224 14.5071 42.0474L15.4129 44.6784C15.4465 44.7736 15.4599 44.8669 15.4599 44.9583C15.4599 45.0897 15.4313 45.2192 15.3723 45.3373C15.2726 45.5379 15.107 45.6953 14.8784 45.774C14.7832 45.807 14.6899 45.821 14.5973 45.821C14.5585 45.821 14.5147 45.8165 14.4716 45.8102L14.3408 45.7918V47.9911L14.45 47.9956C14.4982 47.9981 14.5452 48 14.5966 48H14.5992C14.9273 48 15.2612 47.9461 15.5875 47.8344C16.3796 47.5627 16.9915 46.9895 17.3305 46.2932C17.5298 45.8832 17.6377 45.428 17.6377 44.959C17.6377 44.6302 17.5837 44.295 17.4726 43.9694L16.5669 41.3384C16.5351 41.2413 16.5199 41.1499 16.5199 41.0572C16.5199 40.9252 16.5504 40.7963 16.6075 40.6795C16.7078 40.4764 16.8715 40.3222 17.1007 40.2416C17.1978 40.2098 17.2892 40.1939 17.3825 40.1939C17.4238 40.1939 17.4638 40.1984 17.5063 40.2054L17.6377 40.2276V38.0263L17.5317 38.0206C17.4828 38.018 17.432 38.0155 17.3825 38.0155" fill="#066AB4"/>
<path d="M21.3338 38.0155H21.3186C20.4845 38.0155 19.7184 38.357 19.1719 38.9067H19.1713C18.6235 39.4538 18.282 40.22 18.282 41.0572V44.9596C18.282 45.7962 18.6235 46.5623 19.1713 47.1095C19.7133 47.6509 20.4687 47.9918 21.2926 48H21.323C21.4963 48 21.6658 47.9848 21.8296 47.9575L21.9248 47.941V45.6045L21.754 45.7061C21.6271 45.7803 21.4811 45.821 21.3211 45.8222C21.0806 45.8203 20.8724 45.7276 20.7118 45.5702C20.5544 45.4096 20.4604 45.2021 20.4604 44.9602V41.0578C20.4604 40.8154 20.5544 40.6078 20.7118 40.4478C20.8724 40.2885 21.0799 40.1965 21.3218 40.1952C21.4811 40.1952 21.6265 40.2371 21.7534 40.3114L21.9241 40.4098V38.0752L21.8289 38.0593C21.6671 38.0333 21.502 38.0161 21.3332 38.0161" fill="#066AB4"/>
<defs>
<radialGradient id="paint0_radial_1713_2843" cx="0" cy="0" r="1" gradientUnits="userSpaceOnUse" gradientTransform="translate(28.7661 5.67344) scale(33.794 34.1776)">
<stop stop-color="#37A7DF"/>
<stop offset="0.21" stop-color="#36A3DB"/>
<stop offset="0.4" stop-color="#3497D1"/>
<stop offset="0.59" stop-color="#3085C0"/>
<stop offset="0.77" stop-color="#2C6AA8"/>
<stop offset="0.95" stop-color="#254889"/>
<stop offset="1" stop-color="#243E80"/>
</radialGradient>
<linearGradient id="paint1_linear_1713_2843" x1="28.5482" y1="7.29687" x2="19.3964" y2="16.4487" gradientUnits="userSpaceOnUse">
<stop stop-color="#88181A"/>
<stop offset="0.02" stop-color="#8E181A"/>
<stop offset="0.1" stop-color="#AD1A1E"/>
<stop offset="0.18" stop-color="#C41C22"/>
<stop offset="0.28" stop-color="#D51D24"/>
<stop offset="0.38" stop-color="#DF1E25"/>
<stop offset="0.5" stop-color="#E31F26"/>
<stop offset="1" stop-color="#E31F26"/>
</linearGradient>
</defs>
</svg>
