<svg width="60" height="48" viewBox="0 0 60 48" fill="none" xmlns="http://www.w3.org/2000/svg">
<g clip-path="url(#clip0_1713_2862)">
<mask id="mask0_1713_2862" style="mask-type:luminance" maskUnits="userSpaceOnUse" x="0" y="12" width="60" height="24">
<path d="M59.5862 12H0V36H59.5862V12Z" fill="white"/>
</mask>
<g mask="url(#mask0_1713_2862)">
<path fill-rule="evenodd" clip-rule="evenodd" d="M17.7931 12V22.5021C17.8014 29.9462 11.8386 35.9917 4.47727 36C4.46899 36 4.45655 36 4.44828 36H0V12H4.44828V31.5559C9.38483 31.5559 13.3862 27.509 13.3862 22.5145C13.3862 22.5104 13.3862 22.5062 13.3862 22.5021V12H17.7931Z" fill="#E65A26"/>
<path fill-rule="evenodd" clip-rule="evenodd" d="M38.8966 18.7572V36H34.3449V18.7448C34.3449 17.5034 33.3311 16.502 32.0773 16.502C32.0732 16.502 32.0649 16.502 32.0607 16.502H25.2414V36H20.6897V12H32.0607C32.8387 11.9958 33.6125 12.1283 34.3449 12.3848C36.269 13.08 37.7793 14.5903 38.4621 16.502C38.7352 17.222 38.88 17.9875 38.8966 18.7572Z" fill="#E65A26"/>
<path fill-rule="evenodd" clip-rule="evenodd" d="M49.1914 26.2924H55.1252C55.1252 26.2924 55.1252 29.1517 55.1252 29.2965C55.1252 30.5421 54.1239 31.5558 52.8908 31.5558H48.4714C47.2631 31.5558 46.2701 30.5793 46.2411 29.3544V18.7738C46.2411 17.5365 47.2342 16.531 48.4591 16.531H56.6191V12H48.4591C47.7018 11.9958 46.9528 12.1241 46.2411 12.3848C44.3418 13.0717 42.8438 14.582 42.1611 16.502C41.9128 17.2303 41.7887 17.9917 41.7928 18.7613V29.2386C41.7887 30.0083 41.9128 30.7696 42.1611 31.4979C42.8355 33.422 44.3377 34.9365 46.2411 35.6151C46.9528 35.8717 47.7018 36.0041 48.4591 36H52.9074C53.6605 36.0041 54.4135 35.8717 55.1252 35.6151C57.0287 34.9365 58.5308 33.4262 59.2053 31.4979C59.4494 30.7862 59.5777 30.0372 59.5859 29.28V21.7779H49.1914V26.2924Z" fill="#E65A26"/>
</g>
</g>
<defs>
<clipPath id="clip0_1713_2862">
<rect width="60" height="48" fill="white"/>
</clipPath>
</defs>
</svg>
