<svg width="23" height="25" viewBox="0 0 23 25" fill="none" xmlns="http://www.w3.org/2000/svg">
<path fill-rule="evenodd" clip-rule="evenodd" d="M13.5184 8.88042H12.4506V7.86877L18.3619 2.26854C18.667 1.9795 19.1247 1.9795 19.4298 2.26854C19.7349 2.55759 19.7349 2.99115 19.4298 3.2802L13.5184 8.88042Z" fill="#399EF7" fill-opacity="0.8"/>
<path fill-rule="evenodd" clip-rule="evenodd" d="M11.6919 7.31094L17.1928 1.95264L3.46347 1.95267C2.76989 1.95267 2.20764 2.51492 2.20764 3.20849V22.6968C2.20764 23.3904 2.76989 23.9526 3.46347 23.9526H19.1616C19.8552 23.9526 20.4174 23.3904 20.4174 22.6968V4.33594L14.3305 9.91869H11.6919V7.31094ZM4.9548 15.6094H14.6353C14.8954 15.6094 15.1062 15.8203 15.1062 16.0804V16.2766C15.1062 16.5367 14.8954 16.7475 14.6353 16.7475H4.9548C4.69471 16.7475 4.48387 16.5367 4.48387 16.2766V16.0804C4.48387 15.8203 4.69471 15.6094 4.9548 15.6094ZM4.9548 12.5745H11.221C11.4811 12.5745 11.6919 12.7853 11.6919 13.0454V13.2416C11.6919 13.5017 11.4811 13.7126 11.221 13.7126H4.9548C4.69471 13.7126 4.48387 13.5017 4.48387 13.2416V13.0454C4.48387 12.7853 4.69471 12.5745 4.9548 12.5745ZM4.96468 18.6447C4.69649 18.6447 4.47908 18.8621 4.47908 19.1303V19.3019C4.47908 19.5701 4.69649 19.7875 4.96468 19.7875H17.6176C17.8858 19.7875 18.1032 19.5701 18.1032 19.3019V19.1303C18.1032 18.8621 17.8858 18.6447 17.6176 18.6447H4.96468Z" fill="url(#paint0_linear_534_19448)"/>
<defs>
<linearGradient id="paint0_linear_534_19448" x1="912.698" y1="10.2312" x2="912.698" y2="1789.91" gradientUnits="userSpaceOnUse">
<stop stop-color="#399EF7"/>
<stop offset="1" stop-color="#3D89FC"/>
</linearGradient>
</defs>
</svg>
