<svg xmlns="http://www.w3.org/2000/svg" width="112" height="28"><g fill="#FFF"><path d="M16.537 13.259a5.53 5.53 0 0 1 2.634-4.64 5.661 5.661 0 0 0-4.46-2.412c-1.877-.197-3.697 1.123-4.653 1.123-.975 0-2.447-1.103-4.033-1.07a5.94 5.94 0 0 0-4.999 3.048C-1.135 13.05.477 18.55 2.548 21.575c1.036 1.481 2.246 3.135 3.83 3.077 1.55-.064 2.13-.989 4-.989 1.854 0 2.397.989 4.014.952 1.663-.027 2.711-1.488 3.71-2.983a12.25 12.25 0 0 0 1.698-3.457 5.344 5.344 0 0 1-3.263-4.916zm-3.053-9.041A5.445 5.445 0 0 0 14.73.317a5.54 5.54 0 0 0-3.585 1.855 5.181 5.181 0 0 0-1.278 3.756 4.581 4.581 0 0 0 3.617-1.71zM36.132 20.902h-5.29l-1.27 3.751H27.33l5.01-13.878h2.328l5.011 13.878h-2.279l-1.27-3.75zm-4.742-1.73h4.193l-2.067-6.088h-.058L31.39 19.17zm19.111.423c0 3.144-1.683 5.164-4.222 5.164a3.43 3.43 0 0 1-3.184-1.77h-.048v5.012H40.97V14.535h2.01v1.683h.039a3.59 3.59 0 0 1 3.221-1.789c2.568 0 4.261 2.03 4.261 5.166zm-2.135 0c0-2.049-1.058-3.395-2.674-3.395-1.586 0-2.654 1.375-2.654 3.395 0 2.039 1.068 3.404 2.654 3.404 1.616 0 2.674-1.337 2.674-3.404zm13.272 0c0 3.144-1.683 5.164-4.223 5.164a3.43 3.43 0 0 1-3.184-1.77h-.048v5.012h-2.077V14.535h2.01v1.683h.039a3.59 3.59 0 0 1 3.222-1.789c2.568 0 4.26 2.03 4.26 5.166zm-2.135 0c0-2.049-1.059-3.395-2.674-3.395-1.587 0-2.654 1.375-2.654 3.395 0 2.039 1.067 3.404 2.654 3.404 1.615 0 2.674-1.337 2.674-3.404zm9.495 1.192c.154 1.376 1.49 2.28 3.318 2.28 1.75 0 3.01-.904 3.01-2.145 0-1.077-.76-1.722-2.559-2.164l-1.798-.434c-2.548-.615-3.732-1.807-3.732-3.74 0-2.395 2.087-4.04 5.05-4.04 2.933 0 4.943 1.645 5.01 4.04h-2.096c-.125-1.386-1.27-2.222-2.943-2.222s-2.818.846-2.818 2.077c0 .981.731 1.559 2.52 2l1.529.376c2.847.673 4.03 1.817 4.03 3.847 0 2.597-2.068 4.223-5.357 4.223-3.078 0-5.156-1.588-5.29-4.098h2.126zm13.004-8.646v2.394h1.924v1.645h-1.924v5.578c0 .867.385 1.27 1.23 1.27a6.49 6.49 0 0 0 .684-.048v1.635c-.38.071-.767.103-1.154.096-2.048 0-2.847-.77-2.847-2.731v-5.8h-1.471v-1.645h1.47v-2.394h2.088zm3.038 7.454c0-3.184 1.875-5.184 4.799-5.184 2.934 0 4.8 2 4.8 5.184 0 3.192-1.857 5.184-4.8 5.184-2.942 0-4.799-1.992-4.799-5.184zm7.483 0c0-2.184-1.001-3.473-2.684-3.473-1.683 0-2.683 1.299-2.683 3.473 0 2.192 1 3.472 2.683 3.472 1.683 0 2.684-1.28 2.684-3.472zm3.828-5.06h1.981v1.722h.048a2.413 2.413 0 0 1 2.434-1.828c.24 0 .478.026.711.078v1.943a2.903 2.903 0 0 0-.933-.126 2.093 2.093 0 0 0-2.164 2.328v6.001h-2.077V14.535zm14.75 7.147c-.28 1.836-2.068 3.097-4.357 3.097-2.943 0-4.77-1.972-4.77-5.136 0-3.174 1.837-5.232 4.683-5.232 2.8 0 4.56 1.923 4.56 4.99v.712h-7.146v.126a2.635 2.635 0 0 0 2.721 2.866 2.29 2.29 0 0 0 2.337-1.423h1.972zm-7.02-3.02h5.058a2.433 2.433 0 0 0-2.482-2.568 2.561 2.561 0 0 0-2.577 2.568z"/><g><path d="M31.13.329a2.95 2.95 0 0 1 3.137 3.313c0 2.13-1.151 3.355-3.137 3.355H28.72V.329h2.409zm-1.373 5.725h1.257a2.096 2.096 0 0 0 2.2-2.398 2.102 2.102 0 0 0-2.2-2.385h-1.257v4.783zm5.68-1.575a2.384 2.384 0 1 1 4.747 0 2.384 2.384 0 1 1-4.747 0zm3.725 0c0-1.091-.49-1.73-1.35-1.73-.863 0-1.349.639-1.349 1.73 0 1.1.486 1.732 1.35 1.732.86 0 1.35-.637 1.35-1.732zM46.493 6.997h-1.03l-1.04-3.706h-.079l-1.036 3.706h-1.02l-1.387-5.033h1.007l.902 3.84h.074l1.035-3.84h.952l1.035 3.84h.079l.897-3.84h.993zM49.041 1.964h.957v.8h.074a1.506 1.506 0 0 1 1.501-.897 1.637 1.637 0 0 1 1.742 1.872v3.258h-.993V3.988c0-.808-.351-1.21-1.086-1.21a1.154 1.154 0 0 0-1.201 1.275v2.944h-.994V1.964zM54.898 0h.993v6.997h-.993zM57.272 4.479a2.384 2.384 0 1 1 4.747 0 2.385 2.385 0 1 1-4.747 0zm3.724 0c0-1.091-.49-1.73-1.35-1.73-.863 0-1.348.639-1.348 1.73 0 1.1.485 1.732 1.348 1.732.86 0 1.35-.637 1.35-1.732zm2.068 1.095c0-.906.675-1.428 1.872-1.503l1.363-.078v-.435c0-.531-.351-.831-1.03-.831-.555 0-.939.203-1.05.56h-.96c.1-.865.914-1.42 2.056-1.42 1.261 0 1.973.628 1.973 1.691v3.439h-.956V6.29h-.079a1.693 1.693 0 0 1-1.511.79 1.52 1.52 0 0 1-1.678-1.506zm3.235-.43v-.421l-1.229.079c-.693.046-1.007.282-1.007.725 0 .453.393.717.933.717a1.186 1.186 0 0 0 1.303-1.1zm2.294-.665c0-1.59.818-2.598 2.089-2.598a1.658 1.658 0 0 1 1.543.883h.074V0h.994v6.997h-.952v-.795h-.079a1.747 1.747 0 0 1-1.58.878c-1.28 0-2.089-1.008-2.089-2.601zm1.026 0c0 1.067.503 1.71 1.345 1.71.837 0 1.354-.652 1.354-1.706 0-1.049-.523-1.71-1.354-1.71-.836 0-1.345.647-1.345 1.706zm7.783 0a2.384 2.384 0 1 1 4.746 0 2.384 2.384 0 1 1-4.746 0zm3.725 0c0-1.091-.49-1.73-1.35-1.73-.864 0-1.35.639-1.35 1.73 0 1.1.486 1.732 1.35 1.732.86 0 1.35-.637 1.35-1.732zm2.354-2.515h.956v.8h.074a1.506 1.506 0 0 1 1.502-.897 1.637 1.637 0 0 1 1.741 1.872v3.258h-.993V3.988c0-.808-.351-1.21-1.086-1.21a1.154 1.154 0 0 0-1.201 1.275v2.944h-.993V1.964zM93.366.712v1.275h1.09v.837h-1.09v2.588c0 .527.218.758.712.758.127 0 .253-.008.379-.023v.827c-.179.032-.36.049-.54.05-1.105 0-1.545-.388-1.545-1.358V2.824h-.799v-.837h.8V.712h.993zM95.813 0h.985v2.773h.078c.27-.594.884-.954 1.535-.901a1.658 1.658 0 0 1 1.733 1.876v3.249h-.994V3.993c0-.804-.375-1.211-1.076-1.211a1.176 1.176 0 0 0-1.268 1.276v2.939h-.993V0zm10.122 5.638a2.043 2.043 0 0 1-2.18 1.456 2.286 2.286 0 0 1-2.325-2.597 2.321 2.321 0 0 1 2.32-2.63c1.4 0 2.245.957 2.245 2.537v.347h-3.554v.055a1.33 1.33 0 0 0 1.34 1.442c.486.058.96-.183 1.198-.61h.956zm-3.494-1.622h2.542a1.214 1.214 0 0 0-1.239-1.303 1.287 1.287 0 0 0-1.303 1.303z"/></g></g></svg>