<svg width="14" height="17" viewBox="0 0 14 17" fill="none" xmlns="http://www.w3.org/2000/svg">
<path d="M13 7.39258C13 10.9924 8.12316 14.6038 7.16299 15.2799C7.06382 15.3498 6.93618 15.3498 6.83701 15.2799C5.87684 14.6038 1 10.9924 1 7.39258C1 4.07887 3.68629 1.39258 7 1.39258C10.3137 1.39258 13 4.07887 13 7.39258Z" stroke="#757575" stroke-width="1.5" stroke-linejoin="round"/>
<path d="M9.5 7.39258C9.5 8.77329 8.38071 9.89258 7 9.89258C5.61929 9.89258 4.5 8.77329 4.5 7.39258C4.5 6.01187 5.61929 4.89258 7 4.89258C8.38071 4.89258 9.5 6.01187 9.5 7.39258Z" stroke="#757575" stroke-width="1.5" stroke-linejoin="round"/>
</svg>
