<?xml version="1.0" encoding="UTF-8"?>
<svg width="16px" height="16px" viewBox="0 0 16 16" version="1.1" xmlns="http://www.w3.org/2000/svg" xmlns:xlink="http://www.w3.org/1999/xlink">
    <title>Photo</title>
    <g id="页面-1" stroke="none" stroke-width="1" fill="none" fill-rule="evenodd">
        <g id="992_内容承载页" transform="translate(-707.000000, -2671.000000)" fill="#969697">
            <g id="编组-27" transform="translate(0.000000, 2357.000000)">
                <g id="编组-24" transform="translate(707.000000, 240.000000)">
                    <g id="编组-22" transform="translate(0.000000, 40.000000)">
                        <g id="Photo" transform="translate(0.000000, 34.000000)">
                            <path d="M2.66666667,2 C2.43091867,2 2.2048263,2.10535684 2.0381273,2.29289321 C1.87142829,2.48042959 1.77777777,2.73478351 1.77777777,3 L1.77777777,13 C1.77777777,13.2652165 1.87142829,13.5195704 2.0381273,13.7071068 C2.2048263,13.8946432 2.43091867,14 2.66666667,14 L13.3333333,14 C13.5690813,14 13.7951737,13.8946432 13.9618727,13.7071068 C14.1285717,13.5195704 14.2222222,13.2652165 14.2222222,13 L14.2222222,3 C14.2222222,2.73478351 14.1285717,2.48042959 13.9618727,2.29289321 C13.7951737,2.10535684 13.5690813,2 13.3333333,2 L2.66666667,2 Z M2.66666667,0 L13.3333333,0 C14.8060927,0 16,1.34314575 16,3 L16,13 C16,14.6568543 14.8060927,16 13.3333333,16 L2.66666667,16 C1.19390733,16 0,14.6568543 0,13 L0,3 C0,1.34314575 1.19390733,0 2.66666667,0 Z" id="形状" fill-rule="nonzero"></path>
                            <path d="M3.26477852,10.7710037 L4.25373959,6.2395485 C4.37150034,5.69996454 4.90438351,5.35800926 5.44396747,5.47577 C5.70648474,5.53306272 5.93490092,5.69359002 6.07773946,5.92117501 L7.70019258,8.50623351 C7.84698936,8.74012518 8.15559834,8.81072954 8.38949001,8.66393276 C8.42141605,8.6438951 8.45097389,8.62031156 8.47760017,8.59363159 L8.98345031,8.0867616 C9.37358113,7.69584423 10.0067458,7.6952066 10.3976632,8.08533742 C10.4625759,8.15011959 10.5182688,8.22352322 10.5631757,8.30348426 L11.793704,10.4945567 C12.0641422,10.9760976 11.8930097,11.5856971 11.4114688,11.8561353 C11.26193,11.9401177 11.0933048,11.9842284 10.9217971,11.9842284 L4.24178171,11.9842284 C3.68949696,11.9842284 3.24178171,11.5365131 3.24178171,10.9842284 C3.24178171,10.9125346 3.24949164,10.8410487 3.26477852,10.7710037 Z" id="路径-5"></path>
                            <rect id="矩形" x="10" y="4" width="3" height="3" rx="1.5"></rect>
                        </g>
                    </g>
                </g>
            </g>
        </g>
    </g>
</svg>