<svg width="108" height="21" viewBox="0 0 108 21" fill="none" xmlns="http://www.w3.org/2000/svg">
<rect x="0.000244141" y="0.952637" width="19.9999" height="19.9999" fill="#00B67A"/>
<path fill-rule="evenodd" clip-rule="evenodd" d="M11.631 9.45791L10.0001 4.62106L8.36923 9.45791H3.09155L7.36128 12.4472L5.73039 17.2841L10.0001 14.2948L14.2698 17.2841L13.0576 13.689L10.2294 14.1568L12.6393 12.4483L12.639 12.4472L12.7824 12.3468L12.921 12.2486L12.9215 12.2494L16.9087 9.45791H11.631Z" fill="white"/>
<rect x="44" y="0.952789" width="19.9999" height="19.9999" fill="#00B67A"/>
<path fill-rule="evenodd" clip-rule="evenodd" d="M55.5716 9.45782L54 4.62097L52.4284 9.45782H47.3427L51.4571 12.4472L49.8855 17.284L54 14.2947L58.1145 17.284L56.9463 13.6889L54.2208 14.1567L56.5432 12.4481L56.5429 12.4472L56.6735 12.3522L56.8146 12.2485L56.8151 12.2494L60.6573 9.45782H55.5716Z" fill="white"/>
<rect x="65.9999" y="0.952789" width="19.9999" height="19.9999" fill="#00B67A"/>
<path fill-rule="evenodd" clip-rule="evenodd" d="M77.5715 9.45782L75.9999 4.62097L74.4283 9.45782H69.3425L73.457 12.4472L71.8854 17.284L75.9999 14.2947L80.1143 17.284L78.9462 13.6889L76.2207 14.1567L78.5431 12.4481L78.5428 12.4472L78.6734 12.3522L78.8144 12.2485L78.815 12.2494L82.6572 9.45782H77.5715Z" fill="white"/>
<rect x="22.0001" y="0.952789" width="19.9999" height="19.9999" fill="#00B67A"/>
<path fill-rule="evenodd" clip-rule="evenodd" d="M33.6309 9.45782L32 4.62097L30.3691 9.45782H25.0914L29.3612 12.4472L27.7303 17.284L32 14.2947L36.2697 17.284L35.0575 13.6889L32.2293 14.1567L34.6392 12.4482L34.6388 12.4472L34.7825 12.3466L34.9209 12.2485L34.9214 12.2493L38.9086 9.45782H33.6309Z" fill="white"/>
<rect x="87.9998" y="0.952789" width="19.9999" height="19.9999" fill="#00B67A"/>
<path fill-rule="evenodd" clip-rule="evenodd" d="M99.5713 9.45782L97.9998 4.62097L96.4282 9.45782H91.3424L95.4569 12.4472L93.8853 17.284L97.9998 14.2947L102.114 17.284L100.946 13.6889L98.2206 14.1567L100.543 12.4481L100.543 12.4472L100.673 12.3522L100.814 12.2485L100.815 12.2494L104.657 9.45782H99.5713Z" fill="white"/>
</svg>
