<svg width="20" height="20" viewBox="0 0 20 20" fill="none" xmlns="http://www.w3.org/2000/svg">
<path d="M7.81512 2.52922C8.77088 0.830104 11.2172 0.830101 12.173 2.52922L19.6777 15.0245C20.6151 16.691 19.3931 18.7501 17.481 18.7501H2.50608C0.594015 18.7501 -0.61027 16.691 0.327142 15.0245L7.81512 2.52922Z" fill="#E2651A"/>
<path fill-rule="evenodd" clip-rule="evenodd" d="M10 6.25C10.6904 6.25 11.25 6.80964 11.25 7.5V11.25C11.25 11.9404 10.6904 12.5 10 12.5C9.30964 12.5 8.75 11.9404 8.75 11.25V7.5C8.75 6.80964 9.30964 6.25 10 6.25ZM8.75 15C8.75 14.3096 9.30964 13.75 10 13.75C10.6904 13.75 11.25 14.3096 11.25 15C11.25 15.6904 10.6904 16.25 10 16.25C9.30964 16.25 8.75 15.6904 8.75 15Z" fill="white"/>
</svg>
