<svg width="20" height="20" viewBox="0 0 20 20" fill="none" xmlns="http://www.w3.org/2000/svg">
<g clip-path="url(#clip0_740_6759)">
<path d="M10 20C15.5228 20 20 15.5228 20 10C20 4.47715 15.5228 0 10 0C4.47715 0 0 4.47715 0 10C0 15.5228 4.47715 20 10 20Z" fill="#418F1F"/>
<path fill-rule="evenodd" clip-rule="evenodd" d="M15.7513 6.4987C16.1662 6.91363 16.1662 7.58637 15.7513 8.0013L9.72648 14.0261C9.31155 14.4411 8.63881 14.4411 8.22388 14.0261L4.8737 10.6759C4.45877 10.261 4.45877 9.58827 4.8737 9.17334C5.28863 8.75841 5.96137 8.75841 6.3763 9.17334L8.97518 11.7722L14.2487 6.4987C14.6636 6.08377 15.3364 6.08377 15.7513 6.4987Z" fill="white"/>
</g>
<defs>
<clipPath id="clip0_740_6759">
<rect width="20" height="20" fill="white"/>
</clipPath>
</defs>
</svg>
