<?xml version="1.0" encoding="UTF-8"?>
<svg width="16px" height="16px" viewBox="0 0 16 16" version="1.1" xmlns="http://www.w3.org/2000/svg" xmlns:xlink="http://www.w3.org/1999/xlink">
    <title>Video</title>
    <g id="页面-1" stroke="none" stroke-width="1" fill="none" fill-rule="evenodd">
        <g id="992_内容承载页" transform="translate(-707.000000, -2641.000000)" fill="#969697" fill-rule="nonzero">
            <g id="编组-27" transform="translate(0.000000, 2357.000000)">
                <g id="编组-24" transform="translate(707.000000, 240.000000)">
                    <g id="编组-22" transform="translate(0.000000, 40.000000)">
                        <g id="Video" transform="translate(0.000000, 4.000000)">
                            <path d="M2.85714287,2 C2.62981445,2 2.4117968,2.10535683 2.25105133,2.29289321 C2.09030586,2.48042959 2,2.7347835 2,3 L2,13 C2,13.2652165 2.09030586,13.5195704 2.25105133,13.7071068 C2.4117968,13.8946432 2.62981445,14 2.85714287,14 L13.1428571,14 C13.3701856,14 13.5882032,13.8946432 13.7489487,13.7071068 C13.9096941,13.5195704 14,13.2652165 14,13 L14,3 C14,2.7347835 13.9096941,2.48042959 13.7489487,2.29289321 C13.5882032,2.10535683 13.3701856,2 13.1428571,2 L2.85714287,2 Z M2.66666667,0 L13.3333333,0 C14.8060927,0 16,1.34314575 16,3 L16,13 C16,14.6568543 14.8060927,16 13.3333333,16 L2.66666667,16 C1.19390733,16 0,14.6568543 0,13 L0,3 C0,1.34314575 1.19390733,0 2.66666667,0 Z" id="形状"></path>
                            <path d="M10.5741367,8.7862127 L7.49261303,10.8409772 C7.1975695,11.0356291 6.81981612,11.0528117 6.50837738,10.8857466 C6.19693864,10.7186814 6.00182147,10.3941936 6,10.0402943 L6,5.95970569 C6.00182147,5.6058064 6.19693864,5.28131862 6.50837738,5.11425343 C6.81981612,4.94718825 7.1975695,4.96437091 7.49261303,5.15902282 L10.5741367,7.2137873 C10.8403317,7.39298758 11,7.69318648 11,8.01447017 C11,8.33575387 10.8403317,8.63595277 10.5741367,8.81515305 L10.5741367,8.7862127 Z" id="路径"></path>
                        </g>
                    </g>
                </g>
            </g>
        </g>
    </g>
</svg>