<svg width="17" height="40" viewBox="0 0 17 40" fill="none" xmlns="http://www.w3.org/2000/svg">
<path fill-rule="evenodd" clip-rule="evenodd" d="M7.85548 5.23426C7.01091 3.6301 7.87468 1.55919 9.35748 0.56665C9.35748 0.800872 9.35618 1.03461 9.35488 1.26757V1.26757V1.26758V1.26759V1.2676C9.35186 1.80836 9.34886 2.34493 9.36227 2.87363C9.41413 3.4053 9.28922 3.93972 9.01135 4.37506C8.73347 4.81039 8.32205 5.11622 7.85548 5.23426ZM13.1663 0.723695L13.1663 0.7237C12.7121 0.843053 12.2579 0.962405 11.7914 1.05439C11.3309 1.09498 10.8978 1.31574 10.5685 1.67783C10.2392 2.03992 10.0347 2.52016 9.99096 3.03409C9.95255 3.26479 9.99097 3.33454 10.2022 3.36673C10.8744 3.47543 11.5588 3.30147 12.1227 2.87852C12.8616 2.32638 13.4195 1.52031 13.7119 0.582275C13.5295 0.628248 13.3479 0.675971 13.1663 0.723693L13.1663 0.723695ZM5.82942 8.55573C6.25277 8.31429 6.58338 7.90932 6.75989 7.41598C6.93639 6.92264 6.9468 6.37446 6.78916 5.8732C6.74375 5.68703 6.68859 5.50305 6.63335 5.31878L6.63334 5.31874L6.63333 5.31873L6.63333 5.31872L6.63333 5.31872L6.63332 5.31871L6.63332 5.3187L6.63332 5.31869L6.63332 5.31868L6.63331 5.31867L6.63331 5.31866L6.63331 5.31866L6.6333 5.31865L6.6333 5.31864L6.6333 5.31863L6.6333 5.31862L6.63329 5.31861L6.63329 5.3186L6.63329 5.3186L6.63328 5.31859L6.63328 5.31858C6.56596 5.09403 6.49852 4.86907 6.44846 4.63925C6.39138 4.30386 6.34973 3.96541 6.32368 3.62524C5.21998 4.69289 4.58655 7.08034 5.82942 8.55573ZM6.22808 20.7601C6.72261 22.3857 6.34811 24.5854 4.65808 25.3687C4.36625 24.9372 4.22651 24.4009 4.26546 23.8617C4.30441 23.3226 4.51934 22.8183 4.86934 22.4447L6.22808 20.7601ZM10.0739 7.52477C9.91319 7.5129 9.75106 7.50267 9.58796 7.49238H9.58796H9.58795H9.58795H9.58794H9.58794H9.58793H9.58793H9.58793H9.58792H9.58792H9.58791H9.58791H9.5879H9.5879H9.5879H9.58789H9.58789C9.16127 7.46547 8.72807 7.43814 8.29739 7.37992C7.86014 7.29297 7.40958 7.39018 7.03272 7.65275C6.65586 7.91533 6.37944 8.32465 6.25687 8.80165C7.27953 9.70835 9.25764 9.01625 10.0739 7.52477ZM5.71685 17.251C5.86979 17.1262 6.02515 16.9995 6.18411 16.8703C6.15473 17.372 6.10185 17.8716 6.02568 18.3671C5.94143 18.9651 5.70798 19.5245 5.35214 19.9809C4.99631 20.4374 4.5325 20.7725 4.01396 20.9477C3.81231 21.0228 3.70668 21.0014 3.65387 20.7224C3.52104 20.2553 3.53529 19.7514 3.69426 19.2946C3.85324 18.8379 4.14735 18.4556 4.5277 18.2115C4.92175 17.8998 5.31073 17.5824 5.71673 17.2511L5.71685 17.251ZM8.15193 10.0364C7.66179 10.3472 7.15655 10.3823 6.66172 10.4167C6.4731 10.4299 6.28599 10.4429 6.10181 10.471C5.69253 10.5269 5.31388 10.7419 5.03213 11.0783C4.75038 11.4148 4.58347 11.8512 4.56061 12.3112C5.80413 12.9175 7.52777 11.8552 8.15193 10.0364ZM11.0719 34.6796C11.5899 34.8677 12.0408 35.2352 12.3593 35.7289C11.2454 37.5852 7.56762 37.7837 6.53056 36.1259C6.69463 36.0506 6.86048 35.9758 7.02731 35.9006L7.02797 35.9003L7.02862 35.9L7.02928 35.8997L7.02993 35.8994L7.03059 35.8991L7.03124 35.8988L7.0319 35.8985L7.03255 35.8982L7.03321 35.8979L7.03386 35.8976L7.03452 35.8973L7.03517 35.897L7.03583 35.8968L7.036 35.8967C7.41313 35.7266 7.79514 35.5544 8.17258 35.3694C8.3601 35.2783 8.5433 35.1746 8.72621 35.0711L8.72633 35.0711L8.72643 35.071C8.9743 34.9307 9.22164 34.7907 9.47852 34.6827C9.99588 34.4926 10.554 34.4915 11.0719 34.6796ZM6.71222 13.2025C6.57112 13.2574 6.42803 13.3141 6.28323 13.3716C5.87617 13.533 5.45549 13.6999 5.02698 13.8463C3.97551 14.2057 3.44258 15.0105 3.53381 16.1425C5.12301 16.4913 6.48176 14.8442 6.71222 13.2025ZM2.80404 12.8809C3.49061 13.7232 3.68267 14.705 2.94328 16.0999C1.0516 15.2469 0.729911 12.5858 1.33487 10.9495C1.49519 11.1597 1.65664 11.3768 1.82033 11.5969C2.13704 12.0228 2.46219 12.46 2.80404 12.8809ZM15.7379 37.3496C15.3129 36.8809 14.7567 36.5895 14.1624 36.5241C13.5682 36.4586 12.9718 36.6231 12.4731 36.9901C12.2623 37.1384 12.0643 37.3119 11.8667 37.485C11.6996 37.6313 11.5329 37.7773 11.3592 37.9075C11.077 38.1157 10.7832 38.3145 10.4982 38.5074L10.4981 38.5074C10.2983 38.6427 10.1029 38.775 9.91883 38.9054C11.6185 40.0214 14.6768 39.7424 15.7379 37.3496ZM3.71865 24.0329C4.03198 24.5645 4.16245 25.2049 4.08593 25.8357C2.28067 26.1898 0.384182 24.5052 8.39233e-05 21.9299C0.0983772 21.9832 0.197105 22.0399 0.296663 22.0971C0.527786 22.2299 0.763375 22.3652 1.00834 22.4664C1.25966 22.5721 1.5201 22.6557 1.78025 22.7392C1.98232 22.8041 2.1842 22.8689 2.3815 22.9439C2.93032 23.1145 3.40531 23.5013 3.71865 24.0329ZM1.48851 27.011C2.13668 28.9853 4.04757 30.9328 6.28974 30.1817C6.39537 28.9746 5.40632 27.7353 4.17721 27.5421C3.98483 27.5104 3.79047 27.4897 3.59593 27.4691C3.3632 27.4444 3.13021 27.4196 2.90008 27.3758C2.62275 27.323 2.30819 27.2355 1.98898 27.1467L1.98894 27.1467L1.98885 27.1467C1.82178 27.1002 1.65345 27.0534 1.48851 27.011ZM4.02392 12.2682C2.57951 11.222 2.48353 9.01699 3.28972 7.40747L3.40495 7.63364C3.62344 8.06262 3.84835 8.50419 4.07672 8.94188C4.14443 9.08319 4.21957 9.21263 4.29365 9.34025L4.29365 9.34026C4.37708 9.48397 4.45917 9.62538 4.5278 9.77883C4.69323 10.1994 4.73355 10.6683 4.64284 11.1164C4.55214 11.5645 4.3352 11.9683 4.02392 12.2682ZM8.49286 5.68537C9.62595 6.52769 11.2056 5.90534 11.9737 4.61236L11.7371 4.58632C11.2746 4.53557 10.7912 4.48253 10.3077 4.41386C9.91886 4.34568 9.52104 4.43682 9.18755 4.67047C8.85405 4.90412 8.60734 5.26454 8.49286 5.68537ZM6.47308 26.159C6.65543 25.6386 6.82819 25.1182 7.03933 24.4797C7.28482 25.0393 7.50112 25.6144 7.68716 26.2019C7.85255 26.7389 7.88546 27.3157 7.78244 27.8718C7.67941 28.4279 7.44426 28.9426 7.10171 29.3619C7.00574 29.4907 6.91457 29.6087 6.76101 29.4317C6.19956 28.7664 5.77726 27.9724 6.16596 26.9477C6.19077 26.8856 6.21645 26.8225 6.24244 26.7587L6.24251 26.7586L6.24253 26.7585C6.32205 26.5633 6.40438 26.3611 6.47308 26.159ZM11.451 30.7092C11.451 30.9565 11.4548 31.2019 11.4585 31.445V31.4451C11.466 31.9248 11.4733 32.396 11.451 32.8553C11.3737 33.4059 11.4836 33.9688 11.7589 34.4335C12.0342 34.8981 12.455 35.2308 12.9386 35.3661C13.7592 33.9283 13.0345 31.7608 11.451 30.7092ZM0.263973 16.4145C0.100731 18.1581 0.912139 20.6099 3.02468 20.9855C3.20292 20.5632 3.26566 20.0916 3.20502 19.6297C3.14438 19.1677 2.96305 18.7361 2.68378 18.3888C2.28189 18.037 1.86361 17.7093 1.43067 17.407C1.13913 17.1657 0.847592 16.9153 0.556053 16.665L0.555999 16.6649L0.555944 16.6649L0.55589 16.6648L0.555773 16.6647C0.458507 16.5812 0.36124 16.4977 0.263973 16.4145ZM9.11292 33.3326C7.24524 34.6793 4.96465 33.5204 3.83157 31.7982C4.02495 31.7776 4.22078 31.756 4.4186 31.7341L4.41876 31.7341L4.41907 31.734C4.83993 31.6874 5.26976 31.6399 5.70404 31.5997C6.21976 31.523 6.73938 31.4836 7.25965 31.4817C7.69219 31.5667 8.09488 31.785 8.42233 32.112C8.74978 32.4391 8.98896 32.8618 9.11292 33.3326ZM8.81123 27.8684C8.7737 28.0911 8.7366 28.3148 8.69942 28.539L8.69941 28.5391C8.61298 29.0602 8.52607 29.5842 8.43213 30.1056C8.30477 30.5817 8.32724 31.0923 8.49577 31.5521C8.66431 32.0119 8.96873 32.3933 9.35829 32.6326C9.54544 32.7667 9.63661 32.7345 9.74218 32.5253C9.95257 32.1235 10.0814 31.675 10.1195 31.2115C10.1577 30.7479 10.1042 30.2806 9.96292 29.8427C9.72659 29.0907 9.33153 28.4134 8.81123 27.8684ZM14.3793 32.8073C14.3683 32.6998 14.3573 32.5913 14.3463 32.4816C15.1627 32.958 15.8195 33.7164 16.2188 34.6438C16.47 35.3115 16.5122 36.0543 16.3388 36.7522C16.3052 36.9346 16.2428 37.0312 16.0508 36.9722C15.6677 36.8707 15.3206 36.6431 15.0544 36.3189C14.7882 35.9947 14.6152 35.5887 14.5576 35.1534C14.5266 34.9553 14.5237 34.7554 14.5208 34.5558C14.5188 34.4148 14.5167 34.274 14.5048 34.1341C14.4698 33.7001 14.4254 33.2625 14.3793 32.8073Z" fill="url(#paint0_linear_969_16982)"/>
<defs>
<linearGradient id="paint0_linear_969_16982" x1="16.4004" y1="39.9631" x2="3.95349" y2="-9.89219" gradientUnits="userSpaceOnUse">
<stop stop-color="#B3B3B3"/>
<stop offset="1" stop-color="#E3E3E3"/>
</linearGradient>
</defs>
</svg>
