<svg width="24" height="24" viewBox="0 0 24 24" fill="none" xmlns="http://www.w3.org/2000/svg">
<circle cx="12" cy="12" r="12" fill="#F64646"/>
<path fill-rule="evenodd" clip-rule="evenodd" d="M16.4664 7.72963C17.3232 7.83306 17.5265 8.30787 17.7851 9.16467C17.7851 9.16467 18.0178 10.6097 18.0178 12.0089C18.0178 13.322 17.7851 14.5946 17.7851 14.5946C17.5524 15.4514 17.2715 15.8745 16.4664 16.0296C16.4664 16.0296 14.408 16.1848 12.2518 16.1848C9.8804 16.1848 7.39071 16.0296 7.39071 16.0296C6.58561 15.9262 6.21424 15.3997 6.03324 14.5946C6.03324 14.5946 5.80054 13.2024 5.80054 11.8279C5.80054 10.4879 6.03324 9.16467 6.03324 9.16467C6.26594 8.33371 6.48216 7.83306 7.39071 7.72963L7.39071 7.72963C7.39297 7.72951 9.63497 7.61328 11.8898 7.61328C14.1715 7.61328 16.4664 7.72963 16.4664 7.72963ZM14.217 11.8795L10.6876 9.59115V14.1678L14.217 11.8795Z" fill="white"/>
</svg>
