<?xml version="1.0" encoding="UTF-8"?>
<svg width="36px" height="36px" viewBox="0 0 36 36" version="1.1" xmlns="http://www.w3.org/2000/svg" xmlns:xlink="http://www.w3.org/1999/xlink">
    <title>WPS Academy</title>
    <g id="Index" stroke="none" stroke-width="1" fill="none" fill-rule="evenodd">
        <g id="画板" transform="translate(-228.000000, -268.000000)">
            <g id="编组" transform="translate(216.000000, 256.000000)">
                <g id="WPS-Academy" transform="translate(12.000000, 12.000000)">
                    <rect id="矩形" x="0" y="0" width="36" height="36"></rect>
                    <g id="编组-38" transform="translate(4.000000, 6.000000)" stroke="#333333" stroke-width="3">
                        <path d="M12.6323688,0.417748374 L1.87131116,5.59899833 C1.37370168,5.83858808 1.16453536,6.43620614 1.40412511,6.93381562 C1.50242526,7.13797747 1.66714931,7.30270152 1.87131116,7.40100167 L12.6323688,12.5822516 C13.1806672,12.8462472 13.8193328,12.8462472 14.3676312,12.5822516 L25.1286888,7.40100167 C25.6262983,7.16141192 25.8354646,6.56379386 25.5958749,6.06618438 C25.4975747,5.86202253 25.3328507,5.69729848 25.1286888,5.59899833 L14.3676312,0.417748374 C13.8193328,0.153752826 13.1806672,0.153752826 12.6323688,0.417748374 Z" id="路径-17"></path>
                        <path d="M5.19230769,9.42164986 L12.3864262,13.0007987 C13.0878051,13.349742 13.9121949,13.349742 14.6135738,13.0007987 L14.6135738,13.0007987 L21.807,9.422 L21.8076923,18.0041516 L13.5,22.3104588 L5.19230769,18.0041516 L5.19230769,9.42164986 Z" id="路径-19"></path>
                    </g>
                </g>
            </g>
        </g>
    </g>
</svg>